# Generated by Visualization Toolkit
v -0.392695 0.739281 0.022758
v -0.833785 -0.074505 0.0227583
v -0.746093 0.379592 1.12188
v -0.0572207 -0.100305 0.0227736
v -0.392673 0.739294 0.0227581
v -0.0574372 -0.0997771 0.0228088
v -0.67848 0.490318 0.874624
v 0.208668 0.810682 0.817437
v 0.524748 0.651895 1.14645
v 0.836106 0.0409306 0.022757
v -0.0463854 -0.0318789 0.0527212
v 0.428365 0.719203 0.0227557
v 0.657357 0.307155 1.14198
v -0.0240624 -0.0793028 0.0758534
v -0.725895 0.0479727 1.04523
v -0.595529 0.539902 0.918872
v -0.677099 -0.492215 0.891929
v 0.223071 -0.806837 1.59775
v 0.554064 -0.341345 1.24658
v 0.0524334 0.10579 1.91924
v -0.727444 0.0431992 1.04644
v 0.0601893 0.108216 1.91894
v 0.655281 0.30522 1.14231
v 0.0524091 0.835456 0.913782
v 0.447563 -0.707415 0.0227648
v 0.0532045 -0.0193654 0.153706
v 0.155687 -0.822499 1.30889
v 0.802936 -0.236732 0.699173
v -0.722692 -0.422385 0.853411
v 0.0475663 0.107004 1.91003
v -0.699703 -0.459525 2.11553
v -0.180791 -0.817352 2.09441
v 0.836107 0.0409222 0.0227564
v -0.061998 -0.0506058 0.022776
v 0.555918 0.625857 1.09542
v 0.634186 -0.546404 0.315197
v 0.0524298 0.106116 1.91943
v -0.180845 -0.817338 2.09429
v -0.711479 -0.441072 0.885875
v 0.223057 -0.806841 1.59775
v -0.319725 0.773643 2.11553
v 0.0783759 -0.014882 2.07935
v 0.50522 0.667459 2.11552
v -0.00497828 0.836985 0.958033
v -0.667322 -0.505382 0.871635
v 0.526748 -0.34212 1.24283
v 0.0522596 0.105 1.91792
v 0.382036 0.217141 0.971554
v 0.155411 -0.822553 1.30995
v -0.299615 -0.781651 0.0227617
v 0.447555 -0.707419 0.022758
v 0.0534482 -0.0201387 0.154246
v -0.0611673 0.206948 2.07176
v -0.197669 -0.813434 2.11552
v 0.490752 -0.678167 2.11553
v 0.68305 -0.456255 1.07362
v -0.677063 -0.491269 0.879968
v -0.748531 0.374744 1.11005
v -0.833782 -0.0745316 0.0227582
v 0.0130541 -0.10266 0.022838
v 0.832664 -0.0861349 2.11553
v 0.054198 0.103846 1.91767
v 0.490758 -0.678163 2.11553
v 0.736662 -0.397507 0.789451
v -0.673948 0.496518 0.926911
v 0.0627898 0.109717 1.92009
v -0.319737 0.773637 2.11551
v 0.0204803 0.836855 0.872926
v 0.260503 0.0820232 0.520997
v -0.667341 -0.50536 0.871796
v 0.0554764 0.10706 1.91643
v -0.740595 0.0420707 1.03184
v 0.172032 -0.81923 1.35175
v -0.533888 -0.644755 1.18991
v 0.0438098 -0.0407975 0.182337
v -0.299618 -0.781648 0.0228053
v -0.743045 -0.385524 0.928378
v -0.729127 0.411241 1.13145
v -0.812489 0.201512 2.11551
v 0.0548224 0.111604 1.9169
v 0.790524 0.27534 0.752541
v 0.05712 0.101075 1.91032
v 0.832663 -0.0861265 2.11545
v 0.736243 -0.398361 0.785548
v 0.428358 0.719207 0.0227555
v -0.0712588 -0.0650977 0.0228343
v 0.507049 0.632439 1.10403
v -0.39264 0.739312 0.022784
v 0.580326 0.263276 1.02149
v 0.191743 -0.784955 1.29656
v 0.043992 -0.0408177 0.182383
v -0.563653 -0.441503 0.884058
v 0.208672 0.810679 0.817444
v -0.0569111 -0.0979373 0.024429
v -0.633643 0.546998 0.912104
v 0.65746 0.307138 1.14198
v 0.0584198 0.100763 1.91071
v 0.832666 -0.0861257 2.11552
v 0.794529 0.263575 0.795203
v 0.505237 0.667447 2.1155
v -0.319745 0.773636 2.11552
v -0.812488 0.201524 2.11552
v 0.0644646 0.108863 1.92243
v -0.692621 0.470133 0.846201
v 0.763761 0.342652 1.00366
v -0.00433208 0.837093 0.959087
v 0.505222 0.667456 2.11549
v 0.0649819 0.109106 1.91372
v -0.299642 -0.781641 0.0227574
v -0.533882 -0.644757 1.18979
v 0.0451617 -0.103711 0.0227665
v -0.833777 -0.0745868 0.0227592
v 0.0385256 -0.0150911 0.143019
v 0.180854 -0.810021 1.2996
v 0.630512 0.390749 0.994236
v 0.802941 -0.236705 0.699153
v -0.812492 0.201509 2.11552
v 0.0484366 0.1077 1.90918
v -0.722714 -0.422381 0.853559
v -0.699706 -0.459521 2.11553
v -0.005734484642744064 0.836835503578186 0.025474905967712402
v -0.005734484642744064 0.836835503578186 2.118255138397217
v 0.08176733553409576 0.8322497606277466 0.025474905967712402
v 0.08176733553409576 0.8322497606277466 2.118255138397217
v 0.16831046342849731 0.8185426592826843 0.025474905967712402
v 0.16831046342849731 0.8185426592826843 2.118255138397217
v 0.25294673442840576 0.795864462852478 0.025474905967712402
v 0.25294673442840576 0.795864462852478 2.118255138397217
v 0.3347488343715668 0.7644635438919067 0.025474905967712402
v 0.3347488343715668 0.7644635438919067 2.118255138397217
v 0.4128205180168152 0.7246840596199036 0.025474905967712402
v 0.4128205180168152 0.7246840596199036 2.118255138397217
v 0.48630642890930176 0.6769617199897766 0.025474905967712402
v 0.48630642890930176 0.6769617199897766 2.118255138397217
v 0.5544013977050781 0.6218194961547852 0.025474905967712402
v 0.5544013977050781 0.6218194961547852 2.118255138397217
v 0.6163594722747803 0.559861421585083 0.025474905967712402
v 0.6163594722747803 0.559861421585083 2.118255138397217
v 0.6715016961097717 0.49176639318466187 0.025474905967712402
v 0.6715016961097717 0.49176639318466187 2.118255138397217
v 0.7192240357398987 0.4182804822921753 0.025474905967712402
v 0.7192240357398987 0.4182804822921753 2.118255138397217
v 0.7590035200119019 0.3402087986469269 0.025474905967712402
v 0.7590035200119019 0.3402087986469269 2.118255138397217
v 0.7904044389724731 0.25840669870376587 0.025474905967712402
v 0.7904044389724731 0.25840669870376587 2.118255138397217
v 0.8130826354026794 0.17377044260501862 0.025474905967712402
v 0.8130826354026794 0.17377044260501862 2.118255138397217
v 0.8267897367477417 0.08722731471061707 0.025474905967712402
v 0.8267897367477417 0.08722731471061707 2.118255138397217
v 0.8313754796981812 -0.00027450750349089503 0.025474905967712402
v 0.8313754796981812 -0.00027450750349089503 2.118255138397217
v 0.8267897367477417 -0.08777633309364319 0.025474905967712402
v 0.8267897367477417 -0.08777633309364319 2.118255138397217
v 0.8130826354026794 -0.17431946098804474 0.025474905967712402
v 0.8130826354026794 -0.17431946098804474 2.118255138397217
v 0.7904044389724731 -0.258955717086792 0.025474905967712402
v 0.7904044389724731 -0.258955717086792 2.118255138397217
v 0.7590035200119019 -0.340757817029953 0.025474905967712402
v 0.7590035200119019 -0.340757817029953 2.118255138397217
v 0.7192240357398987 -0.4188295006752014 0.025474905967712402
v 0.7192240357398987 -0.4188295006752014 2.118255138397217
v 0.6715016961097717 -0.492315411567688 0.025474905967712402
v 0.6715016961097717 -0.492315411567688 2.118255138397217
v 0.6163594722747803 -0.5604103803634644 0.025474905967712402
v 0.6163594722747803 -0.5604103803634644 2.118255138397217
v 0.5544013977050781 -0.6223684549331665 0.025474905967712402
v 0.5544013977050781 -0.6223684549331665 2.118255138397217
v 0.48630642890930176 -0.677510678768158 0.025474905967712402
v 0.48630642890930176 -0.677510678768158 2.118255138397217
v 0.4128205180168152 -0.7252330183982849 0.025474905967712402
v 0.4128205180168152 -0.7252330183982849 2.118255138397217
v 0.3347488343715668 -0.7650125026702881 0.025474905967712402
v 0.3347488343715668 -0.7650125026702881 2.118255138397217
v 0.25294673442840576 -0.7964134216308594 0.025474905967712402
v 0.25294673442840576 -0.7964134216308594 2.118255138397217
v 0.16831046342849731 -0.8190916180610657 0.025474905967712402
v 0.16831046342849731 -0.8190916180610657 2.118255138397217
v 0.08176733553409576 -0.8327987194061279 0.025474905967712402
v 0.08176733553409576 -0.8327987194061279 2.118255138397217
v -0.005734484642744064 -0.8373844623565674 0.025474905967712402
v -0.005734484642744064 -0.8373844623565674 2.118255138397217
v -0.09323631227016449 -0.8327987194061279 0.025474905967712402
v -0.09323631227016449 -0.8327987194061279 2.118255138397217
v -0.17977944016456604 -0.8190916180610657 0.025474905967712402
v -0.17977944016456604 -0.8190916180610657 2.118255138397217
v -0.2644156813621521 -0.7964134216308594 0.025474905967712402
v -0.2644156813621521 -0.7964134216308594 2.118255138397217
v -0.3462177813053131 -0.7650125026702881 0.025474905967712402
v -0.3462177813053131 -0.7650125026702881 2.118255138397217
v -0.4242894649505615 -0.7252330183982849 0.025474905967712402
v -0.4242894649505615 -0.7252330183982849 2.118255138397217
v -0.4977753758430481 -0.677510678768158 0.025474905967712402
v -0.4977753758430481 -0.677510678768158 2.118255138397217
v -0.5658704042434692 -0.6223684549331665 0.025474905967712402
v -0.5658704042434692 -0.6223684549331665 2.118255138397217
v -0.6278284788131714 -0.5604103803634644 0.025474905967712402
v -0.6278284788131714 -0.5604103803634644 2.118255138397217
v -0.6829707026481628 -0.492315411567688 0.025474905967712402
v -0.6829707026481628 -0.492315411567688 2.118255138397217
v -0.7306930422782898 -0.4188295006752014 0.025474905967712402
v -0.7306930422782898 -0.4188295006752014 2.118255138397217
v -0.770472526550293 -0.340757817029953 0.025474905967712402
v -0.770472526550293 -0.340757817029953 2.118255138397217
v -0.8018734455108643 -0.258955717086792 0.025474905967712402
v -0.8018734455108643 -0.258955717086792 2.118255138397217
v -0.8245516419410706 -0.17431946098804474 0.025474905967712402
v -0.8245516419410706 -0.17431946098804474 2.118255138397217
v -0.8382587432861328 -0.08777633309364319 0.025474905967712402
v -0.8382587432861328 -0.08777633309364319 2.118255138397217
v -0.8428444862365723 -0.00027450750349089503 0.025474905967712402
v -0.8428444862365723 -0.00027450750349089503 2.118255138397217
v -0.8382587432861328 0.08722731471061707 0.025474905967712402
v -0.8382587432861328 0.08722731471061707 2.118255138397217
v -0.8245516419410706 0.17377044260501862 0.025474905967712402
v -0.8245516419410706 0.17377044260501862 2.118255138397217
v -0.8018734455108643 0.25840669870376587 0.025474905967712402
v -0.8018734455108643 0.25840669870376587 2.118255138397217
v -0.770472526550293 0.3402087986469269 0.025474905967712402
v -0.770472526550293 0.3402087986469269 2.118255138397217
v -0.7306930422782898 0.4182804822921753 0.025474905967712402
v -0.7306930422782898 0.4182804822921753 2.118255138397217
v -0.6829707026481628 0.49176639318466187 0.025474905967712402
v -0.6829707026481628 0.49176639318466187 2.118255138397217
v -0.6278284788131714 0.559861421585083 0.025474905967712402
v -0.6278284788131714 0.559861421585083 2.118255138397217
v -0.5658704042434692 0.6218194961547852 0.025474905967712402
v -0.5658704042434692 0.6218194961547852 2.118255138397217
v -0.4977753758430481 0.6769617199897766 0.025474905967712402
v -0.4977753758430481 0.6769617199897766 2.118255138397217
v -0.4242894649505615 0.7246840596199036 0.025474905967712402
v -0.4242894649505615 0.7246840596199036 2.118255138397217
v -0.3462177813053131 0.7644635438919067 0.025474905967712402
v -0.3462177813053131 0.7644635438919067 2.118255138397217
v -0.2644156813621521 0.795864462852478 0.025474905967712402
v -0.2644156813621521 0.795864462852478 2.118255138397217
v -0.17977944016456604 0.8185426592826843 0.025474905967712402
v -0.17977944016456604 0.8185426592826843 2.118255138397217
v -0.09323631227016449 0.8322497606277466 0.025474905967712402
v -0.09323631227016449 0.8322497606277466 2.118255138397217
f 1 2 3
f 1 4 2
f 1 3 4
f 2 4 3
f 5 6 7
f 5 8 6
f 5 7 8
f 6 8 7
f 9 10 11
f 9 12 10
f 9 11 12
f 10 12 11
f 13 14 15
f 13 16 14
f 13 15 16
f 14 16 15
f 17 18 19
f 17 20 18
f 17 19 20
f 18 20 19
f 21 22 23
f 21 24 22
f 21 23 24
f 22 24 23
f 25 26 27
f 25 28 26
f 25 27 28
f 26 28 27
f 29 30 31
f 29 32 30
f 29 31 32
f 30 32 31
f 33 34 35
f 33 36 34
f 33 35 36
f 34 36 35
f 37 38 39
f 37 40 38
f 37 39 40
f 38 40 39
f 41 42 43
f 41 44 42
f 41 43 44
f 42 44 43
f 45 46 47
f 45 48 46
f 45 47 48
f 46 48 47
f 49 50 51
f 49 52 50
f 49 51 52
f 50 52 51
f 53 54 55
f 53 56 54
f 53 55 56
f 54 56 55
f 57 58 59
f 57 60 58
f 57 59 60
f 58 60 59
f 61 62 63
f 61 64 62
f 61 63 64
f 62 64 63
f 65 66 67
f 65 68 66
f 65 67 68
f 66 68 67
f 69 70 71
f 69 72 70
f 69 71 72
f 70 72 71
f 73 74 75
f 73 76 74
f 73 75 76
f 74 76 75
f 77 78 79
f 77 80 78
f 77 79 80
f 78 80 79
f 81 82 83
f 81 84 82
f 81 83 84
f 82 84 83
f 85 86 87
f 85 88 86
f 85 87 88
f 86 88 87
f 89 90 91
f 89 92 90
f 89 91 92
f 90 92 91
f 93 94 95
f 93 96 94
f 93 95 96
f 94 96 95
f 97 98 99
f 97 100 98
f 97 99 100
f 98 100 99
f 101 102 103
f 101 104 102
f 101 103 104
f 102 104 103
f 105 106 107
f 105 108 106
f 105 107 108
f 106 108 107
f 109 110 111
f 109 112 110
f 109 111 112
f 110 112 111
f 113 114 115
f 113 116 114
f 113 115 116
f 114 116 115
f 117 118 119
f 117 120 118
f 117 119 120
f 118 120 119
f 121 122 124 123
f 123 124 126 125
f 125 126 128 127
f 127 128 130 129
f 129 130 132 131
f 131 132 134 133
f 133 134 136 135
f 135 136 138 137
f 137 138 140 139
f 139 140 142 141
f 141 142 144 143
f 143 144 146 145
f 145 146 148 147
f 147 148 150 149
f 149 150 152 151
f 151 152 154 153
f 153 154 156 155
f 155 156 158 157
f 157 158 160 159
f 159 160 162 161
f 161 162 164 163
f 163 164 166 165
f 165 166 168 167
f 167 168 170 169
f 169 170 172 171
f 171 172 174 173
f 173 174 176 175
f 175 176 178 177
f 177 178 180 179
f 179 180 182 181
f 181 182 184 183
f 183 184 186 185
f 185 186 188 187
f 187 188 190 189
f 189 190 192 191
f 191 192 194 193
f 193 194 196 195
f 195 196 198 197
f 197 198 200 199
f 199 200 202 201
f 201 202 204 203
f 203 204 206 205
f 205 206 208 207
f 207 208 210 209
f 209 210 212 211
f 211 212 214 213
f 213 214 216 215
f 215 216 218 217
f 217 218 220 219
f 219 220 222 221
f 221 222 224 223
f 223 224 226 225
f 225 226 228 227
f 227 228 230 229
f 229 230 232 231
f 231 232 234 233
f 233 234 236 235
f 235 236 238 237
f 237 238 240 239
f 239 240 122 121
f 121 123 125 127 129 131 133 135 137 139 141 143 145 147 149 151 153 155 157 159 161 163 165 167 169 171 173 175 177 179 181 183 185 187 189 191 193 195 197 199 201 203 205 207 209 211 213 215 217 219 221 223 225 227 229 231 233 235 237 239
f 240 238 236 234 232 230 228 226 224 222 220 218 216 214 212 210 208 206 204 202 200 198 196 194 192 190 188 186 184 182 180 178 176 174 172 170 168 166 164 162 160 158 156 154 152 150 148 146 144 142 140 138 136 134 132 130 128 126 124 122
