# Generated by Visualization Toolkit
v 19.6621 21.1364 18.8636
v 20.1907 20.1246 18.9126
v 20.2655 20.8525 19.8152
v 20.4454 21.1364 19.0823
v 19.6525 20.3498 20.5619
v 20.0361 19.9341 21.1364
v 20.3707 20.541 20.2038
v 20.2655 21.0731 21.1364
v 19.7408 18.8636 20.2079
v 20.4908 19.479 20.3273
v 19.9279 18.8636 21.1364
v 19.8692 19.791 20.896
v 21.1364 18.8644 18.8636
v 20.3841 19.1253 18.9906
v 21.1364 19.7368 19.6311
v 21.1364 19.9837 18.8636
v 20.5017 19.729 19.6163
v 19.3671 19.9532 19.7273
v 19.8535 20.673 19.4948
v 20.1433 20.1594 18.8876
v 20.3385 20.4 19.3205
v 20.3951 21.1335 20.2195
v 19.5513 21.1364 19.7543
v 19.6269 20.3404 19.8578
v 19.9085 20.6483 19.4562
v 18.9036 21.1364 19.1368
v 19.1895 20.0749 18.8636
v 20.9574 18.8636 19.5457
v 20.5166 19.7504 20.1056
v 20.104 18.8636 19.7987
v 21.1364 18.8636 20.3318
v 21.1364 21.1363 18.8636
v 21.0678 20.8216 19.6027
v 20.3775 20.2565 18.8636
v 21.1364 19.9842 18.8636
v 19.9596 19.6202 20.1082
v 20.2929 20.719 20.2858
v 19.5997 20.2508 19.6267
v 20.5422 19.8232 19.5892
v 19.5436 19.3111 18.9321
v 20.3548 19.5499 19.729
v 20.5108 19.4753 18.8636
v 20.2435 20.236 18.8636
v 19.867 19.5782 19.8143
v 19.7901 19.7644 20.9145
v 19.7947 18.8636 20.1806
v 20.5968 19.6225 20.3901
v 20.2076 18.8636 20.3802
v 20.2467 19.6078 21.1364
v 21.0898 18.8636 21.1364
v 21.1364 18.8636 21.1364
v 20.294 18.8856 20.4756
v 20.8921 19.8599 20.6831
v 21.1331 18.8636 20.3301
v 18.8636 19.8659 21.1364
v 19.8484 20.2334 21.1364
v 18.9938 21.0205 21.1364
v 18.8636 20.4614 20.5702
v 20.3094 20.2153 19.8058
v 21.0786 21.0283 19.4937
v 20.1387 20.9227 20.1686
v 20.8607 20.9404 20.5271
v 18.9217 19.4088 20.4587
v 19.7866 19.1973 20.5324
v 19.7879 19.9086 21.0502
v 19.872 19.7747 19.8992
v 20.0986 20.2328 21.1364
v 20.4063 20.592 20.1058
v 20.1209 19.6963 20.5349
v 21.0852 20.1502 20.5403
v 21.1364 21.1364 18.8636
v 20.2154 21.1364 18.8636
v 21.0164 20.8291 19.6472
v 18.8678 20.784 18.8816
v 19.6171 20.0586 19.3937
v 19.5285 20.7734 19.7559
v 18.8636 19.8941 19.6286
v 19.6355 20.3338 19.4397
v 20.1652 20.1398 18.8636
v 19.5778 19.2405 19.0506
v 19.0059 20.0627 18.8636
v 21.1364 19.6143 21.1364
v 20.208 20.2732 21.1247
v 21.1364 20.1827 20.5646
v 20.3117 19.6584 20.3956
v 20.5274 19.5716 19.3116
v 20.9011 18.8636 19.5457
v 20.3015 18.8636 18.8636
v 19.7984 18.8936 19.9105
v 19.6833 19.7219 20.1415
v 19.4555 20.0222 19.4269
v 18.8636 19.2333 19.4786
v 18.8636 19.8881 20.4178
v 20.0964 20.2336 21.1364
v 20.9308 20.669 21.1364
v 21.0927 20.1454 20.5451
v 20.4039 20.5936 20.1043
v 18.8636 19.8912 19.631
v 19.6314 20.0672 19.3847
v 18.8636 19.6439 18.8636
v 18.8636 20.7814 18.8843
v 20.357 20.2823 19.8973
v 21.1364 20.5042 19.282
v 21.1364 21.1364 19.7823
v 21.1364 20.328 20.4304
v 21.1364 18.8636 19.8366
v 20.2752 21.087 21.1061
v 19.9767 20.3447 20.2635
v 19.4787 20.78 20.9756
v 19.9716 21.1364 19.9857
v 20.3187 19.6455 19.8858
v 20.8834 19.7052 18.8721
v 21.1364 19.6728 19.9114
v 21.1364 20.4438 19.6756
v 19.318 19.9405 19.3153
v 19.5817 19.5755 20.1636
v 20.3798 19.7597 19.7511
v 19.6331 19.2474 19.0502
v 21.0119 19.6341 20.8359
v 20.2227 18.8902 20.419
v 20.2484 19.6063 21.1364
v 21.1363 18.8636 21.1364
v 19.8495 19.551 21.1327
v 21.0006 19.709 21.1363
v 20.2032 20.2755 21.1231
v 20.4907 19.4791 20.3274
v 18.8636 19.8978 20.4317
v 18.8637 18.8636 20.314
v 19.5894 19.6659 20.0655
v 19.169 20.2678 20.5934
v 19.8934 21.115 20.2656
v 19.7174 21.1364 21.1364
v 18.9132 20.9855 20.3298
v 20.1781 20.1407 18.8636
v 19.9537 20.6804 19.4957
v 20.5687 19.9202 19.8754
v 20.2159 20.3145 18.8636
v 20.5106 19.4758 18.8636
v 21.1199 21.1364 19.6027
v 20.2361 21.1364 20.1347
v 20.3158 20.367 19.2688
v 20.4506 21.1364 19.0559
v 20.1501 20.1606 18.9691
v 20.9873 20.7607 19.5068
v 20.4688 19.9584 19.6816
v 19.9733 20.5711 20.0416
v 19.5904 20.7486 20.792
v 20.0464 19.9874 20.1415
v 19.9715 21.1364 19.9859
v 19.4273 20.593 19.7282
v 18.8636 19.9643 19.5697
v 19.5724 20.7717 19.8149
v 18.8758 20.7922 18.8852
v 18.8636 21.1228 19.6588
v 19.6967 19.2732 20.5844
v 18.8636 19.0674 20.3372
v 18.8636 18.8636 21.1364
v 20.0617 19.2335 19.9571
v 20.6425 19.6867 19.1279
v 20.8767 18.8636 19.5659
v 19.2455 19.3547 20.6436
v 19.8559 20.2118 21.1364
v 18.8636 20.4502 20.5809
v 19.3898 19.7632 19.5845
v 18.8636 18.8636 19.0707
v 19.7923 18.9456 18.8636
v 19.3706 19.3948 19.8508
v 19.8833 18.8647 20.1907
v 20.4021 19.7759 19.7749
v 19.6563 19.2367 19.1136
v 19.9776 21.1364 20.0073
v 20.2856 21.1364 21.1276
v 19.9887 20.383 20.2943
v 20.8589 21.1364 20.453
v 21.1364 20.1803 19.7562
v 20.2142 19.7057 20.0901
v 21.1364 20.2332 20.5607
v 21.1364 19.4091 20.6252
v 19.8466 19.9881 20.2224
v 19.0055 20.1675 20.6176
v 19.4063 20.7877 20.9413
v 19.9918 19.8388 21.1364
v 19.3058 18.8636 21.1364
v 19.9771 19.812 21.1364
v 19.7002 19.2871 20.575
v 20.1833 20.2789 21.1364
v 21.1364 20.7762 21.1364
v 21.0996 18.8636 20.3128
v 20.3081 18.8636 20.4664
v 20.1642 19.4057 19.8872
v 20.8901 19.8465 20.6793
v 21.1364 20.0751 19.8747
v 21.1364 18.918 19.9802
v 20.3846 19.7853 19.9051
v 21.1364 19.359 20.6817
v 19.0232 21.1364 20.4501
v 19.9669 21.1364 20.0242
v 18.8636 21.1364 19.6598
v 19.1848 20.3482 19.6822
v 20.2646 18.8636 18.8636
v 20.7385 19.5159 18.8636
v 20.2292 19.5368 19.8074
v 19.5946 19.3121 18.8636
v 19.7839 18.8923 19.938
v 20.2482 19.5434 19.8356
v 19.6245 19.3226 18.908
v 20.2892 18.8667 18.892
v 20.1772 20.1478 18.8707
v 19.484 20.0254 19.4533
v 19.5962 19.2736 19.0473
v 20.434 19.6902 19.7361
v 19.6159 20.276 19.5753
v 18.9082 19.9465 20.4358
v 18.8636 20.4496 19.8075
v 18.8636 19.3962 19.4746
v 19.1158 19.5649 19.3783
v 18.9364 18.8636 20.2303
v 19.7331 18.8636 19.5821
v 20.396 20.5843 20.1309
v 20.2783 21.1364 21.1364
v 20.9378 20.6726 21.1364
v 20.2733 21.1118 21.1364
v 19.3593 20.8853 21.1364
v 19.6088 20.4079 20.4938
v 20.0439 19.9728 21.1364
v 20.2045 20.3186 18.8636
v 21.1363 19.9842 18.8636
v 21.1364 20.4643 19.5421
v 20.5688 19.9201 19.8755
v 18.8636 21.0702 20.299
v 18.8636 20.5132 19.6991
v 19.6278 20.7978 20.3882
v 18.8636 19.9602 20.6422
v 18.8636 18.8636 20.2895
v 19.1377 19.5401 19.3855
v 19.5139 19.3811 20.3838
v 19.2262 19.9702 19.8107
v 19.4953 20.7112 20.6643
v 18.88 19.8475 20.5284
v 19.96 19.8069 20.102
v 19.2844 19.5829 19.4815
v 19.9945 18.9018 18.8636
v 19.8651 18.8636 19.6598
v 21.1364 21.1364 20.7911
v 20.3556 21.0819 21.1363
v 21.1364 20.3342 20.7105
v 20.3926 20.5926 20.0831
v 21.1364 20.2298 20.5091
v 20.357 20.2823 19.8972
v 20.9206 21.018 20.598
v 18.8636 21.1364 21.1364
v 18.8636 21.1364 20.2785
v 19.142 20.2097 20.5669
v 19.6824 21.0884 21.1016
v 19.7473 19.4464 20.2726
v 18.8636 18.8636 20.7516
v 19.4947 18.8636 19.776
v 19.875 18.8636 20.8739
v 20.4303 19.7961 19.6947
v 20.1129 19.6808 20.5415
v 21.1363 20.2298 20.5091
v 20.4059 20.5928 20.1052
v 19.7643 19.895 21.0341
v 18.9598 19.4105 20.35
v 19.0005 20.169 20.6201
v 20.0011 19.8681 20.1126
v 19.5616 20.3771 19.5617
v 19.651 20.6421 20.6895
v 18.8636 20.3574 19.9649
v 19.8725 19.7826 20.0089
v 19.645 20.1241 19.4749
v 20.1003 21.1364 19.4258
v 18.9724 21.0217 19.1715
v 19.4085 21.1364 19.8398
v 19.649 20.3489 20.5637
v 20.374 20.5419 20.2021
v 20.0319 19.8161 21.0424
v 20.2193 19.5646 19.9236
v 18.873891830444336 18.863117218017578 18.87005043029785
v 18.873891830444336 18.863117218017578 21.142759323120117
v 18.873891830444336 21.135826110839844 21.142759323120117
v 18.873891830444336 21.135826110839844 18.87005043029785
v 21.1466007232666 18.863117218017578 18.87005043029785
v 21.1466007232666 21.135826110839844 18.87005043029785
v 21.1466007232666 21.135826110839844 21.142759323120117
v 21.1466007232666 18.863117218017578 21.142759323120117
f 1 2 3
f 1 4 2
f 1 3 4
f 2 4 3
f 5 6 7
f 5 8 6
f 5 7 8
f 6 8 7
f 9 10 11
f 9 12 10
f 9 11 12
f 10 12 11
f 13 14 15
f 13 16 14
f 13 15 16
f 14 16 15
f 17 18 19
f 17 20 18
f 17 19 20
f 18 20 19
f 21 22 23
f 21 24 22
f 21 23 24
f 22 24 23
f 25 1 26
f 25 27 1
f 25 26 27
f 1 27 26
f 28 29 30
f 28 31 29
f 28 30 31
f 29 31 30
f 32 33 34
f 32 35 33
f 32 34 35
f 33 35 34
f 36 37 38
f 36 39 37
f 36 38 39
f 37 39 38
f 40 41 42
f 40 43 41
f 40 42 43
f 41 43 42
f 44 45 46
f 44 47 45
f 44 46 47
f 45 47 46
f 48 49 11
f 48 50 49
f 48 11 50
f 49 50 11
f 51 52 53
f 51 54 52
f 51 53 54
f 52 54 53
f 55 56 57
f 55 58 56
f 55 57 58
f 56 58 57
f 59 60 61
f 59 62 60
f 59 61 62
f 60 62 61
f 63 64 65
f 63 66 64
f 63 65 66
f 64 66 65
f 67 68 69
f 67 70 68
f 67 69 70
f 68 70 69
f 71 72 73
f 71 34 72
f 71 73 34
f 72 34 73
f 74 75 76
f 74 77 75
f 74 76 77
f 75 77 76
f 78 79 80
f 78 81 79
f 78 80 81
f 79 81 80
f 82 83 84
f 82 85 83
f 82 84 85
f 83 85 84
f 86 87 88
f 86 89 87
f 86 88 89
f 87 89 88
f 90 91 92
f 90 93 91
f 90 92 93
f 91 93 92
f 94 95 96
f 94 97 95
f 94 96 97
f 95 97 96
f 98 99 100
f 98 101 99
f 98 100 101
f 99 101 100
f 102 103 104
f 102 105 103
f 102 104 105
f 103 105 104
f 14 106 15
f 14 13 106
f 14 15 13
f 106 13 15
f 107 108 109
f 107 110 108
f 107 109 110
f 108 110 109
f 111 112 113
f 111 114 112
f 111 113 114
f 112 114 113
f 115 116 117
f 115 118 116
f 115 117 118
f 116 118 117
f 119 120 121
f 119 122 120
f 119 121 122
f 120 122 121
f 123 124 125
f 123 126 124
f 123 125 126
f 124 126 125
f 92 127 128
f 92 129 127
f 92 128 129
f 127 129 128
f 130 131 132
f 130 133 131
f 130 132 133
f 131 133 132
f 134 135 1
f 134 27 135
f 134 1 27
f 135 27 1
f 136 35 137
f 136 138 35
f 136 137 138
f 35 138 137
f 139 140 141
f 139 142 140
f 139 141 142
f 140 142 141
f 143 144 145
f 143 146 144
f 143 145 146
f 144 146 145
f 147 148 149
f 147 150 148
f 147 149 150
f 148 150 149
f 151 152 153
f 151 154 152
f 151 153 154
f 152 154 153
f 155 156 55
f 155 157 156
f 155 55 157
f 156 157 55
f 113 158 159
f 113 160 158
f 113 159 160
f 158 160 159
f 161 162 55
f 161 163 162
f 161 55 163
f 162 163 55
f 164 165 166
f 164 100 165
f 164 166 100
f 165 100 166
f 167 168 169
f 167 170 168
f 167 169 170
f 168 170 169
f 171 172 173
f 171 174 172
f 171 173 174
f 172 174 173
f 175 176 177
f 175 178 176
f 175 177 178
f 176 178 177
f 179 180 181
f 179 182 180
f 179 181 182
f 180 182 181
f 183 184 55
f 183 185 184
f 183 55 185
f 184 185 55
f 82 84 186
f 82 187 84
f 82 186 187
f 84 187 186
f 188 189 190
f 188 191 189
f 188 190 191
f 189 191 190
f 192 193 194
f 192 195 193
f 192 194 195
f 193 195 194
f 196 197 198
f 196 199 197
f 196 198 199
f 197 199 198
f 200 201 202
f 200 203 201
f 200 202 203
f 201 203 202
f 204 205 206
f 204 207 205
f 204 206 207
f 205 207 206
f 208 209 210
f 208 211 209
f 208 210 211
f 209 211 210
f 212 213 214
f 212 215 213
f 212 214 215
f 213 215 214
f 216 217 218
f 216 165 217
f 216 218 165
f 217 165 218
f 219 220 221
f 219 94 220
f 219 221 94
f 220 94 221
f 222 223 224
f 222 225 223
f 222 224 225
f 223 225 224
f 226 227 228
f 226 229 227
f 226 228 229
f 227 229 228
f 230 231 232
f 230 233 231
f 230 232 233
f 231 233 232
f 218 234 235
f 218 236 234
f 218 235 236
f 234 236 235
f 237 238 239
f 237 240 238
f 237 239 240
f 238 240 239
f 241 242 165
f 241 243 242
f 241 165 243
f 242 243 165
f 244 245 246
f 244 247 245
f 244 246 247
f 245 247 246
f 104 248 249
f 104 250 248
f 104 249 250
f 248 250 249
f 251 252 253
f 251 254 252
f 251 253 254
f 252 254 253
f 255 256 257
f 255 258 256
f 255 257 258
f 256 258 257
f 259 260 261
f 259 262 260
f 259 261 262
f 260 262 261
f 263 264 265
f 263 266 264
f 263 265 266
f 264 266 265
f 267 268 269
f 267 270 268
f 267 269 270
f 268 270 269
f 271 272 273
f 271 274 272
f 271 273 274
f 272 274 273
f 275 276 277
f 275 278 276
f 275 277 278
f 276 278 277
f 279 280 281 282
f 283 284 285 286
f 279 283 286 280
f 282 281 285 284
f 279 282 284 283
f 280 286 285 281
