# Generated by Visualization Toolkit
v 19.9908 19.8184 19.7104
v 19.4578 19.5599 20.3392
v 19.4578 20.5422 20.5422
v 19.4578 20.4715 19.5213
v 19.4578 19.4578 19.4578
v 20.2012 19.9253 19.4578
v 19.4578 19.6307 20.2757
v 19.4578 20.5422 19.4578
v 20.2348 20.0753 20.5422
v 19.4578 19.4578 20.5422
v 20.5422 19.4578 20.387
v 19.7017 19.5388 19.5789
v 19.84 20.5422 20.1243
v 20.5422 20.5422 19.4578
v 20.1384 19.6178 19.7804
v 20.0407 19.7621 19.7995
v 20.4578 20.5422 20.5422
v 19.4578 20.4933 19.8368
v 20.1233 19.6646 19.7978
v 20.5422 20.5422 20.5422
v 20.5422 19.836 20.5078
v 20.0193 19.7401 19.7786
v 19.5422 20.5422 20.5422
v 20.5422 20.2556 19.4578
v 20.5422 19.4578 19.4578
v 19.6934 19.4578 19.504
v 19.9566 19.7605 19.7422
v 20.2298 20.0714 20.5422
v 20.0881 19.626 19.8683
v 19.460206985473633 19.491657257080078 19.484682083129883
v 19.460206985473633 19.491657257080078 20.569171905517578
v 19.460206985473633 20.576147079467773 20.569171905517578
v 19.460206985473633 20.576147079467773 19.484682083129883
v 20.544696807861328 19.491657257080078 19.484682083129883
v 20.544696807861328 20.576147079467773 19.484682083129883
v 20.544696807861328 20.576147079467773 20.569171905517578
v 20.544696807861328 19.491657257080078 20.569171905517578
f 1 2 3
f 1 4 2
f 1 3 4
f 2 4 3
f 5 6 7
f 5 8 6
f 5 7 8
f 6 8 7
f 9 10 11
f 9 12 10
f 9 11 12
f 10 12 11
f 8 13 14
f 8 15 13
f 8 14 15
f 13 15 14
f 3 16 17
f 3 18 16
f 3 17 18
f 16 18 17
f 19 13 20
f 19 14 13
f 19 20 14
f 13 14 20
f 21 22 23
f 21 20 22
f 21 23 20
f 22 20 23
f 24 25 11
f 24 26 25
f 24 11 26
f 25 26 11
f 27 10 3
f 27 28 10
f 27 3 28
f 10 28 3
f 20 11 29
f 20 24 11
f 20 29 24
f 11 24 29
f 30 31 32 33
f 34 35 36 37
f 30 34 37 31
f 33 32 36 35
f 30 33 35 34
f 31 37 36 32
