# Generated by Visualization Toolkit
v -0.278177 -0.29725 1.0224
v -0.2762 0.674642 1.09604
v 0.59698 0.230648 1.09604
v 0.0260136 0.300987 0.248076
v -0.00736241 0.266967 0.272051
v -0.264337 -0.315543 1.07495
v 0.600826 0.233135 1.09604
v 0.491974 -0.537949 0.501776
v -0.195916 -0.107105 0.0851975
v 0.0878518 0.723678 0.508606
v -0.0803968 0.724544 -0.502182
v 0.690135 0.234823 -0.160928
v 0.342287 0.643636 0.569883
v 0.67567 -0.273674 0.667916
v 0.710206 0.164425 -0.25776
v -0.161381 -0.0577045 0.117733
v -0.166642 0.0860018 -0.124354
v 0.714428 -0.144986 0.263481
v 0.624482 0.376099 -0.614232
v 0.440229 -0.581056 -0.610915
v -0.475237 -0.552791 0.103851
v -0.102039 -0.721814 1.04308
v 0.43129 -0.255177 0.30294
v -0.386014 0.17053 0.751034
v 0.719115 -0.11959 0.305054
v -0.0463875 -0.727514 0.386575
v 0.393759 -0.6135 -0.531724
v -0.178533 0.0762541 -0.148678
v -0.354363 0.366239 0.102674
v -0.728806 0.0164208 -0.726434
v 0.218262 -0.226158 -0.50656
v 0.00760455 0.728951 -0.726434
v -0.0829655 0.724254 0.3947
v -0.722742 0.0952483 0.775539
v 0.0500853 -0.275585 0.214093
v -0.707962 0.173834 -0.202307
v -0.239577 -0.688499 0.178113
v -0.321632 0.257966 -0.0560527
v 0.344366 -0.319357 -0.578686
v -0.61653 -0.388997 -0.726434
v 0.044309101998806 0.7306168079376221 -0.7436359524726868
v 0.044309101998806 0.7306168079376221 1.0788440704345703
v 0.12050940841436386 0.7266233563423157 -0.7436359524726868
v 0.12050940841436386 0.7266233563423157 1.0788440704345703
v 0.19587484002113342 0.7146866321563721 -0.7436359524726868
v 0.19587484002113342 0.7146866321563721 1.0788440704345703
v 0.2695797085762024 0.6949374675750732 -0.7436359524726868
v 0.2695797085762024 0.6949374675750732 1.0788440704345703
v 0.340816468000412 0.6675922274589539 -0.7436359524726868
v 0.340816468000412 0.6675922274589539 1.0788440704345703
v 0.40880459547042847 0.6329505443572998 -0.7436359524726868
v 0.40880459547042847 0.6329505443572998 1.0788440704345703
v 0.47279927134513855 0.591391921043396 -0.7436359524726868
v 0.47279927134513855 0.591391921043396 1.0788440704345703
v 0.5320993065834045 0.5433717370033264 -0.7436359524726868
v 0.5320993065834045 0.5433717370033264 1.0788440704345703
v 0.5860549807548523 0.4894160330295563 -0.7436359524726868
v 0.5860549807548523 0.4894160330295563 1.0788440704345703
v 0.6340751647949219 0.4301159977912903 -0.7436359524726868
v 0.6340751647949219 0.4301159977912903 1.0788440704345703
v 0.6756337881088257 0.3661213219165802 -0.7436359524726868
v 0.6756337881088257 0.3661213219165802 1.0788440704345703
v 0.7102754712104797 0.2981331944465637 -0.7436359524726868
v 0.7102754712104797 0.2981331944465637 1.0788440704345703
v 0.7376207113265991 0.22689644992351532 -0.7436359524726868
v 0.7376207113265991 0.22689644992351532 1.0788440704345703
v 0.757369875907898 0.15319158136844635 -0.7436359524726868
v 0.757369875907898 0.15319158136844635 1.0788440704345703
v 0.7693066000938416 0.07782614231109619 -0.7436359524726868
v 0.7693066000938416 0.07782614231109619 1.0788440704345703
v 0.773300051689148 0.0016258375253528357 -0.7436359524726868
v 0.773300051689148 0.0016258375253528357 1.0788440704345703
v 0.7693066000938416 -0.07457447052001953 -0.7436359524726868
v 0.7693066000938416 -0.07457447052001953 1.0788440704345703
v 0.757369875907898 -0.1499399095773697 -0.7436359524726868
v 0.757369875907898 -0.1499399095773697 1.0788440704345703
v 0.7376207113265991 -0.22364477813243866 -0.7436359524726868
v 0.7376207113265991 -0.22364477813243866 1.0788440704345703
v 0.7102754712104797 -0.29488152265548706 -0.7436359524726868
v 0.7102754712104797 -0.29488152265548706 1.0788440704345703
v 0.6756337881088257 -0.36286965012550354 -0.7436359524726868
v 0.6756337881088257 -0.36286965012550354 1.0788440704345703
v 0.6340751647949219 -0.4268643260002136 -0.7436359524726868
v 0.6340751647949219 -0.4268643260002136 1.0788440704345703
v 0.5860549807548523 -0.4861643612384796 -0.7436359524726868
v 0.5860549807548523 -0.4861643612384796 1.0788440704345703
v 0.5320993065834045 -0.5401200652122498 -0.7436359524726868
v 0.5320993065834045 -0.5401200652122498 1.0788440704345703
v 0.47279927134513855 -0.5881402492523193 -0.7436359524726868
v 0.47279927134513855 -0.5881402492523193 1.0788440704345703
v 0.40880459547042847 -0.6296988725662231 -0.7436359524726868
v 0.40880459547042847 -0.6296988725662231 1.0788440704345703
v 0.340816468000412 -0.6643405556678772 -0.7436359524726868
v 0.340816468000412 -0.6643405556678772 1.0788440704345703
v 0.2695797085762024 -0.6916857957839966 -0.7436359524726868
v 0.2695797085762024 -0.6916857957839966 1.0788440704345703
v 0.19587484002113342 -0.7114349603652954 -0.7436359524726868
v 0.19587484002113342 -0.7114349603652954 1.0788440704345703
v 0.12050940841436386 -0.723371684551239 -0.7436359524726868
v 0.12050940841436386 -0.723371684551239 1.0788440704345703
v 0.044309101998806 -0.7273651361465454 -0.7436359524726868
v 0.044309101998806 -0.7273651361465454 1.0788440704345703
v -0.03189120441675186 -0.723371684551239 -0.7436359524726868
v -0.03189120441675186 -0.723371684551239 1.0788440704345703
v -0.10725664347410202 -0.7114349603652954 -0.7436359524726868
v -0.10725664347410202 -0.7114349603652954 1.0788440704345703
v -0.1809615194797516 -0.6916857957839966 -0.7436359524726868
v -0.1809615194797516 -0.6916857957839966 1.0788440704345703
v -0.2521982491016388 -0.6643405556678772 -0.7436359524726868
v -0.2521982491016388 -0.6643405556678772 1.0788440704345703
v -0.3201863765716553 -0.6296988725662231 -0.7436359524726868
v -0.3201863765716553 -0.6296988725662231 1.0788440704345703
v -0.38418105244636536 -0.5881402492523193 -0.7436359524726868
v -0.38418105244636536 -0.5881402492523193 1.0788440704345703
v -0.44348108768463135 -0.5401200652122498 -0.7436359524726868
v -0.44348108768463135 -0.5401200652122498 1.0788440704345703
v -0.4974367916584015 -0.4861643612384796 -0.7436359524726868
v -0.4974367916584015 -0.4861643612384796 1.0788440704345703
v -0.5454570055007935 -0.4268643260002136 -0.7436359524726868
v -0.5454570055007935 -0.4268643260002136 1.0788440704345703
v -0.5870156288146973 -0.36286965012550354 -0.7436359524726868
v -0.5870156288146973 -0.36286965012550354 1.0788440704345703
v -0.6216573119163513 -0.29488152265548706 -0.7436359524726868
v -0.6216573119163513 -0.29488152265548706 1.0788440704345703
v -0.6490025520324707 -0.22364477813243866 -0.7436359524726868
v -0.6490025520324707 -0.22364477813243866 1.0788440704345703
v -0.6687517166137695 -0.1499399095773697 -0.7436359524726868
v -0.6687517166137695 -0.1499399095773697 1.0788440704345703
v -0.6806884407997131 -0.07457447052001953 -0.7436359524726868
v -0.6806884407997131 -0.07457447052001953 1.0788440704345703
v -0.6846818923950195 0.0016258375253528357 -0.7436359524726868
v -0.6846818923950195 0.0016258375253528357 1.0788440704345703
v -0.6806884407997131 0.07782614231109619 -0.7436359524726868
v -0.6806884407997131 0.07782614231109619 1.0788440704345703
v -0.6687517166137695 0.15319158136844635 -0.7436359524726868
v -0.6687517166137695 0.15319158136844635 1.0788440704345703
v -0.6490025520324707 0.22689644992351532 -0.7436359524726868
v -0.6490025520324707 0.22689644992351532 1.0788440704345703
v -0.6216573119163513 0.2981331944465637 -0.7436359524726868
v -0.6216573119163513 0.2981331944465637 1.0788440704345703
v -0.5870156288146973 0.3661213219165802 -0.7436359524726868
v -0.5870156288146973 0.3661213219165802 1.0788440704345703
v -0.5454570055007935 0.4301159977912903 -0.7436359524726868
v -0.5454570055007935 0.4301159977912903 1.0788440704345703
v -0.4974367916584015 0.4894160330295563 -0.7436359524726868
v -0.4974367916584015 0.4894160330295563 1.0788440704345703
v -0.44348108768463135 0.5433717370033264 -0.7436359524726868
v -0.44348108768463135 0.5433717370033264 1.0788440704345703
v -0.38418105244636536 0.591391921043396 -0.7436359524726868
v -0.38418105244636536 0.591391921043396 1.0788440704345703
v -0.3201863765716553 0.6329505443572998 -0.7436359524726868
v -0.3201863765716553 0.6329505443572998 1.0788440704345703
v -0.2521982491016388 0.6675922274589539 -0.7436359524726868
v -0.2521982491016388 0.6675922274589539 1.0788440704345703
v -0.1809615194797516 0.6949374675750732 -0.7436359524726868
v -0.1809615194797516 0.6949374675750732 1.0788440704345703
v -0.10725664347410202 0.7146866321563721 -0.7436359524726868
v -0.10725664347410202 0.7146866321563721 1.0788440704345703
v -0.03189120441675186 0.7266233563423157 -0.7436359524726868
v -0.03189120441675186 0.7266233563423157 1.0788440704345703
f 1 2 3
f 1 4 2
f 1 3 4
f 2 4 3
f 5 6 7
f 5 8 6
f 5 7 8
f 6 8 7
f 9 10 11
f 9 12 10
f 9 11 12
f 10 12 11
f 13 14 15
f 13 16 14
f 13 15 16
f 14 16 15
f 17 18 19
f 17 20 18
f 17 19 20
f 18 20 19
f 21 22 23
f 21 24 22
f 21 23 24
f 22 24 23
f 25 26 27
f 25 28 26
f 25 27 28
f 26 28 27
f 29 30 31
f 29 32 30
f 29 31 32
f 30 32 31
f 33 34 35
f 33 36 34
f 33 35 36
f 34 36 35
f 37 38 39
f 37 40 38
f 37 39 40
f 38 40 39
f 41 42 44 43
f 43 44 46 45
f 45 46 48 47
f 47 48 50 49
f 49 50 52 51
f 51 52 54 53
f 53 54 56 55
f 55 56 58 57
f 57 58 60 59
f 59 60 62 61
f 61 62 64 63
f 63 64 66 65
f 65 66 68 67
f 67 68 70 69
f 69 70 72 71
f 71 72 74 73
f 73 74 76 75
f 75 76 78 77
f 77 78 80 79
f 79 80 82 81
f 81 82 84 83
f 83 84 86 85
f 85 86 88 87
f 87 88 90 89
f 89 90 92 91
f 91 92 94 93
f 93 94 96 95
f 95 96 98 97
f 97 98 100 99
f 99 100 102 101
f 101 102 104 103
f 103 104 106 105
f 105 106 108 107
f 107 108 110 109
f 109 110 112 111
f 111 112 114 113
f 113 114 116 115
f 115 116 118 117
f 117 118 120 119
f 119 120 122 121
f 121 122 124 123
f 123 124 126 125
f 125 126 128 127
f 127 128 130 129
f 129 130 132 131
f 131 132 134 133
f 133 134 136 135
f 135 136 138 137
f 137 138 140 139
f 139 140 142 141
f 141 142 144 143
f 143 144 146 145
f 145 146 148 147
f 147 148 150 149
f 149 150 152 151
f 151 152 154 153
f 153 154 156 155
f 155 156 158 157
f 157 158 160 159
f 159 160 42 41
f 41 43 45 47 49 51 53 55 57 59 61 63 65 67 69 71 73 75 77 79 81 83 85 87 89 91 93 95 97 99 101 103 105 107 109 111 113 115 117 119 121 123 125 127 129 131 133 135 137 139 141 143 145 147 149 151 153 155 157 159
f 160 158 156 154 152 150 148 146 144 142 140 138 136 134 132 130 128 126 124 122 120 118 116 114 112 110 108 106 104 102 100 98 96 94 92 90 88 86 84 82 80 78 76 74 72 70 68 66 64 62 60 58 56 54 52 50 48 46 44 42
