# Generated by Visualization Toolkit
v 20.4194 21.0373 18.9678
v 19.8862 20.6971 18.9627
v 19.6941 20.095 19.3992
v 20.0328 21.0373 20.1722
v 20.0916 18.9627 20.2813
v 19.8851 19.3821 19.8553
v 20.2579 20.0865 20.8375
v 20.7713 18.9627 20.6545
v 20.4899 19.2265 21.0373
v 20.4847 20.1159 21.0373
v 19.8941 20.3423 21.0373
v 19.5956 19.6187 20.2874
v 20.379 21.0373 19.0937
v 19.6845 20.0766 19.535
v 19.9923 21.0373 20.2981
v 20.4473 21.0323 19.8588
v 21.0373 19.3836 20.5494
v 20.0649 19.9083 20.4306
v 20.9975 19.6034 19.6323
v 21.0373 19.9395 20.8511
v 19.2196 20.2094 18.9627
v 19.4336 18.9627 18.9627
v 19.9382 19.5672 19.7484
v 18.9636 19.3859 18.9627
v 19.36 19.79 19.1944
v 19.5646 21.0373 19.1456
v 19.9118 20.7685 19.7759
v 18.9627 20.9685 18.9639
v 21.0373 19.1029 19.1668
v 21.0373 19.646 19.5441
v 20.0986 19.0615 20.0136
v 21.0373 19.4252 20.3899
v 21.0373 20.4415 18.9627
v 21.0373 20.1414 20.1748
v 20.2359 19.5761 19.376
v 20.8333 19.8428 18.9627
v 19.9996 20.3596 20.9076
v 18.9627 21.0373 20.9933
v 19.5424 20.1576 20.3096
v 20.2229 20.9369 21.0373
v 20.3134 20.0056 19.0258
v 21.0339 20.1684 20.0527
v 21.0373 21.0373 19.1334
v 21.0236 20.4285 18.9627
v 19.5233 19.1885 19.7817
v 19.7465 19.8531 20.3021
v 19.1033 18.9627 20.2074
v 20.2103 18.9627 20.8194
v 19.4937 19.1012 20.4975
v 19.499 19.6783 20.2165
v 20.3088 18.9627 20.8738
v 20.0124 20.1208 21.0373
v 20.9441 19.3756 20.3015
v 19.7982 18.9627 19.96
v 21.0373 18.9627 19.7056
v 20.7349 19.003 19.1109
v 20.867 19.7701 20.0555
v 20.8935 20.4143 21.0373
v 20.2273 20.0136 20.0395
v 19.7687 19.9905 20.6432
v 19.7224 20.1551 19.635
v 18.9627 20.7929 19.6423
v 18.9627 20.9286 20.2865
v 19.8623 21.0373 20.4973
v 18.9627 20.4405 21.007
v 20.223 20.3365 21.0373
v 19.1699 21.0373 21.0373
v 19.1628 19.8849 20.5158
v 20.6884 20.3757 20.0876
v 19.7784 19.5494 19.7893
v 19.767 20.152 20.9014
v 20.21 20.1869 19.7171
v 19.8641 21.0373 20.4986
v 20.0267 21.0373 19.8873
v 18.9627 21.0373 19.8534
v 19.7048 20.1464 19.6149
v 18.9627 20.3335 19.0651
v 19.0479 20.7438 19.5388
v 19.9483 19.872 19.7098
v 18.9732 19.5131 19.2565
v 19.2091 21.0373 19.5395
v 19.4374 19.8237 19.2656
v 18.9627 20.9563 18.9627
v 19.916 20.8707 19.7897
v 21.0373 20.1019 20.9483
v 20.1949 19.4738 20.2442
v 20.8198 18.9627 20.4434
v 21.0373 18.9627 21.0373
v 18.9627 19.1059 18.9627
v 19.5771 18.9627 19.0079
v 20.0169 19.3423 19.6205
v 19.0129 18.9627 20.1401
v 19.8547 19.3254 19.3754
v 18.9627 19.0535 19.3519
v 19.0574 18.9627 20.2879
v 19.6768 19.6779 20.1839
v 21.0373 19.7719 21.0314
v 20.9967 20.403 21.0373
v 20.0105 20.5106 21.0373
v 20.358 19.5267 20.3859
v 19.0226 21.0373 19.8553
v 18.9627 20.6549 19.3176
v 19.6673 20.01 19.4961
v 20.0254 21.0373 19.8873
v 19.7099 19.5268 19.4446
v 20.2703 20.5533 18.9627
v 19.2982 19.7518 18.9627
v 19.9791 20.3471 19.847
v 21.0373 18.9627 18.9627
v 20.5389 19.5395 19.9668
v 19.878 19.1152 18.9752
v 21.0373 19.4818 19.324
v 20.6676 20.3644 20.0526
v 20.9918 21.0373 20.9518
v 20.2462 21.0373 21.0373
v 19.9621 20.3072 20.8707
v 20.4935 19.8506 20.2381
v 19.9415 19.4162 19.3938
v 21.0373 19.7462 19.9325
v 21.0373 19.9771 19.1031
v 19.9308 19.4927 20.0255
v 19.8698 19.935 19.5304
v 21.0106 20.1514 20.0321
v 20.3243 20.0726 18.9725
v 21.0373 18.9627 20.5716
v 20.8077 19.5642 20.6352
v 19.9475 18.9627 19.9294
v 19.7772 19.9938 20.6463
v 21.0373 19.8974 20.7
v 20.9038 20.4157 21.0371
v 20.8199 19.7175 19.9856
v 19.8665 19.69 19.9285
v 20.3012 18.9627 20.8677
v 19.5855 18.9627 19.8247
v 19.8515 19.9956 20.5047
v 19.3384 20.4307 19.8629
v 19.776 20.8941 20.9555
v 19.0219 21.0373 20.9268
v 20.2238 21.0373 20.5323
v 19.9722 20.0568 19.3497
v 20.3341 20.9982 20.1131
v 20.9277 20.8134 19.0115
v 20.2369 20.4813 18.9627
v 20.1897 19.1983 19.0123
v 20.8389 19.8447 18.9627
v 20.7652 19.6173 20.0578
v 19.8045 19.3449 19.492
v 21.0373 20.9033 18.9627
v 20.458 21.0373 20.0483
v 20.4192 21.0373 18.9627
v 19.9016 20.3714 19.128
v 19.4642 19.9863 19.3008
v 19.4491 21.0373 18.9627
v 20.0816 21.0373 18.9627
v 20.0098 20.976 19.8691
v 20.1828 20.7645 20.8283
v 18.9627 20.5438 20.5777
v 19.3569 20.4562 19.9211
v 18.9627 21.0373 20.9732
v 18.9935 20.3191 19.0852
v 19.0181 19.5612 18.9627
v 19.0339 19.0909 19.3853
v 19.9791 19.8576 19.7299
v 20.0231 19.0993 20.2819
v 20.315 18.9627 20.889
v 20.3573 20.1327 20.9303
v 21.0373 19.0715 21.0373
v 21.0373 19.3837 18.9627
v 20.7337 19.5943 20.0005
v 21.0373 20.0161 18.9627
v 20.1624 19.1785 18.9627
v 19.486 19.0909 20.4908
v 20.0256 20.0959 21.0373
v 19.8415 18.9627 21.0373
v 20.6214 18.9801 21.0373
v 20.4681 19.709 18.9627
v 19.4295 18.987 18.9627
v 19.3224 19.6104 18.9627
v 20.1447 19.6246 19.7885
v 20.7259 19.0019 18.9627
v 20.0966 19.5637 19.9052
v 20.5447 19.0812 19.6111
v 19.461 19.009 18.9627
v 20.9927 21.0373 19.8747
v 19.8724 21.0293 20.462
v 20.5047 20.5255 19.4891
v 21.0373 21.0354 20.5169
v 19.952 20.5168 21.0373
v 20.8368 20.0545 20.2657
v 21.035 21.0373 21.037
v 21.0373 20.4016 21.0373
v 19.8891 19.7271 21.0373
v 18.9627 19.7546 21.0373
v 18.9627 20.471 21.0373
v 19.0001 19.5687 20.1516
v 18.9627 20.9315 20.8884
v 18.9627 20.2039 20.6011
v 20.1116 20.4265 21.0373
v 19.3535 19.9739 20.1602
v 20.9528 19.062 20.954
v 21.0035 19.7031 20.9492
v 20.4306 20.211 21.0373
v 20.07 19.448 20.1345
v 20.034 19.1103 19.64
v 19.8511 20.0025 20.5178
v 20.9683 19.4148 20.4364
v 20.6261 19.7165 19.983
v 20.6835 19.9146 20.1456
v 20.7878 20.2932 18.9627
v 19.7736 19.625 19.3161
v 20.2936 19.6939 18.9627
v 20.2034 21.0373 20.539
v 19.0015 21.0373 20.9335
v 18.9627 20.9518 20.308
v 19.318 20.4307 19.8696
v 19.7934 19.4281 19.6165
v 20.1348 20.4971 20.0281
v 19.6725 19.9331 20.4729
v 19.1341 19.8964 19.5406
v 19.1859 18.9627 19.8057
v 19.5907 18.9627 18.9801
v 20.3827 18.9627 19.396
v 20.2192 19.5224 19.9244
v 20.3656 20.3921 19.3556
v 21.0373 19.9084 20.3121
v 20.4656 19.9204 20.0418
v 21.0373 21.036 20.2113
v 20.1406 20.1481 19.8414
v 19.1502 19.5346 19.3487
v 18.9823 20.6501 19.9209
v 18.9627 20.2781 19.4098
v 19.8255 20.5369 19.9987
v 18.9627 20.5236 20.4842
v 19.6444 19.9757 20.3264
v 18.9627 19.7888 19.4546
v 20.9498 20.9444 19.5917
v 21.0373 21.0373 20.2112
v 20.3659 20.3919 19.3561
v 18.9627 19.6611 19.2756
v 19.814 19.5507 19.9039
v 18.9627 20.3959 20.3052
v 19.2416 19.8388 20.4966
v 20.9818 20.1431 20.0606
v 19.9231 19.9559 19.3943
v 20.3539 20.1236 18.9627
v 20.8382 20.7718 19.083
v 20.2071 20.7527 20.8851
v 19.5166 19.7087 20.7026
v 19.8481 20.8192 20.1957
v 19.8458 20.3918 19.7279
v 19.2169 19.3986 20.0275
v 19.2758 18.9627 20.7545
v 19.8885 20.0635 20.8682
v 18.9627 19.6587 19.2643
v 18.9627 18.9986 19.613
v 18.9627 19.9157 20.4841
v 19.6554 19.6544 20.1815
v 19.6069 19.9396 20.3514
v 18.9627 18.9627 19.953
v 19.541 19.2623 21.0373
v 18.9627 19.0249 20.9416
v 19.8697 21.0373 20.4777
v 20.4924 20.5312 19.4999
v 19.9692 20.0823 19.6542
v 20.8922 20.8256 20.0966
v 21.0373 21.0373 19.1594
v 20.1827 20.2188 19.2688
v 20.3467 21.0373 20.2192
v 21.007 21.0021 19.8227
v 20.4229 21.0373 20.571
v 20.8726 20.8522 20.1453
v 20.2423 20.1887 19.6505
v 19.9801 20.2475 20.8069
v 18.9627 18.9627 21.0373
v 21.0373 21.0266 21.0373
v 20.5884 20.5337 19.9623
v 21.0373 19.8471 20.5802
v 19.9478 19.6799 21.0373
v 19.061 19.7134 20.3477
v 18.9627 20.4734 21.0373
v 19.8917 20.3725 21.0373
v 19.6839 19.9725 20.6848
v 20.5854 20.7982 21.0095
v 20.8844 20.2971 20.4534
v 20.4882 20.1441 19.9313
v 21.0373 21.033 19.6235
v 21.0373 20.1443 20.1631
v 20.1576 20.1948 19.272
v 20.8383 20.7718 19.083
v 20.1157 20.7343 20.1739
v 20.2453 20.2349 19.7279
v 20.2003 20.7419 20.8859
v 19.5114 19.7155 20.6176
v 19.002927780151367 18.98855972290039 18.98862075805664
v 19.002927780151367 18.98855972290039 21.06321144104004
v 19.002927780151367 21.06315040588379 21.06321144104004
v 19.002927780151367 21.06315040588379 18.98862075805664
v 21.077518463134766 18.98855972290039 18.98862075805664
v 21.077518463134766 21.06315040588379 18.98862075805664
v 21.077518463134766 21.06315040588379 21.06321144104004
v 21.077518463134766 18.98855972290039 21.06321144104004
f 1 2 3
f 1 4 2
f 1 3 4
f 2 4 3
f 5 6 7
f 5 8 6
f 5 7 8
f 6 8 7
f 9 10 11
f 9 12 10
f 9 11 12
f 10 12 11
f 13 14 15
f 13 16 14
f 13 15 16
f 14 16 15
f 17 18 19
f 17 20 18
f 17 19 20
f 18 20 19
f 21 22 23
f 21 24 22
f 21 23 24
f 22 24 23
f 25 26 27
f 25 28 26
f 25 27 28
f 26 28 27
f 29 30 31
f 29 32 30
f 29 31 32
f 30 32 31
f 33 34 35
f 33 36 34
f 33 35 36
f 34 36 35
f 37 38 39
f 37 40 38
f 37 39 40
f 38 40 39
f 41 42 43
f 41 44 42
f 41 43 44
f 42 44 43
f 45 46 47
f 45 48 46
f 45 47 48
f 46 48 47
f 49 50 51
f 49 52 50
f 49 51 52
f 50 52 51
f 53 54 55
f 53 56 54
f 53 55 56
f 54 56 55
f 57 58 59
f 57 60 58
f 57 59 60
f 58 60 59
f 61 62 63
f 61 64 62
f 61 63 64
f 62 64 63
f 65 66 67
f 65 68 66
f 65 67 68
f 66 68 67
f 69 70 71
f 69 72 70
f 69 71 72
f 70 72 71
f 73 74 75
f 73 76 74
f 73 75 76
f 74 76 75
f 77 78 79
f 77 80 78
f 77 79 80
f 78 80 79
f 81 82 83
f 81 84 82
f 81 83 84
f 82 84 83
f 85 86 87
f 85 88 86
f 85 87 88
f 86 88 87
f 89 90 91
f 89 92 90
f 89 91 92
f 90 92 91
f 93 94 95
f 93 96 94
f 93 95 96
f 94 96 95
f 97 98 99
f 97 100 98
f 97 99 100
f 98 100 99
f 101 102 103
f 101 104 102
f 101 103 104
f 102 104 103
f 105 106 107
f 105 108 106
f 105 107 108
f 106 108 107
f 109 110 111
f 109 112 110
f 109 111 112
f 110 112 111
f 113 114 115
f 113 116 114
f 113 115 116
f 114 116 115
f 117 118 119
f 117 120 118
f 117 119 120
f 118 120 119
f 121 122 123
f 121 124 122
f 121 123 124
f 122 124 123
f 125 55 126
f 125 127 55
f 125 126 127
f 55 127 126
f 128 129 130
f 128 131 129
f 128 130 131
f 129 131 130
f 132 133 134
f 132 135 133
f 132 134 135
f 133 135 134
f 136 137 138
f 136 139 137
f 136 138 139
f 137 139 138
f 140 141 142
f 140 143 141
f 140 142 143
f 141 143 142
f 144 145 146
f 144 147 145
f 144 146 147
f 145 147 146
f 148 149 150
f 148 151 149
f 148 150 151
f 149 151 150
f 152 153 154
f 152 155 153
f 152 154 155
f 153 155 154
f 156 157 158
f 156 159 157
f 156 158 159
f 157 159 158
f 160 161 162
f 160 163 161
f 160 162 163
f 161 163 162
f 164 165 166
f 164 167 165
f 164 166 167
f 165 167 166
f 168 169 170
f 168 171 169
f 168 170 171
f 169 171 170
f 172 173 174
f 172 175 173
f 172 174 175
f 173 175 174
f 176 177 178
f 176 179 177
f 176 178 179
f 177 179 178
f 180 181 182
f 180 183 181
f 180 182 183
f 181 183 182
f 184 185 186
f 184 187 185
f 184 186 187
f 185 187 186
f 188 189 190
f 188 191 189
f 188 190 191
f 189 191 190
f 192 193 194
f 192 195 193
f 192 194 195
f 193 195 194
f 196 197 198
f 196 199 197
f 196 198 199
f 197 199 198
f 200 201 202
f 200 203 201
f 200 202 203
f 201 203 202
f 204 205 206
f 204 207 205
f 204 206 207
f 205 207 206
f 208 209 210
f 208 211 209
f 208 210 211
f 209 211 210
f 212 213 214
f 212 215 213
f 212 214 215
f 213 215 214
f 216 217 218
f 216 219 217
f 216 218 219
f 217 219 218
f 220 221 222
f 220 223 221
f 220 222 223
f 221 223 222
f 224 225 226
f 224 227 225
f 224 226 227
f 225 227 226
f 228 229 230
f 228 231 229
f 228 230 231
f 229 231 230
f 232 233 234
f 232 235 233
f 232 234 235
f 233 235 234
f 225 236 237
f 225 238 236
f 225 237 238
f 236 238 237
f 239 240 241
f 239 242 240
f 239 241 242
f 240 242 241
f 243 244 245
f 243 246 244
f 243 245 246
f 244 246 245
f 247 248 249
f 247 250 248
f 247 249 250
f 248 250 249
f 251 252 174
f 251 253 252
f 251 174 253
f 252 253 174
f 254 255 256
f 254 257 255
f 254 256 257
f 255 257 256
f 258 259 260
f 258 261 259
f 258 260 261
f 259 261 260
f 262 263 264
f 262 265 263
f 262 264 265
f 263 265 264
f 266 267 268
f 266 269 267
f 266 268 269
f 267 269 268
f 270 271 272
f 270 273 271
f 270 272 273
f 271 273 272
f 193 195 192
f 193 274 195
f 193 192 274
f 195 274 192
f 237 275 276
f 237 277 275
f 237 276 277
f 275 277 276
f 278 279 280
f 278 281 279
f 278 280 281
f 279 281 280
f 282 283 284
f 282 285 283
f 282 284 285
f 283 285 284
f 286 287 288
f 286 289 287
f 286 288 289
f 287 289 288
f 290 291 292
f 290 293 291
f 290 292 293
f 291 293 292
f 294 295 296 297
f 298 299 300 301
f 294 298 301 295
f 297 296 300 299
f 294 297 299 298
f 295 301 300 296
