# Generated by Visualization Toolkit
v 20.5441 20.5441 20.5441
v 19.8081 20.5441 19.6699
v 19.4559 20.5441 20.5441
v 19.4559 19.8992 20.5441
v 20.5441 20.5441 19.4559
v 20.0332 20.5441 19.9373
v 20.5441 19.4559 20.1008
v 20.1369 20.3241 19.9124
v 19.5206 19.4985 19.534
v 20.5437 19.4579 19.4579
v 20.2588 19.9795 20.4409
v 19.4559 19.4559 20.5441
v 19.4559 19.6424 19.4559
v 19.4559 20.5441 20.3431
v 19.8117 20.3503 19.7234
v 19.9743 19.9851 20.4535
v 20.5441 19.4559 19.4559
v 19.4559 19.4559 19.4559
v 20.517 19.4559 20.1445
v 19.7736 20.4948 19.7278
v 19.5088 19.9305 20.5441
v 20.5441 19.9116 20.5441
v 20.5441 19.4559 20.1621
v 19.483 19.4559 19.4735
v 19.9694 19.9221 20.5441
v 20.5441 20.1449 19.4559
v 20.0829 20.4777 19.9299
v 19.4559 20.5441 19.4559
v 19.469 19.4784 19.4559
v 19.4654 19.4843 19.4621
v 20.0344 20.4804 19.9951
v 19.8594 20.4703 19.7607
v 20.1501 20.1349 20.2341
v 19.4924 19.5475 20.5441
v 19.430442810058594 19.43630027770996 19.43109703063965
v 19.430442810058594 19.43630027770996 20.519256591796875
v 19.430442810058594 20.524459838867188 20.519256591796875
v 19.430442810058594 20.524459838867188 19.43109703063965
v 20.51860237121582 19.43630027770996 19.43109703063965
v 20.51860237121582 20.524459838867188 19.43109703063965
v 20.51860237121582 20.524459838867188 20.519256591796875
v 20.51860237121582 19.43630027770996 20.519256591796875
f 1 2 3
f 1 4 2
f 1 3 4
f 2 4 3
f 5 1 6
f 5 7 1
f 5 6 7
f 1 7 6
f 8 9 10
f 8 11 9
f 8 10 11
f 9 11 10
f 12 13 14
f 12 15 13
f 12 14 15
f 13 15 14
f 16 17 18
f 16 19 17
f 16 18 19
f 17 19 18
f 1 20 21
f 1 22 20
f 1 21 22
f 20 22 21
f 23 24 12
f 23 25 24
f 23 12 25
f 24 25 12
f 26 27 28
f 26 29 27
f 26 28 29
f 27 29 28
f 17 26 30
f 17 31 26
f 17 30 31
f 26 31 30
f 32 18 33
f 32 34 18
f 32 33 34
f 18 34 33
f 35 36 37 38
f 39 40 41 42
f 35 39 42 36
f 38 37 41 40
f 35 38 40 39
f 36 42 41 37
