# Generated by Visualization Toolkit
v 20.7882 19.2118 19.2118
v 20.7882 19.2118 20.2914
v 20.7631 20.094 19.9089
v 20.156 19.2305 19.2118
v 20.2278 20.7882 19.8475
v 19.316 20.0752 19.3372
v 20.0986 19.7022 19.2118
v 20.4405 19.9541 19.9037
v 19.2118 20.0094 19.5249
v 19.2118 19.8451 20.1357
v 20.1813 20.65 20.0247
v 19.2118 20.2972 20.7566
v 19.2118 19.2118 20.7882
v 19.8441 19.2281 20.7882
v 20.0285 19.9646 20.3617
v 19.2118 19.2673 19.6933
v 20.3621 20.7882 19.2663
v 19.4699 20.7882 19.7638
v 20.1564 19.836 19.2925
v 19.4191 19.9469 19.2118
v 19.7338 20.4764 20.7882
v 20.1003 19.5779 20.0174
v 20.7882 20.3078 20.7882
v 20.7882 20.1303 20.1811
v 19.8677 19.2118 19.7744
v 20.7695 19.2118 20.2598
v 20.7791 20.2163 20.3401
v 20.7882 20.7882 19.2118
v 20.7882 20.094 19.2118
v 20.1617 19.6999 19.3643
v 19.2118 20.7587 19.7863
v 20.4632 20.7882 19.9687
v 19.455 20.2575 19.4192
v 19.9005 19.7112 19.6172
v 20.7882 19.9783 20.1263
v 19.5734 19.6311 20.0636
v 19.6011 20.3308 20.3143
v 19.8732 19.3857 19.5189
v 19.4052 19.9337 19.9721
v 20.2045 19.3155 19.2118
v 20.6538 20.0713 20.1211
v 20.0313 20.2974 19.9902
v 20.2557 20.4468 19.2118
v 19.2118 19.2249 19.2118
v 19.2118 19.3753 19.8262
v 19.6334 20.0329 20.089
v 20.3544 19.3763 19.2834
v 20.5461 20.7882 20.7366
v 19.4369 20.183 20.6779
v 19.2818 20.7882 20.7763
v 19.8945 19.884 20.1382
v 20.6033 20.7882 19.2118
v 20.7028 20.7882 19.9009
v 19.4722 20.7882 19.7626
v 19.9922 20.0607 19.4049
v 19.2118 20.7882 20.7882
v 19.2118 20.2335 20.4842
v 19.2118 20.7882 19.781
v 20.3208 20.7625 20.1835
v 19.9259 20.1262 19.7627
v 19.6599 20.7882 20.7644
v 20.6358 20.7882 19.9596
v 20.6148 20.7882 20.5917
v 19.4761 19.993 19.2118
v 19.2118 20.7882 19.2118
v 19.3551 20.7882 19.8279
v 20.4599 20.7882 19.2118
v 19.2118 19.244 20.1531
v 19.2311 20.3378 20.7882
v 19.3675 19.7662 19.832
v 20.0435 19.9566 20.786
v 19.5633 19.3008 20.1672
v 19.8796 19.2118 19.5247
v 19.819 19.2118 20.7882
v 20.6311 19.9783 20.1939
v 20.0104 20.7882 20.7534
v 19.4251 19.9721 19.9844
v 20.6853 19.9487 20.0902
v 20.5251 20.5421 20.2391
v 20.7882 20.7882 19.2771
v 20.617 20.7882 20.5273
v 20.1504 20.2204 19.4977
v 20.7882 20.1941 20.3938
v 20.6189 19.2118 20.1788
v 20.6718 20.0238 20.3167
v 19.8195 19.2118 20.7794
v 19.8473 19.3474 20.7882
v 20.7882 19.2118 20.7882
v 20.6565 20.3196 20.7882
v 19.8502 19.2545 20.7329
v 19.9308 19.6006 20.0133
v 20.148 20.4102 20.7882
v 20.7882 20.0246 20.5282
v 19.9769 19.8725 20.3083
v 20.2551 19.3065 19.2118
v 19.4421 19.2118 20.1369
v 19.2118 19.2118 19.5479
v 20.0497 19.9573 20.7882
v 19.2118 20.3468 20.7882
v 19.2118 19.2506 20.1569
v 19.2118 20.0831 19.2509
v 19.3715 19.993 20.0604
v 20.1558 19.6787 19.2118
v 19.7309 19.3996 19.2118
v 20.6001 20.0449 19.8662
v 20.3065 20.7344 20.0958
v 19.3404 20.0939 19.5893
v 19.2118 20.7785 19.7932
v 19.205232620239258 19.20747947692871 19.18018913269043
v 19.205232620239258 19.20747947692871 20.756519317626953
v 19.205232620239258 20.783809661865234 20.756519317626953
v 19.205232620239258 20.783809661865234 19.18018913269043
v 20.78156280517578 19.20747947692871 19.18018913269043
v 20.78156280517578 20.783809661865234 19.18018913269043
v 20.78156280517578 20.783809661865234 20.756519317626953
v 20.78156280517578 19.20747947692871 20.756519317626953
f 1 2 3
f 1 4 2
f 1 3 4
f 2 4 3
f 5 6 7
f 5 8 6
f 5 7 8
f 6 8 7
f 9 10 11
f 9 12 10
f 9 11 12
f 10 12 11
f 13 14 15
f 13 16 14
f 13 15 16
f 14 16 15
f 17 18 19
f 17 20 18
f 17 19 20
f 18 20 19
f 21 22 23
f 21 24 22
f 21 23 24
f 22 24 23
f 4 25 3
f 4 26 25
f 4 3 26
f 25 26 3
f 27 28 29
f 27 30 28
f 27 29 30
f 28 30 29
f 31 32 33
f 31 34 32
f 31 33 34
f 32 34 33
f 35 36 37
f 35 38 36
f 35 37 38
f 36 38 37
f 39 40 41
f 39 42 40
f 39 41 42
f 40 42 41
f 28 30 43
f 28 27 30
f 28 43 27
f 30 27 43
f 44 45 46
f 44 47 45
f 44 46 47
f 45 47 46
f 48 49 50
f 48 51 49
f 48 50 51
f 49 51 50
f 52 53 54
f 52 55 53
f 52 54 55
f 53 55 54
f 56 57 58
f 56 59 57
f 56 58 59
f 57 59 58
f 60 61 62
f 60 63 61
f 60 62 63
f 61 63 62
f 64 65 66
f 64 67 65
f 64 66 67
f 65 67 66
f 68 69 70
f 68 71 69
f 68 70 71
f 69 71 70
f 72 73 74
f 72 75 73
f 72 74 75
f 73 75 74
f 76 77 78
f 76 79 77
f 76 78 79
f 77 79 78
f 80 81 82
f 80 83 81
f 80 82 83
f 81 83 82
f 84 25 85
f 84 86 25
f 84 85 86
f 25 86 85
f 87 88 84
f 87 89 88
f 87 84 89
f 88 89 84
f 90 91 92
f 90 93 91
f 90 92 93
f 91 93 92
f 94 95 96
f 94 97 95
f 94 96 97
f 95 97 96
f 98 13 99
f 98 100 13
f 98 99 100
f 13 100 99
f 44 101 102
f 44 103 101
f 44 102 103
f 101 103 102
f 1 29 104
f 1 105 29
f 1 104 105
f 29 105 104
f 106 107 108
f 106 57 107
f 106 108 57
f 107 57 108
f 109 110 111 112
f 113 114 115 116
f 109 113 116 110
f 112 111 115 114
f 109 112 114 113
f 110 116 115 111
