# Generated by Visualization Toolkit
v -0.556282 0.120516 0.34274
v 0.0000327599 0.569187 1.02021
v 0.482328 0.113053 0.864711
v 0.016714 0.568941 -0.242254
v 0.0167143 0.568941 -0.242253
v -0.556105 0.121328 0.341259
v 0.482328 0.113053 0.864712
v 0.42834 -0.374831 0.521409
v 0.430553 -0.372286 0.512236
v 0.425453 0.378105 0.819085
v 0.0121091 0.569058 -0.255081
v 0.56912 0.00867796 -0.402751
v 0.00366243 0.569175 -0.238715
v 0.428128 -0.375073 0.521696
v 0.492111 0.0982487 -0.402752
v -0.555922 0.122162 0.339578
v 0.428241 -0.374944 0.521263
v 0.492113 0.0982479 -0.402752
v -0.554561 0.120549 0.341542
v 0.29934 -0.484117 -0.402752
v -0.553658 0.0969427 0.323356
v 0.403328 -0.401622 1.02021
v 0.292408 -0.488335 0.352259
v 0.0000323902 0.569186 1.02021
v 0.299339 -0.484117 -0.402752
v 0.289716 -0.489936 0.642386
v -0.444802 -0.35514 -0.402752
v -0.560125 0.10116 0.344642
v -0.532875 -0.200044 -0.402752
v 0.261241 0.505694 -0.402752
v -0.557897 0.112801 0.344799
v -0.566575 -0.0544572 0.252903
v 0.0000310332 0.569187 1.02021
v 0.403327 -0.401623 1.02021
v -0.457765 -0.338266 1.02021
v 0.363949 -0.437623 0.889285
v -0.569153 -0.00617573 0.119107
v -0.0799294 -0.563547 -0.186638
v -0.457764 -0.338269 1.02021
v 0.015414640307426453 0.5459292531013489 -0.42121678590774536
v 0.015414640307426453 0.5459292531013489 1.001753330230713
v 0.07491087913513184 0.5428112149238586 -0.42121678590774536
v 0.07491087913513184 0.5428112149238586 1.001753330230713
v 0.13375526666641235 0.5334911942481995 -0.42121678590774536
v 0.13375526666641235 0.5334911942481995 1.001753330230713
v 0.191303089261055 0.5180712938308716 -0.42121678590774536
v 0.191303089261055 0.5180712938308716 1.001753330230713
v 0.24692384898662567 0.49672049283981323 -0.42121678590774536
v 0.24692384898662567 0.49672049283981323 1.001753330230713
v 0.3000081181526184 0.46967267990112305 -0.42121678590774536
v 0.3000081181526184 0.46967267990112305 1.001753330230713
v 0.3499743938446045 0.43722420930862427 -0.42121678590774536
v 0.3499743938446045 0.43722420930862427 1.001753330230713
v 0.3962751030921936 0.3997306525707245 -0.42121678590774536
v 0.3962751030921936 0.3997306525707245 1.001753330230713
v 0.43840301036834717 0.35760271549224854 -0.42121678590774536
v 0.43840301036834717 0.35760271549224854 1.001753330230713
v 0.47589659690856934 0.3113020062446594 -0.42121678590774536
v 0.47589659690856934 0.3113020062446594 1.001753330230713
v 0.5083450675010681 0.2613357603549957 -0.42121678590774536
v 0.5083450675010681 0.2613357603549957 1.001753330230713
v 0.5353928804397583 0.2082514613866806 -0.42121678590774536
v 0.5353928804397583 0.2082514613866806 1.001753330230713
v 0.5567436814308167 0.15263070166110992 -0.42121678590774536
v 0.5567436814308167 0.15263070166110992 1.001753330230713
v 0.5721635818481445 0.09508289396762848 -0.42121678590774536
v 0.5721635818481445 0.09508289396762848 1.001753330230713
v 0.5814836025238037 0.036238498985767365 -0.42121678590774536
v 0.5814836025238037 0.036238498985767365 1.001753330230713
v 0.584601640701294 -0.023257741704583168 -0.42121678590774536
v 0.584601640701294 -0.023257741704583168 1.001753330230713
v 0.5814836025238037 -0.082753986120224 -0.42121678590774536
v 0.5814836025238037 -0.082753986120224 1.001753330230713
v 0.5721635818481445 -0.14159837365150452 -0.42121678590774536
v 0.5721635818481445 -0.14159837365150452 1.001753330230713
v 0.5567436814308167 -0.19914619624614716 -0.42121678590774536
v 0.5567436814308167 -0.19914619624614716 1.001753330230713
v 0.5353928804397583 -0.25476694107055664 -0.42121678590774536
v 0.5353928804397583 -0.25476694107055664 1.001753330230713
v 0.5083450675010681 -0.30785122513771057 -0.42121678590774536
v 0.5083450675010681 -0.30785122513771057 1.001753330230713
v 0.47589659690856934 -0.35781747102737427 -0.42121678590774536
v 0.47589659690856934 -0.35781747102737427 1.001753330230713
v 0.43840301036834717 -0.4041181802749634 -0.42121678590774536
v 0.43840301036834717 -0.4041181802749634 1.001753330230713
v 0.3962751030921936 -0.44624611735343933 -0.42121678590774536
v 0.3962751030921936 -0.44624611735343933 1.001753330230713
v 0.3499743938446045 -0.4837396740913391 -0.42121678590774536
v 0.3499743938446045 -0.4837396740913391 1.001753330230713
v 0.3000081181526184 -0.5161881446838379 -0.42121678590774536
v 0.3000081181526184 -0.5161881446838379 1.001753330230713
v 0.24692384898662567 -0.5432359576225281 -0.42121678590774536
v 0.24692384898662567 -0.5432359576225281 1.001753330230713
v 0.191303089261055 -0.5645867586135864 -0.42121678590774536
v 0.191303089261055 -0.5645867586135864 1.001753330230713
v 0.13375526666641235 -0.5800066590309143 -0.42121678590774536
v 0.13375526666641235 -0.5800066590309143 1.001753330230713
v 0.07491087913513184 -0.5893266797065735 -0.42121678590774536
v 0.07491087913513184 -0.5893266797065735 1.001753330230713
v 0.015414640307426453 -0.5924447178840637 -0.42121678590774536
v 0.015414640307426453 -0.5924447178840637 1.001753330230713
v -0.04408160224556923 -0.5893266797065735 -0.42121678590774536
v -0.04408160224556923 -0.5893266797065735 1.001753330230713
v -0.10292599350214005 -0.5800066590309143 -0.42121678590774536
v -0.10292599350214005 -0.5800066590309143 1.001753330230713
v -0.1604738086462021 -0.5645867586135864 -0.42121678590774536
v -0.1604738086462021 -0.5645867586135864 1.001753330230713
v -0.21609456837177277 -0.5432359576225281 -0.42121678590774536
v -0.21609456837177277 -0.5432359576225281 1.001753330230713
v -0.2691788673400879 -0.5161881446838379 -0.42121678590774536
v -0.2691788673400879 -0.5161881446838379 1.001753330230713
v -0.3191450834274292 -0.4837396740913391 -0.42121678590774536
v -0.3191450834274292 -0.4837396740913391 1.001753330230713
v -0.3654457926750183 -0.44624611735343933 -0.42121678590774536
v -0.3654457926750183 -0.44624611735343933 1.001753330230713
v -0.40757375955581665 -0.4041181802749634 -0.42121678590774536
v -0.40757375955581665 -0.4041181802749634 1.001753330230713
v -0.44506728649139404 -0.35781747102737427 -0.42121678590774536
v -0.44506728649139404 -0.35781747102737427 1.001753330230713
v -0.4775157570838928 -0.30785122513771057 -0.42121678590774536
v -0.4775157570838928 -0.30785122513771057 1.001753330230713
v -0.504563570022583 -0.25476694107055664 -0.42121678590774536
v -0.504563570022583 -0.25476694107055664 1.001753330230713
v -0.5259143710136414 -0.19914619624614716 -0.42121678590774536
v -0.5259143710136414 -0.19914619624614716 1.001753330230713
v -0.5413342714309692 -0.14159837365150452 -0.42121678590774536
v -0.5413342714309692 -0.14159837365150452 1.001753330230713
v -0.5506542921066284 -0.082753986120224 -0.42121678590774536
v -0.5506542921066284 -0.082753986120224 1.001753330230713
v -0.5537723302841187 -0.023257741704583168 -0.42121678590774536
v -0.5537723302841187 -0.023257741704583168 1.001753330230713
v -0.5506542921066284 0.036238498985767365 -0.42121678590774536
v -0.5506542921066284 0.036238498985767365 1.001753330230713
v -0.5413342714309692 0.09508289396762848 -0.42121678590774536
v -0.5413342714309692 0.09508289396762848 1.001753330230713
v -0.5259143710136414 0.15263070166110992 -0.42121678590774536
v -0.5259143710136414 0.15263070166110992 1.001753330230713
v -0.504563570022583 0.2082514613866806 -0.42121678590774536
v -0.504563570022583 0.2082514613866806 1.001753330230713
v -0.4775157570838928 0.2613357603549957 -0.42121678590774536
v -0.4775157570838928 0.2613357603549957 1.001753330230713
v -0.44506728649139404 0.3113020062446594 -0.42121678590774536
v -0.44506728649139404 0.3113020062446594 1.001753330230713
v -0.40757375955581665 0.35760271549224854 -0.42121678590774536
v -0.40757375955581665 0.35760271549224854 1.001753330230713
v -0.3654457926750183 0.3997306525707245 -0.42121678590774536
v -0.3654457926750183 0.3997306525707245 1.001753330230713
v -0.3191450834274292 0.43722420930862427 -0.42121678590774536
v -0.3191450834274292 0.43722420930862427 1.001753330230713
v -0.2691788673400879 0.46967267990112305 -0.42121678590774536
v -0.2691788673400879 0.46967267990112305 1.001753330230713
v -0.21609456837177277 0.49672049283981323 -0.42121678590774536
v -0.21609456837177277 0.49672049283981323 1.001753330230713
v -0.1604738086462021 0.5180712938308716 -0.42121678590774536
v -0.1604738086462021 0.5180712938308716 1.001753330230713
v -0.10292599350214005 0.5334911942481995 -0.42121678590774536
v -0.10292599350214005 0.5334911942481995 1.001753330230713
v -0.04408160224556923 0.5428112149238586 -0.42121678590774536
v -0.04408160224556923 0.5428112149238586 1.001753330230713
f 1 2 3
f 1 4 2
f 1 3 4
f 2 4 3
f 5 6 7
f 5 8 6
f 5 7 8
f 6 8 7
f 9 10 11
f 9 12 10
f 9 11 12
f 10 12 11
f 13 14 15
f 13 16 14
f 13 15 16
f 14 16 15
f 17 18 19
f 17 20 18
f 17 19 20
f 18 20 19
f 21 22 23
f 21 24 22
f 21 23 24
f 22 24 23
f 25 26 27
f 25 28 26
f 25 27 28
f 26 28 27
f 20 29 30
f 20 31 29
f 20 30 31
f 29 31 30
f 32 33 34
f 32 35 33
f 32 34 35
f 33 35 34
f 36 37 38
f 36 39 37
f 36 38 39
f 37 39 38
f 40 41 43 42
f 42 43 45 44
f 44 45 47 46
f 46 47 49 48
f 48 49 51 50
f 50 51 53 52
f 52 53 55 54
f 54 55 57 56
f 56 57 59 58
f 58 59 61 60
f 60 61 63 62
f 62 63 65 64
f 64 65 67 66
f 66 67 69 68
f 68 69 71 70
f 70 71 73 72
f 72 73 75 74
f 74 75 77 76
f 76 77 79 78
f 78 79 81 80
f 80 81 83 82
f 82 83 85 84
f 84 85 87 86
f 86 87 89 88
f 88 89 91 90
f 90 91 93 92
f 92 93 95 94
f 94 95 97 96
f 96 97 99 98
f 98 99 101 100
f 100 101 103 102
f 102 103 105 104
f 104 105 107 106
f 106 107 109 108
f 108 109 111 110
f 110 111 113 112
f 112 113 115 114
f 114 115 117 116
f 116 117 119 118
f 118 119 121 120
f 120 121 123 122
f 122 123 125 124
f 124 125 127 126
f 126 127 129 128
f 128 129 131 130
f 130 131 133 132
f 132 133 135 134
f 134 135 137 136
f 136 137 139 138
f 138 139 141 140
f 140 141 143 142
f 142 143 145 144
f 144 145 147 146
f 146 147 149 148
f 148 149 151 150
f 150 151 153 152
f 152 153 155 154
f 154 155 157 156
f 156 157 159 158
f 158 159 41 40
f 40 42 44 46 48 50 52 54 56 58 60 62 64 66 68 70 72 74 76 78 80 82 84 86 88 90 92 94 96 98 100 102 104 106 108 110 112 114 116 118 120 122 124 126 128 130 132 134 136 138 140 142 144 146 148 150 152 154 156 158
f 159 157 155 153 151 149 147 145 143 141 139 137 135 133 131 129 127 125 123 121 119 117 115 113 111 109 107 105 103 101 99 97 95 93 91 89 87 85 83 81 79 77 75 73 71 69 67 65 63 61 59 57 55 53 51 49 47 45 43 41
