# Generated by Visualization Toolkit
v 0.846725 0.197681 1.52218
v -0.272452 0.456345 1.16089
v 0.750813 0.438521 0.52637
v 0.255844 0.831002 1.52218
v 0.083267 0.325824 1.48887
v 0.738388 -0.459134 0.861566
v 0.74551 0.447477 0.49055
v 0.86107 0.120743 1.52218
v 0.775897 -0.392434 0.934131
v 0.0498614 0.367216 1.52218
v 0.127811 -0.834417 1.52218
v 0.0447991 0.39443 0.727598
v 0.629573 -0.599715 1.07359
v 0.745508 0.44748 0.490549
v 0.846989 -0.196546 0.0514042
v 0.0447739 0.394508 0.727565
v 0.629583 -0.599623 1.07354
v -0.636079 0.372289 1.22415
v 0.478339 0.492791 0.784205
v 0.0165465 0.869337 0.342661
v 0.723256 0.48262 0.520952
v 0.536939 0.683899 -0.651556
v 0.0809499 0.846689 0.450975
v 0.654063 -0.166918 0.144147
v 0.00463377 -0.112321 0.0382047
v 0.182616 0.787385 0.235841
v 0.631238 0.452774 -0.616225
v 0.663824 -0.313826 0.311817
v 0.230844 -0.163141 0.883175
v -0.784374 0.375204 1.24306
v -0.0411175 0.697763 0.443109
v 0.0624296 0.173471 1.52218
v 0.328039 -0.232949 0.503257
v 0.08495 -0.826836 1.52218
v 0.0603797 0.36583 1.51312
v 0.629574 -0.599715 1.07296
v -0.517298 0.355037 0.942339
v 0.199181 -0.193107 0.14472
v 0.163532 0.842576 0.230256
v 0.230398 -0.165695 0.885175
v -0.688052 0.376738 0.81189
v -0.153405 0.855855 -0.154857
v -0.16647 0.85341 0.586643
v 0.144297 -0.243553 0.201616
v -0.103905 -0.210116 0.151456
v 0.805876 -0.326474 0.333582
v 0.822268 -0.282659 -0.614665
v 0.605423 0.425928 -0.584955
v 0.0818735 -0.689298 1.52218
v -0.568402 0.249226 1.13967
v 0.301176 -0.334125 0.545084
v -0.314406 0.269024 0.568945
v -0.711302 -0.500071 1.40618
v 0.0280145 -0.552363 1.38016
v -0.80247 0.307942 1.52218
v 0.0821038 -0.699137 1.52218
v 0.317373 -0.274556 0.420192
v -0.798972 -0.341929 0.866551
v -0.225122 0.137842 0.712813
v -0.0803295 -0.194883 0.128259
v 0.842011 -0.216883 -0.645565
v 0.283157 0.822097 -0.40431
v 0.0962068 -0.200483 -0.651556
v -0.0428298 -0.219063 0.414111
v -0.558013 0.666815 0.463092
v -0.182836 -0.174168 -0.312788
v 0.189999 0.618697 -0.418924
v -0.381438 -0.153703 0.370124
v -0.321081 -0.80804 0.713926
v 0.0131765 -0.701359 1.3673
v 0.783061 -0.377936 0.499727
v -0.392529 -0.187439 0.388919
v 0.190841 -0.202566 -0.651556
v 0.802552 -0.334563 0.377224
v 0.522336 -0.695116 -0.207139
v -0.856403 0.150318 1.37048
v -0.583305 0.644807 0.307044
v -0.700732 -0.514777 0.609659
v -0.130522 -0.0635745 0.433813
v -0.798919 0.343147 -0.651556
v -0.462433 0.736326 0.300837
v 0.26883 0.826893 -0.651556
v -0.331624 0.0842392 -0.0272963
v -0.334739 0.0859653 -0.0314582
v 0.310077 0.812326 -0.651556
v 0.08811 -0.238827 -0.651556
v 0.505372 -0.707545 -0.23737
v 0.783762 -0.376482 0.498931
v -0.399783 -0.195912 0.370024
v 0.0837883 -0.865448 0.755586
v 0.231561 -0.838093 0.457705
v 0.632867 -0.596239 -0.651556
v -0.147751 -0.0635401 -0.382645
v -0.0668125 -0.866924 -0.651556
v -0.76236 0.418125 -0.467694
v -0.862215 0.112275 0.692687
v -0.0781009 -0.345258 -0.0984057
v -0.567334 0.658903 0.28742
v -0.186864 -0.0766714 -0.585616
v 0.118738 -0.699204 0.398792
v -0.617714 -0.611923 0.403258
v -0.769187 0.113227 0.43809
v 0.226257 -0.824605 0.447823
v -0.61287 -0.616775 0.410424
v -0.0741615 -0.866326 -0.6372
v -0.155982 -0.147984 -0.472002
v -0.869177 -0.0235204 -0.650082
v -0.836636 0.236774 0.261486
v -0.132721 -0.110873 -0.651556
v -0.569001 -0.657464 0.328698
v -0.56999 -0.656607 0.32749
v -0.0827768 -0.125614 -0.637223
v -0.869201 -0.022617 -0.651556
v 0.027125824242830276 0.8577266931533813 -0.6737068891525269
v 0.027125824242830276 0.8577266931533813 1.5000330209732056
v 0.11801280081272125 0.8529635071754456 -0.6737068891525269
v 0.11801280081272125 0.8529635071754456 1.5000330209732056
v 0.20790399610996246 0.8387261629104614 -0.6737068891525269
v 0.20790399610996246 0.8387261629104614 1.5000330209732056
v 0.295814573764801 0.8151705861091614 -0.6737068891525269
v 0.295814573764801 0.8151705861091614 1.5000330209732056
v 0.3807813227176666 0.7825549244880676 -0.6737068891525269
v 0.3807813227176666 0.7825549244880676 1.5000330209732056
v 0.461873322725296 0.7412364482879639 -0.6737068891525269
v 0.461873322725296 0.7412364482879639 1.5000330209732056
v 0.538202166557312 0.6916679739952087 -0.6737068891525269
v 0.538202166557312 0.6916679739952087 1.5000330209732056
v 0.6089315414428711 0.6343924403190613 -0.6737068891525269
v 0.6089315414428711 0.6343924403190613 1.5000330209732056
v 0.6732865571975708 0.5700374245643616 -0.6737068891525269
v 0.6732865571975708 0.5700374245643616 1.5000330209732056
v 0.7305620908737183 0.4993080496788025 -0.6737068891525269
v 0.7305620908737183 0.4993080496788025 1.5000330209732056
v 0.7801305651664734 0.4229792058467865 -0.6737068891525269
v 0.7801305651664734 0.4229792058467865 1.5000330209732056
v 0.8214490413665771 0.3418872058391571 -0.6737068891525269
v 0.8214490413665771 0.3418872058391571 1.5000330209732056
v 0.8540647029876709 0.2569204568862915 -0.6737068891525269
v 0.8540647029876709 0.2569204568862915 1.5000330209732056
v 0.877620279788971 0.16900989413261414 -0.6737068891525269
v 0.877620279788971 0.16900989413261414 1.5000330209732056
v 0.8918576240539551 0.07911869138479233 -0.6737068891525269
v 0.8918576240539551 0.07911869138479233 1.5000330209732056
v 0.8966208100318909 -0.011768282391130924 -0.6737068891525269
v 0.8966208100318909 -0.011768282391130924 1.5000330209732056
v 0.8918576240539551 -0.10265525430440903 -0.6737068891525269
v 0.8918576240539551 -0.10265525430440903 1.5000330209732056
v 0.877620279788971 -0.19254645705223083 -0.6737068891525269
v 0.877620279788971 -0.19254645705223083 1.5000330209732056
v 0.8540647029876709 -0.2804570198059082 -0.6737068891525269
v 0.8540647029876709 -0.2804570198059082 1.5000330209732056
v 0.8214490413665771 -0.3654237687587738 -0.6737068891525269
v 0.8214490413665771 -0.3654237687587738 1.5000330209732056
v 0.7801305651664734 -0.4465157687664032 -0.6737068891525269
v 0.7801305651664734 -0.4465157687664032 1.5000330209732056
v 0.7305620908737183 -0.5228446125984192 -0.6737068891525269
v 0.7305620908737183 -0.5228446125984192 1.5000330209732056
v 0.6732865571975708 -0.5935739874839783 -0.6737068891525269
v 0.6732865571975708 -0.5935739874839783 1.5000330209732056
v 0.6089315414428711 -0.657929003238678 -0.6737068891525269
v 0.6089315414428711 -0.657929003238678 1.5000330209732056
v 0.538202166557312 -0.7152045369148254 -0.6737068891525269
v 0.538202166557312 -0.7152045369148254 1.5000330209732056
v 0.461873322725296 -0.7647730112075806 -0.6737068891525269
v 0.461873322725296 -0.7647730112075806 1.5000330209732056
v 0.3807813227176666 -0.8060914874076843 -0.6737068891525269
v 0.3807813227176666 -0.8060914874076843 1.5000330209732056
v 0.295814573764801 -0.8387071490287781 -0.6737068891525269
v 0.295814573764801 -0.8387071490287781 1.5000330209732056
v 0.20790399610996246 -0.8622627258300781 -0.6737068891525269
v 0.20790399610996246 -0.8622627258300781 1.5000330209732056
v 0.11801280081272125 -0.8765000700950623 -0.6737068891525269
v 0.11801280081272125 -0.8765000700950623 1.5000330209732056
v 0.027125824242830276 -0.881263256072998 -0.6737068891525269
v 0.027125824242830276 -0.881263256072998 1.5000330209732056
v -0.0637611448764801 -0.8765000700950623 -0.6737068891525269
v -0.0637611448764801 -0.8765000700950623 1.5000330209732056
v -0.1536523550748825 -0.8622627258300781 -0.6737068891525269
v -0.1536523550748825 -0.8622627258300781 1.5000330209732056
v -0.24156291782855988 -0.8387071490287781 -0.6737068891525269
v -0.24156291782855988 -0.8387071490287781 1.5000330209732056
v -0.3265296518802643 -0.8060914874076843 -0.6737068891525269
v -0.3265296518802643 -0.8060914874076843 1.5000330209732056
v -0.4076216518878937 -0.7647730112075806 -0.6737068891525269
v -0.4076216518878937 -0.7647730112075806 1.5000330209732056
v -0.48395049571990967 -0.7152045369148254 -0.6737068891525269
v -0.48395049571990967 -0.7152045369148254 1.5000330209732056
v -0.5546798706054688 -0.657929003238678 -0.6737068891525269
v -0.5546798706054688 -0.657929003238678 1.5000330209732056
v -0.6190348863601685 -0.5935739874839783 -0.6737068891525269
v -0.6190348863601685 -0.5935739874839783 1.5000330209732056
v -0.6763104200363159 -0.5228446125984192 -0.6737068891525269
v -0.6763104200363159 -0.5228446125984192 1.5000330209732056
v -0.725878894329071 -0.4465157687664032 -0.6737068891525269
v -0.725878894329071 -0.4465157687664032 1.5000330209732056
v -0.7671973705291748 -0.3654237687587738 -0.6737068891525269
v -0.7671973705291748 -0.3654237687587738 1.5000330209732056
v -0.7998130321502686 -0.2804570198059082 -0.6737068891525269
v -0.7998130321502686 -0.2804570198059082 1.5000330209732056
v -0.8233686089515686 -0.19254645705223083 -0.6737068891525269
v -0.8233686089515686 -0.19254645705223083 1.5000330209732056
v -0.8376059532165527 -0.10265525430440903 -0.6737068891525269
v -0.8376059532165527 -0.10265525430440903 1.5000330209732056
v -0.8423691391944885 -0.011768282391130924 -0.6737068891525269
v -0.8423691391944885 -0.011768282391130924 1.5000330209732056
v -0.8376059532165527 0.07911869138479233 -0.6737068891525269
v -0.8376059532165527 0.07911869138479233 1.5000330209732056
v -0.8233686089515686 0.16900989413261414 -0.6737068891525269
v -0.8233686089515686 0.16900989413261414 1.5000330209732056
v -0.7998130321502686 0.2569204568862915 -0.6737068891525269
v -0.7998130321502686 0.2569204568862915 1.5000330209732056
v -0.7671973705291748 0.3418872058391571 -0.6737068891525269
v -0.7671973705291748 0.3418872058391571 1.5000330209732056
v -0.725878894329071 0.4229792058467865 -0.6737068891525269
v -0.725878894329071 0.4229792058467865 1.5000330209732056
v -0.6763104200363159 0.4993080496788025 -0.6737068891525269
v -0.6763104200363159 0.4993080496788025 1.5000330209732056
v -0.6190348863601685 0.5700374245643616 -0.6737068891525269
v -0.6190348863601685 0.5700374245643616 1.5000330209732056
v -0.5546798706054688 0.6343924403190613 -0.6737068891525269
v -0.5546798706054688 0.6343924403190613 1.5000330209732056
v -0.48395049571990967 0.6916679739952087 -0.6737068891525269
v -0.48395049571990967 0.6916679739952087 1.5000330209732056
v -0.4076216518878937 0.7412364482879639 -0.6737068891525269
v -0.4076216518878937 0.7412364482879639 1.5000330209732056
v -0.3265296518802643 0.7825549244880676 -0.6737068891525269
v -0.3265296518802643 0.7825549244880676 1.5000330209732056
v -0.24156291782855988 0.8151705861091614 -0.6737068891525269
v -0.24156291782855988 0.8151705861091614 1.5000330209732056
v -0.1536523550748825 0.8387261629104614 -0.6737068891525269
v -0.1536523550748825 0.8387261629104614 1.5000330209732056
v -0.0637611448764801 0.8529635071754456 -0.6737068891525269
v -0.0637611448764801 0.8529635071754456 1.5000330209732056
f 1 2 3
f 1 4 2
f 1 3 4
f 2 4 3
f 5 6 7
f 5 1 6
f 5 7 1
f 6 1 7
f 8 9 10
f 8 11 9
f 8 10 11
f 9 11 10
f 12 13 14
f 12 15 13
f 12 14 15
f 13 15 14
f 16 5 17
f 16 7 5
f 16 17 7
f 5 7 17
f 18 4 19
f 18 20 4
f 18 19 20
f 4 20 19
f 21 22 23
f 21 24 22
f 21 23 24
f 22 24 23
f 25 26 27
f 25 28 26
f 25 27 28
f 26 28 27
f 29 30 31
f 29 32 30
f 29 31 32
f 30 32 31
f 33 34 35
f 33 36 34
f 33 35 36
f 34 36 35
f 37 38 39
f 37 40 38
f 37 39 40
f 38 40 39
f 41 42 43
f 41 44 42
f 41 43 44
f 42 44 43
f 45 46 47
f 45 48 46
f 45 47 48
f 46 48 47
f 32 49 50
f 32 51 49
f 32 50 51
f 49 51 50
f 52 53 54
f 52 55 53
f 52 54 55
f 53 55 54
f 56 57 58
f 56 59 57
f 56 58 59
f 57 59 58
f 60 61 62
f 60 63 61
f 60 62 63
f 61 63 62
f 64 65 66
f 64 67 65
f 64 66 67
f 65 67 66
f 68 69 70
f 68 71 69
f 68 70 71
f 69 71 70
f 72 73 74
f 72 75 73
f 72 74 75
f 73 75 74
f 76 77 78
f 76 79 77
f 76 78 79
f 77 79 78
f 80 81 82
f 80 83 81
f 80 82 83
f 81 83 82
f 84 85 80
f 84 86 85
f 84 80 86
f 85 86 80
f 87 88 89
f 87 90 88
f 87 89 90
f 88 90 89
f 91 92 93
f 91 94 92
f 91 93 94
f 92 94 93
f 95 96 97
f 95 98 96
f 95 97 98
f 96 98 97
f 99 100 101
f 99 102 100
f 99 101 102
f 100 102 101
f 103 104 105
f 103 106 104
f 103 105 106
f 104 106 105
f 107 108 109
f 107 110 108
f 107 109 110
f 108 110 109
f 111 112 94
f 111 113 112
f 111 94 113
f 112 113 94
f 114 115 117 116
f 116 117 119 118
f 118 119 121 120
f 120 121 123 122
f 122 123 125 124
f 124 125 127 126
f 126 127 129 128
f 128 129 131 130
f 130 131 133 132
f 132 133 135 134
f 134 135 137 136
f 136 137 139 138
f 138 139 141 140
f 140 141 143 142
f 142 143 145 144
f 144 145 147 146
f 146 147 149 148
f 148 149 151 150
f 150 151 153 152
f 152 153 155 154
f 154 155 157 156
f 156 157 159 158
f 158 159 161 160
f 160 161 163 162
f 162 163 165 164
f 164 165 167 166
f 166 167 169 168
f 168 169 171 170
f 170 171 173 172
f 172 173 175 174
f 174 175 177 176
f 176 177 179 178
f 178 179 181 180
f 180 181 183 182
f 182 183 185 184
f 184 185 187 186
f 186 187 189 188
f 188 189 191 190
f 190 191 193 192
f 192 193 195 194
f 194 195 197 196
f 196 197 199 198
f 198 199 201 200
f 200 201 203 202
f 202 203 205 204
f 204 205 207 206
f 206 207 209 208
f 208 209 211 210
f 210 211 213 212
f 212 213 215 214
f 214 215 217 216
f 216 217 219 218
f 218 219 221 220
f 220 221 223 222
f 222 223 225 224
f 224 225 227 226
f 226 227 229 228
f 228 229 231 230
f 230 231 233 232
f 232 233 115 114
f 114 116 118 120 122 124 126 128 130 132 134 136 138 140 142 144 146 148 150 152 154 156 158 160 162 164 166 168 170 172 174 176 178 180 182 184 186 188 190 192 194 196 198 200 202 204 206 208 210 212 214 216 218 220 222 224 226 228 230 232
f 233 231 229 227 225 223 221 219 217 215 213 211 209 207 205 203 201 199 197 195 193 191 189 187 185 183 181 179 177 175 173 171 169 167 165 163 161 159 157 155 153 151 149 147 145 143 141 139 137 135 133 131 129 127 125 123 121 119 117 115
