# Generated by Visualization Toolkit
v 0.977672 0.226784 1.39143
v 0.530467 0.851984 1.39143
v 0.779997 0.631567 0.0508766
v 0.293652 0.0191084 1.22916
v -0.134284 0.145911 0.462983
v 0.779358 0.632355 0.0479918
v 1.00352 -0.0145709 0.458145
v 0.97745 0.227738 1.38853
v -0.0628486 0.166733 0.432467
v 0.932975 0.209403 1.39143
v 0.641395 -0.771936 1.22404
v -0.123977 0.134947 0.454779
v 1.00148 0.065729 0.769895
v 0.167403 0.98957 0.241576
v 0.778871 0.632956 0.0582968
v -0.021105 0.182682 0.330729
v 1.00353 -0.0141276 0.457849
v 0.563509 0.8305 -0.0645393
v -0.0170196 0.141333 0.3562
v 0.936093 0.361943 -0.665028
v 0.38428 -0.00774592 1.39143
v -0.137862 0.153082 0.454806
v -0.446539 0.270494 1.39143
v 0.957215 -0.222674 -0.602113
v 1.00208 -0.0558252 0.585612
v -0.0170197 0.141333 0.3562
v -0.105909 -0.381591 -0.520587
v 0.993064 0.145248 -0.776566
v 0.304609 0.799643 0.139838
v 0.0409407 -0.141694 0.228981
v 0.887774 -0.227707 -0.456048
v 0.157106 -0.322746 0.751053
v 1.00357 -0.0113873 0.820172
v -0.144774 0.183434 0.418485
v -0.0388486 0.161151 0.296608
v -0.416178 0.255685 1.28916
v 0.16768 0.989523 0.242407
v 0.454315 0.0221927 -0.547232
v 0.353189 0.939431 0.217993
v 0.948527 0.327979 -0.691719
v 0.226535 0.977729 -1.11765
v 0.16768 0.989523 0.242408
v -0.315463 0.952762 1.39143
v -0.429389 0.247363 1.28773
v -0.0528973 -0.229053 -0.435303
v 1.0023 -0.0517104 -1.11765
v 0.965152 0.275234 -0.65996
v 0.226534 0.97773 -1.11765
v -0.0528967 -0.229053 -0.435303
v 0.244087 0.973496 0.0489499
v -0.644835 0.769065 0.606865
v -0.299071 0.958034 1.35461
v -0.0442262 0.0871963 0.269851
v -0.0139159 -0.410541 0.519889
v 0.984501 -0.195013 -0.458227
v 1.00338 -0.0225701 0.842755
v 0.644229 -0.769573 0.154473
v -0.0528969 -0.229053 -0.435303
v -0.0430831 -0.000320304 -1.11765
v 1.0023 -0.0517105 -1.11765
v -0.126564 -0.41172 -0.609306
v 0.405935 -0.0115465 -0.0633244
v 0.995996 0.12355 -0.88408
v 0.644229 -0.769573 0.154472
v 0.0579366 -0.148556 0.413048
v -0.994678 0.133747 0.0260763
v 0.163124 0.393567 -0.0906829
v -0.0225426 0.0701363 -0.981834
v 1.0023 -0.0517107 -1.11765
v 0.952563 -0.316065 -0.32342
v 0.486201 -0.877999 -1.11765
v -0.0430828 -0.000320422 -1.11765
v 0.650021 -0.764686 1.22295
v -0.0816323 -0.424378 0.585793
v 1.00332 -0.0251336 0.840244
v 0.40395 -0.00523248 -0.0651385
v -0.0629141 -0.441271 -0.546235
v -0.322338 -0.309907 0.728826
v -0.449109 0.271354 1.39143
v 0.891901 -0.177747 1.39143
v -0.120685 0.14123 0.457123
v 0.300601 -0.554702 0.899188
v -0.631119 0.78036 -0.816456
v 0.350493 0.94044 0.188936
v 0.0916766 0.1626 0.230415
v 0.245801 0.973065 -0.918233
v -0.576241 0.821717 0.596128
v 0.244694 0.973344 0.048313
v -0.304009 0.266187 -0.116397
v -0.631057 0.78041 -0.816418
v -0.14305 0.313707 -0.0492004
v -0.384117 -0.287631 0.714575
v -0.564435 0.454446 1.29342
v 0.318856 -0.590342 0.935349
v -0.167339 -0.989581 0.25767
v -0.241428 -0.346689 0.918677
v 0.0529467 -0.495061 -0.431429
v 0.647854 -0.766523 0.821926
v -0.583709 0.816429 0.407132
v -0.637749 0.774951 -0.993075
v -0.224819 0.157136 0.210168
v -0.013917 0.0695719 -0.990777
v -0.130574 -0.474917 -0.493995
v -0.994678 0.133747 0.0260756
v 0.0364484 -0.142793 0.405149
v -0.0596512 -0.519498 -0.442278
v -0.0430829 -0.000320379 -1.11765
v -0.697197 0.20586 -0.195621
v 0.245747 0.973078 -0.918278
v 0.164032 0.395155 -0.0863071
v -0.0465467 0.0283133 -1.09707
v 0.129305 0.0776443 1.39143
v 0.745796 -0.671611 1.39143
v -0.00622207 -1.00361 1.39143
v 0.124141 -0.995923 0.470868
v 0.223141 -0.97851 0.268244
v -0.0596515 -0.519498 -0.442278
v -0.423498 0.909903 -1.11765
v -0.710576 0.245897 -0.156353
v -0.0430832 -0.000320181 -1.11765
v 0.240047 0.969051 -0.913562
v -0.540355 0.179312 1.215
v -0.229772 -0.36319 0.222648
v -0.994678 0.133747 0.0260764
v -0.583659 0.816465 0.407162
v -0.900736 -0.332827 0.787204
v -0.855956 0.524035 -0.018343
v -0.268645 0.854064 1.2251
v -0.909025 0.425379 1.39143
v -0.234825 -0.386274 0.86916
v -0.994678 0.133746 0.0260769
v -0.167639 -0.98953 0.258993
v 0.0457018 -0.513529 -0.409935
v -0.994678 0.133746 0.0260762
v -0.965704 -0.273293 0.635621
v -0.326294 0.0272284 1.22906
v -0.167637 -0.989531 0.258996
v 0.129305 0.0776442 1.39143
v -0.0062221 -1.00361 1.39143
v -0.683005 -0.735375 1.39143
v -0.298501 0.610821 -1.11765
v 0.0546788 -0.234237 -1.11765
v -0.369866 -0.479505 -0.220273
v -0.659476 -0.756547 -1.11765
v -0.952668 0.315749 -1.11765
v -0.994678 0.133748 0.026075
v -0.431932 0.846404 -1.0581
v -0.368096 -0.359212 -0.321613
v -1.00355 -0.0129428 0.174696
v -0.742412 -0.675349 -1.0472
v -0.320419 -0.443041 -0.106751
v 0.4862 -0.877999 -1.11765
v -0.659476 -0.756548 -1.11765
v 0.0847273 -0.21226 -1.11765
v 0.0767613 -1.00069 -0.127249
v 0.155525 -0.991506 -0.0659703
v 0.0124202 -0.265143 -1.11765
v -0.418027 -0.49566 0.0420623
v -0.536768 -0.848029 0.262572
v 0.20433 -0.98261 0.413186
v -0.0604882 -0.0395429 1.32064
v -0.53019 -0.844825 0.245117
v -0.969697 -0.258766 0.648709
v -0.0468026 -0.0301737 1.2952
v 0.129305 0.0776445 1.39143
v -0.941166 -0.348538 0.763808
v -0.705935 -0.713393 -1.09596
v -0.903619 -0.075857 0.133526
v 0.155526 -0.991506 -0.0659694
v -0.640795 -0.772435 0.315516
v -0.369866 -0.479506 -0.220273
v 0.023374782875180244 1.0040130615234375 -1.1343826055526733
v 0.023374782875180244 1.0040130615234375 1.3746873140335083
v 0.12828268110752106 0.9985149502754211 -1.1343826055526733
v 0.12828268110752106 0.9985149502754211 1.3746873140335083
v 0.23204119503498077 0.9820812344551086 -1.1343826055526733
v 0.23204119503498077 0.9820812344551086 1.3746873140335083
v 0.3335135281085968 0.9548918008804321 -1.1343826055526733
v 0.3335135281085968 0.9548918008804321 1.3746873140335083
v 0.43158790469169617 0.9172446131706238 -1.1343826055526733
v 0.43158790469169617 0.9172446131706238 1.3746873140335083
v 0.5251898169517517 0.8695520162582397 -1.1343826055526733
v 0.5251898169517517 0.8695520162582397 1.3746873140335083
v 0.6132937073707581 0.8123366832733154 -1.1343826055526733
v 0.6132937073707581 0.8123366832733154 1.3746873140335083
v 0.6949343681335449 0.7462254166603088 -1.1343826055526733
v 0.6949343681335449 0.7462254166603088 1.3746873140335083
v 0.7692172527313232 0.6719425320625305 -1.1343826055526733
v 0.7692172527313232 0.6719425320625305 1.3746873140335083
v 0.8353285193443298 0.5903018712997437 -1.1343826055526733
v 0.8353285193443298 0.5903018712997437 1.3746873140335083
v 0.8925438523292542 0.5021979808807373 -1.1343826055526733
v 0.8925438523292542 0.5021979808807373 1.3746873140335083
v 0.9402364492416382 0.40859606862068176 -1.1343826055526733
v 0.9402364492416382 0.40859606862068176 1.3746873140335083
v 0.9778836369514465 0.3105216920375824 -1.1343826055526733
v 0.9778836369514465 0.3105216920375824 1.3746873140335083
v 1.005073070526123 0.20904938876628876 -1.1343826055526733
v 1.005073070526123 0.20904938876628876 1.3746873140335083
v 1.0215067863464355 0.10529086738824844 -1.1343826055526733
v 1.0215067863464355 0.10529086738824844 1.3746873140335083
v 1.0270048379898071 0.00038296758430078626 -1.1343826055526733
v 1.0270048379898071 0.00038296758430078626 1.3746873140335083
v 1.0215067863464355 -0.10452493280172348 -1.1343826055526733
v 1.0215067863464355 -0.10452493280172348 1.3746873140335083
v 1.005073070526123 -0.2082834392786026 -1.1343826055526733
v 1.005073070526123 -0.2082834392786026 1.3746873140335083
v 0.9778836369514465 -0.30975577235221863 -1.1343826055526733
v 0.9778836369514465 -0.30975577235221863 1.3746873140335083
v 0.9402364492416382 -0.407830148935318 -1.1343826055526733
v 0.9402364492416382 -0.407830148935318 1.3746873140335083
v 0.8925438523292542 -0.5014320611953735 -1.1343826055526733
v 0.8925438523292542 -0.5014320611953735 1.3746873140335083
v 0.8353285193443298 -0.5895359516143799 -1.1343826055526733
v 0.8353285193443298 -0.5895359516143799 1.3746873140335083
v 0.7692172527313232 -0.6711766123771667 -1.1343826055526733
v 0.7692172527313232 -0.6711766123771667 1.3746873140335083
v 0.6949343681335449 -0.7454594969749451 -1.1343826055526733
v 0.6949343681335449 -0.7454594969749451 1.3746873140335083
v 0.6132937073707581 -0.8115707635879517 -1.1343826055526733
v 0.6132937073707581 -0.8115707635879517 1.3746873140335083
v 0.5251898169517517 -0.868786096572876 -1.1343826055526733
v 0.5251898169517517 -0.868786096572876 1.3746873140335083
v 0.43158790469169617 -0.91647869348526 -1.1343826055526733
v 0.43158790469169617 -0.91647869348526 1.3746873140335083
v 0.3335135281085968 -0.9541258811950684 -1.1343826055526733
v 0.3335135281085968 -0.9541258811950684 1.3746873140335083
v 0.23204119503498077 -0.9813153147697449 -1.1343826055526733
v 0.23204119503498077 -0.9813153147697449 1.3746873140335083
v 0.12828268110752106 -0.9977490305900574 -1.1343826055526733
v 0.12828268110752106 -0.9977490305900574 1.3746873140335083
v 0.023374782875180244 -1.0032470226287842 -1.1343826055526733
v 0.023374782875180244 -1.0032470226287842 1.3746873140335083
v -0.08153311908245087 -0.9977490305900574 -1.1343826055526733
v -0.08153311908245087 -0.9977490305900574 1.3746873140335083
v -0.18529163300991058 -0.9813153147697449 -1.1343826055526733
v -0.18529163300991058 -0.9813153147697449 1.3746873140335083
v -0.2867639362812042 -0.9541258811950684 -1.1343826055526733
v -0.2867639362812042 -0.9541258811950684 1.3746873140335083
v -0.3848383128643036 -0.91647869348526 -1.1343826055526733
v -0.3848383128643036 -0.91647869348526 1.3746873140335083
v -0.47844022512435913 -0.868786096572876 -1.1343826055526733
v -0.47844022512435913 -0.868786096572876 1.3746873140335083
v -0.5665441155433655 -0.8115707635879517 -1.1343826055526733
v -0.5665441155433655 -0.8115707635879517 1.3746873140335083
v -0.6481847763061523 -0.7454594969749451 -1.1343826055526733
v -0.6481847763061523 -0.7454594969749451 1.3746873140335083
v -0.7224676609039307 -0.6711766123771667 -1.1343826055526733
v -0.7224676609039307 -0.6711766123771667 1.3746873140335083
v -0.7885789275169373 -0.5895359516143799 -1.1343826055526733
v -0.7885789275169373 -0.5895359516143799 1.3746873140335083
v -0.8457942605018616 -0.5014320611953735 -1.1343826055526733
v -0.8457942605018616 -0.5014320611953735 1.3746873140335083
v -0.8934868574142456 -0.407830148935318 -1.1343826055526733
v -0.8934868574142456 -0.407830148935318 1.3746873140335083
v -0.931134045124054 -0.30975577235221863 -1.1343826055526733
v -0.931134045124054 -0.30975577235221863 1.3746873140335083
v -0.9583234786987305 -0.2082834392786026 -1.1343826055526733
v -0.9583234786987305 -0.2082834392786026 1.3746873140335083
v -0.974757194519043 -0.10452493280172348 -1.1343826055526733
v -0.974757194519043 -0.10452493280172348 1.3746873140335083
v -0.9802552461624146 0.00038296758430078626 -1.1343826055526733
v -0.9802552461624146 0.00038296758430078626 1.3746873140335083
v -0.974757194519043 0.10529086738824844 -1.1343826055526733
v -0.974757194519043 0.10529086738824844 1.3746873140335083
v -0.9583234786987305 0.20904938876628876 -1.1343826055526733
v -0.9583234786987305 0.20904938876628876 1.3746873140335083
v -0.931134045124054 0.3105216920375824 -1.1343826055526733
v -0.931134045124054 0.3105216920375824 1.3746873140335083
v -0.8934868574142456 0.40859606862068176 -1.1343826055526733
v -0.8934868574142456 0.40859606862068176 1.3746873140335083
v -0.8457942605018616 0.5021979808807373 -1.1343826055526733
v -0.8457942605018616 0.5021979808807373 1.3746873140335083
v -0.7885789275169373 0.5903018712997437 -1.1343826055526733
v -0.7885789275169373 0.5903018712997437 1.3746873140335083
v -0.7224676609039307 0.6719425320625305 -1.1343826055526733
v -0.7224676609039307 0.6719425320625305 1.3746873140335083
v -0.6481847763061523 0.7462254166603088 -1.1343826055526733
v -0.6481847763061523 0.7462254166603088 1.3746873140335083
v -0.5665441155433655 0.8123366832733154 -1.1343826055526733
v -0.5665441155433655 0.8123366832733154 1.3746873140335083
v -0.47844022512435913 0.8695520162582397 -1.1343826055526733
v -0.47844022512435913 0.8695520162582397 1.3746873140335083
v -0.3848383128643036 0.9172446131706238 -1.1343826055526733
v -0.3848383128643036 0.9172446131706238 1.3746873140335083
v -0.2867639362812042 0.9548918008804321 -1.1343826055526733
v -0.2867639362812042 0.9548918008804321 1.3746873140335083
v -0.18529163300991058 0.9820812344551086 -1.1343826055526733
v -0.18529163300991058 0.9820812344551086 1.3746873140335083
v -0.08153311908245087 0.9985149502754211 -1.1343826055526733
v -0.08153311908245087 0.9985149502754211 1.3746873140335083
f 1 2 3
f 1 4 2
f 1 3 4
f 2 4 3
f 4 5 2
f 4 3 5
f 4 2 3
f 5 3 2
f 6 7 8
f 6 9 7
f 6 8 9
f 7 9 8
f 10 11 12
f 10 13 11
f 10 12 13
f 11 13 12
f 14 15 16
f 14 2 15
f 14 16 2
f 15 2 16
f 17 18 19
f 17 20 18
f 17 19 20
f 18 20 19
f 21 2 22
f 21 23 2
f 21 22 23
f 2 23 22
f 24 25 26
f 24 20 25
f 24 26 20
f 25 20 26
f 27 28 29
f 27 30 28
f 27 29 30
f 28 30 29
f 31 32 33
f 31 34 32
f 31 33 34
f 32 34 33
f 35 2 36
f 35 37 2
f 35 36 37
f 2 37 36
f 38 39 40
f 38 41 39
f 38 40 41
f 39 41 40
f 42 43 44
f 42 2 43
f 42 44 2
f 43 2 44
f 39 45 41
f 39 38 45
f 39 41 38
f 45 38 41
f 46 47 48
f 46 49 47
f 46 48 49
f 47 49 48
f 50 51 52
f 50 53 51
f 50 52 53
f 51 53 52
f 54 55 56
f 54 57 55
f 54 56 57
f 55 57 56
f 58 59 60
f 58 48 59
f 58 60 48
f 59 48 60
f 61 62 63
f 61 64 62
f 61 63 64
f 62 64 63
f 65 66 67
f 65 68 66
f 65 67 68
f 66 68 67
f 69 70 71
f 69 72 70
f 69 71 72
f 70 72 71
f 73 57 74
f 73 75 57
f 73 74 75
f 57 75 74
f 76 77 78
f 76 64 77
f 76 78 64
f 77 64 78
f 79 80 81
f 79 82 80
f 79 81 82
f 80 82 81
f 83 84 85
f 83 86 84
f 83 85 86
f 84 86 85
f 87 88 89
f 87 90 88
f 87 89 90
f 88 90 89
f 91 92 93
f 91 94 92
f 91 93 94
f 92 94 93
f 95 96 97
f 95 98 96
f 95 97 98
f 96 98 97
f 66 99 100
f 66 101 99
f 66 100 101
f 99 101 100
f 102 103 104
f 102 105 103
f 102 104 105
f 103 105 104
f 106 71 107
f 106 70 71
f 106 107 70
f 71 70 107
f 108 109 110
f 108 111 109
f 108 110 111
f 109 111 110
f 112 113 114
f 112 115 113
f 112 114 115
f 113 115 114
f 116 71 117
f 116 70 71
f 116 117 70
f 71 70 117
f 118 119 120
f 118 121 119
f 118 120 121
f 119 121 120
f 122 123 124
f 122 125 123
f 122 124 125
f 123 125 124
f 126 127 128
f 126 129 127
f 126 128 129
f 127 129 128
f 130 131 132
f 130 133 131
f 130 132 133
f 131 133 132
f 134 135 136
f 134 137 135
f 134 136 137
f 135 137 136
f 138 115 139
f 138 140 115
f 138 139 140
f 115 140 139
f 141 142 143
f 141 144 142
f 141 143 144
f 142 144 143
f 145 146 147
f 145 148 146
f 145 147 148
f 146 148 147
f 149 145 150
f 149 151 145
f 149 150 151
f 145 151 150
f 152 153 154
f 152 155 153
f 152 154 155
f 153 155 154
f 156 157 158
f 156 144 157
f 156 158 144
f 157 144 158
f 159 140 160
f 159 161 140
f 159 160 161
f 140 161 160
f 162 140 163
f 162 164 140
f 162 163 164
f 140 164 163
f 165 129 140
f 165 166 129
f 165 140 166
f 129 166 140
f 167 168 169
f 167 170 168
f 167 169 170
f 168 170 169
f 171 141 144
f 171 145 141
f 171 144 145
f 141 145 144
f 172 173 175 174
f 174 175 177 176
f 176 177 179 178
f 178 179 181 180
f 180 181 183 182
f 182 183 185 184
f 184 185 187 186
f 186 187 189 188
f 188 189 191 190
f 190 191 193 192
f 192 193 195 194
f 194 195 197 196
f 196 197 199 198
f 198 199 201 200
f 200 201 203 202
f 202 203 205 204
f 204 205 207 206
f 206 207 209 208
f 208 209 211 210
f 210 211 213 212
f 212 213 215 214
f 214 215 217 216
f 216 217 219 218
f 218 219 221 220
f 220 221 223 222
f 222 223 225 224
f 224 225 227 226
f 226 227 229 228
f 228 229 231 230
f 230 231 233 232
f 232 233 235 234
f 234 235 237 236
f 236 237 239 238
f 238 239 241 240
f 240 241 243 242
f 242 243 245 244
f 244 245 247 246
f 246 247 249 248
f 248 249 251 250
f 250 251 253 252
f 252 253 255 254
f 254 255 257 256
f 256 257 259 258
f 258 259 261 260
f 260 261 263 262
f 262 263 265 264
f 264 265 267 266
f 266 267 269 268
f 268 269 271 270
f 270 271 273 272
f 272 273 275 274
f 274 275 277 276
f 276 277 279 278
f 278 279 281 280
f 280 281 283 282
f 282 283 285 284
f 284 285 287 286
f 286 287 289 288
f 288 289 291 290
f 290 291 173 172
f 172 174 176 178 180 182 184 186 188 190 192 194 196 198 200 202 204 206 208 210 212 214 216 218 220 222 224 226 228 230 232 234 236 238 240 242 244 246 248 250 252 254 256 258 260 262 264 266 268 270 272 274 276 278 280 282 284 286 288 290
f 291 289 287 285 283 281 279 277 275 273 271 269 267 265 263 261 259 257 255 253 251 249 247 245 243 241 239 237 235 233 231 229 227 225 223 221 219 217 215 213 211 209 207 205 203 201 199 197 195 193 191 189 187 185 183 181 179 177 175 173
