# Generated by Visualization Toolkit
v 19.1188 19.0688 20.4475
v 19.5638 19.7634 19.515
v 19.479 19.0984 19.4898
v 20.0149 19.8914 20.286
v 20.2382 19.9096 19.0688
v 20.9312 19.6862 19.0688
v 20.9312 20.6727 19.7669
v 20.9312 20.9312 19.0688
v 20.1987 19.1231 20.5641
v 20.8724 19.0688 20.8826
v 20.9239 19.9982 20.0558
v 20.1108 19.0688 19.8978
v 20.8762 19.9048 19.7416
v 20.9312 20.9312 20.3761
v 20.222 20.6881 19.8566
v 20.9312 20.4607 20.8542
v 19.3961 20.1543 20.0112
v 19.6193 20.9312 20.9312
v 20.4126 20.8722 19.9735
v 19.2515 20.7913 20.388
v 19.4015 19.0901 19.4458
v 19.6031 20.3152 19.3541
v 20.1003 20.0534 19.8115
v 20.5443 19.5485 19.6302
v 20.2642 19.3878 20.3379
v 20.0274 19.0688 19.7008
v 20.2403 19.0688 20.9275
v 19.0715 19.0688 20.4986
v 20.1232 19.1315 19.8678
v 20.9312 19.0688 19.0688
v 20.8887 19.7377 19.0955
v 20.9312 20.0052 19.8893
v 19.0688 19.5875 19.0688
v 19.806 20.5156 19.4498
v 20.1444 19.8577 19.0688
v 19.335 20.8036 19.0688
v 19.7929 20.9312 20.0932
v 19.8441 20.9312 19.0688
v 20.9312 20.9312 19.6756
v 19.8267 20.3889 19.4861
v 19.2913 19.5028 20.0227
v 19.6949 20.1049 19.9971
v 19.0688 20.7277 20.0216
v 19.0688 20.0917 19.0907
v 19.0688 20.9312 20.9312
v 19.8768 20.0352 20.9312
v 20.2374 20.9312 20.9312
v 19.9059 20.3963 20.2978
v 20.3937 20.6371 20.1052
v 20.7464 20.5641 20.6712
v 19.8106 19.9228 20.1584
v 20.8555 19.8575 19.6519
v 20.0386 19.7161 19.8317
v 19.6726 20.7867 19.3123
v 19.0957 19.7106 19.0688
v 19.7336 20.4187 19.8699
v 19.8279 20.7827 19.9634
v 19.1851 20.0387 19.1996
v 19.0688 20.9312 19.9931
v 19.0688 20.9312 19.0688
v 19.754 19.8606 19.7233
v 19.2592 20.7918 20.3852
v 19.0688 20.3293 19.4385
v 19.9667 20.8411 20.1326
v 20.2161 19.1938 19.8392
v 19.791 19.4047 20.376
v 20.8265 19.8955 19.8894
v 20.6382 19.6172 20.9312
v 20.174 19.7352 20.9312
v 20.2505 19.0688 20.9312
v 19.537 19.3653 20.1131
v 19.1224 19.0688 20.9312
v 19.7633 19.2713 20.3726
v 20.1097 20.2951 20.9312
v 20.8752 19.3133 20.9312
v 19.5799 20.3644 20.9312
v 19.0688 19.5411 20.9312
v 19.0688 19.8298 19.9974
v 19.0688 20.7794 20.8025
v 19.326 19.0688 19.0688
v 19.5665 19.8028 19.1151
v 20.571 19.0688 19.0688
v 20.3597 19.0688 19.726
v 20.4383 20.564 20.0621
v 20.8552 19.8573 19.652
v 19.8305 19.5534 20.0362
v 19.8662 20.6109 19.715
v 19.5513 19.2168 19.631
v 19.7426 19.3022 20.3519
v 20.695 19.7076 19.6602
v 19.9113 19.8986 20.6084
v 19.7288 19.8477 19.6882
v 19.0688 19.0688 20.3183
v 19.746 19.9148 20.9312
v 19.0694 19.6084 20.7167
v 19.6313 20.583 20.4921
v 19.8395 19.9693 20.9142
v 19.0788 19.5573 20.9312
v 19.108 19.8391 19.9152
v 20.8929 19.968 20.071
v 20.9312 19.0688 20.9312
v 20.189 19.0849 20.5951
v 20.9312 19.9747 20.9312
v 20.9312 19.6176 20.4351
v 20.9312 19.0688 19.3176
v 20.9312 20.02 19.8983
v 20.155 19.0971 19.8267
v 20.9312 20.6725 19.7671
v 20.0879 20.9312 19.0688
v 20.5576 19.5392 19.6339
v 19.4047 19.1092 19.4443
v 19.5976 20.2819 19.3566
v 20.189 20.0334 19.1604
v 19.3875 19.0688 19.6975
v 19.0688 20.2675 19.8048
v 19.0688 19.128 20.3064
v 19.0688 19.2633 19.0688
v 20.809 19.0688 20.8006
v 20.9312 19.6161 20.4325
v 20.0473 19.0688 19.8158
v 20.9312 19.0688 19.5616
v 19.7904 20.6745 19.2323
v 20.4693 19.7179 19.6497
v 19.8842 20.1872 19.6837
v 20.9205 20.8765 19.7141
v 19.6861 19.7972 19.7266
v 19.8346 19.5201 20.9312
v 19.9629 20.1765 20.8796
v 19.1825 19.2216 20.709
v 19.4546 20.1949 20.008
v 20.2514 20.8 20.7489
v 20.4585 20.9312 20.0116
v 19.8797 19.9013 20.7293
v 20.2835 20.6807 20.9162
v 20.9071 20.0504 20.0422
v 19.908 19.858 20.0605
v 19.8385 20.5601 19.9742
v 19.1985 19.8104 19.2137
v 19.7331 20.9312 19.3029
v 20.2197 19.1613 19.743
v 20.704 19.8952 19.461
v 19.6148 19.7752 19.0947
v 20.6396 19.0688 19.0688
v 19.195 20.9312 20.7332
v 20.302 20.9312 20.1636
v 19.3069 20.4507 19.5901
v 19.0688 19.9816 20.1261
v 19.6169 20.3234 20.9312
v 19.8449 19.8227 20.6222
v 20.6986 19.7908 19.7166
v 20.4381 19.8739 20.9312
v 20.9287 20.418 20.7672
v 19.5216 19.085 19.1908
v 20.154 19.0688 19.5952
v 20.2988 19.5394 20.0507
v 19.1981 19.0688 20.3929
v 20.287 19.7018 19.0846
v 20.091 20.9312 19.0714
v 19.4819 20.6513 19.0969
v 20.6171 20.7914 19.5884
v 19.9631 20.5996 19.6671
v 20.891 19.9264 19.7621
v 20.8706 20.9312 19.708
v 19.8757 19.8873 20.7233
v 20.9312 20.5051 20.9312
v 20.8881 20.0491 20.0559
v 20.2899 20.7019 20.9312
v 20.9312 20.3076 20.9312
v 20.0738 19.4682 20.5991
v 20.8524 19.9337 19.7463
v 19.83 20.4486 19.7695
v 20.5326 20.9312 19.9458
v 20.1633 20.7472 20.9312
v 19.9129 19.914 20.3079
v 20.0537 20.2273 20.8664
v 19.1266 19.5845 20.3399
v 19.8975 20.5211 20.0598
v 19.78 19.8811 19.7042
v 19.3554 19.0688 19.246
v 19.3187 19.4351 20.1325
v 19.0688 20.0833 19.0994
v 19.6186 20.1033 19.8866
v 20.7806 19.6142 19.0688
v 20.9312 20.6439 19.7465
v 19.8387 20.2419 19.3052
v 20.9312 19.9738 19.7769
v 20.9312 20.6908 20.7725
v 20.2704 20.9312 20.9312
v 19.9954 20.0495 20.2597
v 19.08292007446289 19.077850341796875 19.078857421875
v 19.08292007446289 19.077850341796875 20.941295623779297
v 19.08292007446289 20.940290451049805 20.941295623779297
v 19.08292007446289 20.940290451049805 19.078857421875
v 20.94536018371582 19.077850341796875 19.078857421875
v 20.94536018371582 20.940290451049805 19.078857421875
v 20.94536018371582 20.940290451049805 20.941295623779297
v 20.94536018371582 19.077850341796875 20.941295623779297
f 1 2 3
f 1 4 2
f 1 3 4
f 2 4 3
f 5 6 7
f 5 8 6
f 5 7 8
f 6 8 7
f 9 10 11
f 9 12 10
f 9 11 12
f 10 12 11
f 13 14 15
f 13 16 14
f 13 15 16
f 14 16 15
f 17 18 19
f 17 20 18
f 17 19 20
f 18 20 19
f 21 22 23
f 21 24 22
f 21 23 24
f 22 24 23
f 25 26 27
f 25 28 26
f 25 27 28
f 26 28 27
f 29 30 31
f 29 32 30
f 29 31 32
f 30 32 31
f 33 34 35
f 33 36 34
f 33 35 36
f 34 36 35
f 37 38 39
f 37 40 38
f 37 39 40
f 38 40 39
f 41 42 43
f 41 44 42
f 41 43 44
f 42 44 43
f 45 46 47
f 45 48 46
f 45 47 48
f 46 48 47
f 49 50 51
f 49 52 50
f 49 51 52
f 50 52 51
f 53 54 55
f 53 56 54
f 53 55 56
f 54 56 55
f 57 58 59
f 57 60 58
f 57 59 60
f 58 60 59
f 61 62 63
f 61 64 62
f 61 63 64
f 62 64 63
f 65 66 67
f 65 68 66
f 65 67 68
f 66 68 67
f 69 70 71
f 69 72 70
f 69 71 72
f 70 72 71
f 73 70 74
f 73 75 70
f 73 74 75
f 70 75 74
f 76 77 78
f 76 79 77
f 76 78 79
f 77 79 78
f 80 81 82
f 80 83 81
f 80 82 83
f 81 83 82
f 84 85 86
f 84 87 85
f 84 86 87
f 85 87 86
f 88 89 90
f 88 91 89
f 88 90 91
f 89 91 90
f 92 93 94
f 92 95 93
f 92 94 95
f 93 95 94
f 96 97 98
f 96 99 97
f 96 98 99
f 97 99 98
f 100 101 102
f 100 103 101
f 100 102 103
f 101 103 102
f 104 105 106
f 104 107 105
f 104 106 107
f 105 107 106
f 108 8 5
f 108 109 8
f 108 5 109
f 8 109 5
f 110 111 112
f 110 113 111
f 110 112 113
f 111 113 112
f 114 115 116
f 114 117 115
f 114 116 117
f 115 117 116
f 118 119 120
f 118 121 119
f 118 120 121
f 119 121 120
f 122 123 124
f 122 125 123
f 122 124 125
f 123 125 124
f 126 127 128
f 126 129 127
f 126 128 129
f 127 129 128
f 130 18 131
f 130 132 18
f 130 131 132
f 18 132 131
f 133 134 135
f 133 136 134
f 133 135 136
f 134 136 135
f 137 138 60
f 137 139 138
f 137 60 139
f 138 139 60
f 140 141 142
f 140 143 141
f 140 142 143
f 141 143 142
f 144 59 145
f 144 146 59
f 144 145 146
f 59 146 145
f 147 59 148
f 147 45 59
f 147 148 45
f 59 45 148
f 149 150 151
f 149 152 150
f 149 151 152
f 150 152 151
f 153 154 155
f 153 156 154
f 153 155 156
f 154 156 155
f 157 158 159
f 157 160 158
f 157 159 160
f 158 160 159
f 161 162 163
f 161 14 162
f 161 163 14
f 162 14 163
f 164 165 166
f 164 167 165
f 164 166 167
f 165 167 166
f 168 169 170
f 168 68 169
f 168 170 68
f 169 68 170
f 171 172 173
f 171 174 172
f 171 173 174
f 172 174 173
f 175 176 177
f 175 178 176
f 175 177 178
f 176 178 177
f 179 180 181
f 179 182 180
f 179 181 182
f 180 182 181
f 183 184 185
f 183 186 184
f 183 185 186
f 184 186 185
f 187 172 188
f 187 189 172
f 187 188 189
f 172 189 188
f 190 191 192 193
f 194 195 196 197
f 190 194 197 191
f 193 192 196 195
f 190 193 195 194
f 191 197 196 192
