# Generated by Visualization Toolkit
v 0.328241 0.5143 1.1296
v -0.587144 0.165849 0.265952
v 0.461729 0.190133 0.595416
v -0.212495 -0.57192 1.1296
v 0.147123 0.592116 -0.3957
v -0.374425 0.481719 0.880162
v 0.414839 0.447387 0.981755
v 0.595215 -0.134035 0.0612324
v 0.595214 -0.134035 0.0612327
v -0.587146 0.165851 0.265953
v 0.0936171 0.602895 -0.395702
v -0.587143 0.165849 0.265951
v 0.595215 -0.134036 0.0612334
v 0.546185 -0.271898 1.1296
v 0.328243 0.514299 1.1296
v 0.595215 -0.134036 0.0612345
v 0.0180964 -0.609853 -0.298205
v -0.0881648 -0.603717 1.10845
v 0.549937 -0.264228 0.273739
v -0.499533 -0.00667904 0.467915
v 0.545263 -0.273744 0.259591
v -0.487248 -0.0209944 0.449731
v 0.0632535 -0.606834 -0.395702
v 0.557549 0.247766 -0.395702
v -0.487247 -0.0209947 0.44973
v -0.240007 0.560936 -0.395702
v 0.0632528 -0.606834 -0.395702
v 0.557549 0.247767 -0.395701
v -0.587147 0.165847 0.26595
v -0.212496 -0.57192 1.1296
v -0.546186 0.271898 1.1296
v 0.0632525 -0.606834 -0.395702
v -0.240006 0.560936 -0.395702
v -0.590535 -0.153359 -0.395702
v -0.570371 -0.216623 0.733955
v 0.005306262522935867 0.6100021600723267 -0.3902515470981598
v 0.005306262522935867 0.6100021600723267 1.135048508644104
v 0.06908117234706879 0.6066598892211914 -0.3902515470981598
v 0.06908117234706879 0.6066598892211914 1.135048508644104
v 0.1321573406457901 0.5966695547103882 -0.3902515470981598
v 0.1321573406457901 0.5966695547103882 1.135048508644104
v 0.19384370744228363 0.5801407694816589 -0.3902515470981598
v 0.19384370744228363 0.5801407694816589 1.135048508644104
v 0.2534644305706024 0.5572544932365417 -0.3902515470981598
v 0.2534644305706024 0.5572544932365417 1.135048508644104
v 0.31036627292633057 0.5282616019248962 -0.3902515470981598
v 0.31036627292633057 0.5282616019248962 1.135048508644104
v 0.3639258146286011 0.49347957968711853 -0.3902515470981598
v 0.3639258146286011 0.49347957968711853 1.135048508644104
v 0.4135562479496002 0.453289657831192 -0.3902515470981598
v 0.4135562479496002 0.453289657831192 1.135048508644104
v 0.4587137997150421 0.4081321060657501 -0.3902515470981598
v 0.4587137997150421 0.4081321060657501 1.135048508644104
v 0.49890372157096863 0.358501672744751 -0.3902515470981598
v 0.49890372157096863 0.358501672744751 1.135048508644104
v 0.5336856842041016 0.30494213104248047 -0.3902515470981598
v 0.5336856842041016 0.30494213104248047 1.135048508644104
v 0.5626785755157471 0.2480403035879135 -0.3902515470981598
v 0.5626785755157471 0.2480403035879135 1.135048508644104
v 0.5855648517608643 0.18841959536075592 -0.3902515470981598
v 0.5855648517608643 0.18841959536075592 1.135048508644104
v 0.6020936369895935 0.1267332285642624 -0.3902515470981598
v 0.6020936369895935 0.1267332285642624 1.135048508644104
v 0.6120839715003967 0.06365705281496048 -0.3902515470981598
v 0.6120839715003967 0.06365705281496048 1.135048508644104
v 0.615426242351532 -0.00011785350216086954 -0.3902515470981598
v 0.615426242351532 -0.00011785350216086954 1.135048508644104
v 0.6120839715003967 -0.06389275938272476 -0.3902515470981598
v 0.6120839715003967 -0.06389275938272476 1.135048508644104
v 0.6020936369895935 -0.12696893513202667 -0.3902515470981598
v 0.6020936369895935 -0.12696893513202667 1.135048508644104
v 0.5855648517608643 -0.1886553019285202 -0.3902515470981598
v 0.5855648517608643 -0.1886553019285202 1.135048508644104
v 0.5626785755157471 -0.2482760101556778 -0.3902515470981598
v 0.5626785755157471 -0.2482760101556778 1.135048508644104
v 0.5336856842041016 -0.30517786741256714 -0.3902515470981598
v 0.5336856842041016 -0.30517786741256714 1.135048508644104
v 0.49890372157096863 -0.35873740911483765 -0.3902515470981598
v 0.49890372157096863 -0.35873740911483765 1.135048508644104
v 0.4587137997150421 -0.4083678424358368 -0.3902515470981598
v 0.4587137997150421 -0.4083678424358368 1.135048508644104
v 0.4135562479496002 -0.4535253942012787 -0.3902515470981598
v 0.4135562479496002 -0.4535253942012787 1.135048508644104
v 0.3639258146286011 -0.4937153160572052 -0.3902515470981598
v 0.3639258146286011 -0.4937153160572052 1.135048508644104
v 0.31036627292633057 -0.5284972786903381 -0.3902515470981598
v 0.31036627292633057 -0.5284972786903381 1.135048508644104
v 0.2534644305706024 -0.5574901700019836 -0.3902515470981598
v 0.2534644305706024 -0.5574901700019836 1.135048508644104
v 0.19384370744228363 -0.5803764462471008 -0.3902515470981598
v 0.19384370744228363 -0.5803764462471008 1.135048508644104
v 0.1321573406457901 -0.5969052314758301 -0.3902515470981598
v 0.1321573406457901 -0.5969052314758301 1.135048508644104
v 0.06908117234706879 -0.6068955659866333 -0.3902515470981598
v 0.06908117234706879 -0.6068955659866333 1.135048508644104
v 0.005306262522935867 -0.6102378368377686 -0.3902515470981598
v 0.005306262522935867 -0.6102378368377686 1.135048508644104
v -0.058468643575906754 -0.6068955659866333 -0.3902515470981598
v -0.058468643575906754 -0.6068955659866333 1.135048508644104
v -0.12154482305049896 -0.5969052314758301 -0.3902515470981598
v -0.12154482305049896 -0.5969052314758301 1.135048508644104
v -0.1832311898469925 -0.5803764462471008 -0.3902515470981598
v -0.1832311898469925 -0.5803764462471008 1.135048508644104
v -0.24285189807415009 -0.5574901700019836 -0.3902515470981598
v -0.24285189807415009 -0.5574901700019836 1.135048508644104
v -0.29975372552871704 -0.5284972786903381 -0.3902515470981598
v -0.29975372552871704 -0.5284972786903381 1.135048508644104
v -0.35331326723098755 -0.4937153160572052 -0.3902515470981598
v -0.35331326723098755 -0.4937153160572052 1.135048508644104
v -0.4029437005519867 -0.4535253942012787 -0.3902515470981598
v -0.4029437005519867 -0.4535253942012787 1.135048508644104
v -0.4481012523174286 -0.4083678424358368 -0.3902515470981598
v -0.4481012523174286 -0.4083678424358368 1.135048508644104
v -0.4882911741733551 -0.35873740911483765 -0.3902515470981598
v -0.4882911741733551 -0.35873740911483765 1.135048508644104
v -0.5230731964111328 -0.30517786741256714 -0.3902515470981598
v -0.5230731964111328 -0.30517786741256714 1.135048508644104
v -0.5520660877227783 -0.2482760101556778 -0.3902515470981598
v -0.5520660877227783 -0.2482760101556778 1.135048508644104
v -0.5749523639678955 -0.1886553019285202 -0.3902515470981598
v -0.5749523639678955 -0.1886553019285202 1.135048508644104
v -0.5914811491966248 -0.12696893513202667 -0.3902515470981598
v -0.5914811491966248 -0.12696893513202667 1.135048508644104
v -0.601471483707428 -0.06389275938272476 -0.3902515470981598
v -0.601471483707428 -0.06389275938272476 1.135048508644104
v -0.6048137545585632 -0.00011785350216086954 -0.3902515470981598
v -0.6048137545585632 -0.00011785350216086954 1.135048508644104
v -0.601471483707428 0.06365705281496048 -0.3902515470981598
v -0.601471483707428 0.06365705281496048 1.135048508644104
v -0.5914811491966248 0.1267332285642624 -0.3902515470981598
v -0.5914811491966248 0.1267332285642624 1.135048508644104
v -0.5749523639678955 0.18841959536075592 -0.3902515470981598
v -0.5749523639678955 0.18841959536075592 1.135048508644104
v -0.5520660877227783 0.2480403035879135 -0.3902515470981598
v -0.5520660877227783 0.2480403035879135 1.135048508644104
v -0.5230731964111328 0.30494213104248047 -0.3902515470981598
v -0.5230731964111328 0.30494213104248047 1.135048508644104
v -0.4882911741733551 0.358501672744751 -0.3902515470981598
v -0.4882911741733551 0.358501672744751 1.135048508644104
v -0.4481012523174286 0.4081321060657501 -0.3902515470981598
v -0.4481012523174286 0.4081321060657501 1.135048508644104
v -0.4029437005519867 0.453289657831192 -0.3902515470981598
v -0.4029437005519867 0.453289657831192 1.135048508644104
v -0.35331326723098755 0.49347957968711853 -0.3902515470981598
v -0.35331326723098755 0.49347957968711853 1.135048508644104
v -0.29975372552871704 0.5282616019248962 -0.3902515470981598
v -0.29975372552871704 0.5282616019248962 1.135048508644104
v -0.24285189807415009 0.5572544932365417 -0.3902515470981598
v -0.24285189807415009 0.5572544932365417 1.135048508644104
v -0.1832311898469925 0.5801407694816589 -0.3902515470981598
v -0.1832311898469925 0.5801407694816589 1.135048508644104
v -0.12154482305049896 0.5966695547103882 -0.3902515470981598
v -0.12154482305049896 0.5966695547103882 1.135048508644104
v -0.058468643575906754 0.6066598892211914 -0.3902515470981598
v -0.058468643575906754 0.6066598892211914 1.135048508644104
f 1 2 3
f 1 4 2
f 1 3 4
f 2 4 3
f 5 6 7
f 5 8 6
f 5 7 8
f 6 8 7
f 9 6 10
f 9 11 6
f 9 10 11
f 6 11 10
f 12 3 13
f 12 4 3
f 12 13 4
f 3 4 13
f 14 15 4
f 14 16 15
f 14 4 16
f 15 16 4
f 17 18 19
f 17 20 18
f 17 19 20
f 18 20 19
f 21 22 23
f 21 24 22
f 21 23 24
f 22 24 23
f 25 26 27
f 25 28 26
f 25 27 28
f 26 28 27
f 29 1 30
f 29 31 1
f 29 30 31
f 1 31 30
f 32 33 34
f 32 35 33
f 32 34 35
f 33 35 34
f 36 37 39 38
f 38 39 41 40
f 40 41 43 42
f 42 43 45 44
f 44 45 47 46
f 46 47 49 48
f 48 49 51 50
f 50 51 53 52
f 52 53 55 54
f 54 55 57 56
f 56 57 59 58
f 58 59 61 60
f 60 61 63 62
f 62 63 65 64
f 64 65 67 66
f 66 67 69 68
f 68 69 71 70
f 70 71 73 72
f 72 73 75 74
f 74 75 77 76
f 76 77 79 78
f 78 79 81 80
f 80 81 83 82
f 82 83 85 84
f 84 85 87 86
f 86 87 89 88
f 88 89 91 90
f 90 91 93 92
f 92 93 95 94
f 94 95 97 96
f 96 97 99 98
f 98 99 101 100
f 100 101 103 102
f 102 103 105 104
f 104 105 107 106
f 106 107 109 108
f 108 109 111 110
f 110 111 113 112
f 112 113 115 114
f 114 115 117 116
f 116 117 119 118
f 118 119 121 120
f 120 121 123 122
f 122 123 125 124
f 124 125 127 126
f 126 127 129 128
f 128 129 131 130
f 130 131 133 132
f 132 133 135 134
f 134 135 137 136
f 136 137 139 138
f 138 139 141 140
f 140 141 143 142
f 142 143 145 144
f 144 145 147 146
f 146 147 149 148
f 148 149 151 150
f 150 151 153 152
f 152 153 155 154
f 154 155 37 36
f 36 38 40 42 44 46 48 50 52 54 56 58 60 62 64 66 68 70 72 74 76 78 80 82 84 86 88 90 92 94 96 98 100 102 104 106 108 110 112 114 116 118 120 122 124 126 128 130 132 134 136 138 140 142 144 146 148 150 152 154
f 155 153 151 149 147 145 143 141 139 137 135 133 131 129 127 125 123 121 119 117 115 113 111 109 107 105 103 101 99 97 95 93 91 89 87 85 83 81 79 77 75 73 71 69 67 65 63 61 59 57 55 53 51 49 47 45 43 41 39 37
