# Generated by Visualization Toolkit
v 20.496 19.5034 19.6013
v 20.4952 19.5045 20.4953
v 20.4959 20.2669 20.4962
v 19.5835 19.5034 20.4963
v 20.4981 19.5799 19.5613
v 19.5019 19.5149 20.4981
v 20.4781 19.5019 19.5019
v 20.4981 20.4981 20.4981
v 19.502 19.5019 20.485
v 19.5659 19.578 20.4981
v 20.498 19.502 19.5019
v 19.5593 19.5019 20.419
v 20.4981 19.5217 19.5019
v 19.5019 19.5233 20.4981
v 19.5039 19.9549 20.2086
v 20.3354 20.4106 20.4444
v 20.4378 19.5437 19.5213
v 19.5082 19.508 19.7464
v 20.4653 20.4981 20.4981
v 19.5019 19.5019 20.4763
v 20.4981 20.4502 20.4166
v 19.5019 19.5019 20.4851
v 19.5658 19.5779 20.4981
v 20.4981 19.5019 19.5019
v 20.4981 20.4981 19.5019
v 19.5019 20.4981 19.5019
v 19.5348 19.5019 19.5019
v 20.3318 20.4981 20.104
v 20.4981 20.4981 20.0997
v 19.5019 19.6573 19.9022
v 20.4981 19.5414 19.5019
v 19.5019 19.5235 20.4979
v 20.4654 20.4981 20.498
v 20.4981 19.5838 19.5446
v 20.4589 19.5019 19.502
v 19.5658 19.5778 20.4981
v 20.498 20.492 20.0959
v 19.5019 19.6211 19.6065
v 19.8982 20.4981 20.1156
v 20.498 19.5414 19.5019
v 19.5019 19.5497 20.4875
v 19.5279 19.5019 20.4036
v 19.5019 19.534 20.4981
v 19.5332 19.5019 20.4086
v 19.5021 19.5551 19.7605
v 19.9222 20.4978 20.1315
v 20.4967 20.4964 20.099
v 20.4964 19.5415 19.5023
v 19.5037 19.9552 20.209
v 20.432 19.538 19.5171
v 19.5075 19.5073 19.7459
v 20.3344 20.4101 20.4442
v 20.4362 19.5425 19.5205
v 19.5037 19.9552 20.2089
v 20.3343 20.4108 20.4449
v 19.5079 19.5078 19.7463
v 20.0782 19.5019 19.5795
v 19.5019 19.958 20.2124
v 19.5019 19.556 20.4832
v 20.3259 19.5019 19.5098
v 20.4467 19.5274 19.5019
v 20.4981 20.486 20.0922
v 19.8975 20.4981 20.1151
v 19.5019 19.6273 19.5819
v 20.4174 19.5019 19.5635
v 19.502 19.5115 20.4947
v 20.498 19.5213 19.5022
v 20.498 20.498 20.498
v 20.498 20.4981 20.498
v 19.5595 19.5019 20.4188
v 19.5019 19.5236 20.4981
v 20.0782 19.5019 19.5796
v 20.326 19.5019 19.5097
v 19.5019 20.4981 20.4981
v 19.5019 20.4981 19.8484
v 20.4071 19.5019 19.5152
v 20.4981 19.5836 19.5444
v 20.4591 19.5019 19.5019
v 19.592079162597656 19.364347457885742 19.56134033203125
v 19.592079162597656 19.364347457885742 20.557476043701172
v 19.592079162597656 20.360483169555664 20.557476043701172
v 19.592079162597656 20.360483169555664 19.56134033203125
v 20.588214874267578 19.364347457885742 19.56134033203125
v 20.588214874267578 20.360483169555664 19.56134033203125
v 20.588214874267578 20.360483169555664 20.557476043701172
v 20.588214874267578 19.364347457885742 20.557476043701172
f 1 2 3
f 1 4 2
f 1 3 4
f 2 4 3
f 5 6 7
f 5 8 6
f 5 7 8
f 6 8 7
f 9 10 11
f 9 8 10
f 9 11 8
f 10 8 11
f 12 8 13
f 12 14 8
f 12 13 14
f 8 14 13
f 15 16 17
f 15 18 16
f 15 17 18
f 16 18 17
f 19 7 20
f 19 21 7
f 19 20 21
f 7 21 20
f 22 23 24
f 22 8 23
f 22 24 8
f 23 8 24
f 25 26 27
f 25 28 26
f 25 27 28
f 26 28 27
f 29 19 30
f 29 31 19
f 29 30 31
f 19 31 30
f 32 33 34
f 32 35 33
f 32 34 35
f 33 35 34
f 22 8 36
f 22 24 8
f 22 36 24
f 8 24 36
f 37 38 39
f 37 40 38
f 37 39 40
f 38 40 39
f 31 41 19
f 31 42 41
f 31 19 42
f 41 42 19
f 40 43 19
f 40 44 43
f 40 19 44
f 43 44 19
f 45 46 47
f 45 48 46
f 45 47 48
f 46 48 47
f 49 50 51
f 49 52 50
f 49 51 52
f 50 52 51
f 8 6 7
f 8 5 6
f 8 7 5
f 6 5 7
f 53 54 55
f 53 56 54
f 53 55 56
f 54 56 55
f 57 58 59
f 57 19 58
f 57 59 19
f 58 19 59
f 60 61 59
f 60 19 61
f 60 59 19
f 61 19 59
f 8 22 23
f 8 24 22
f 8 23 24
f 22 24 23
f 62 63 64
f 62 31 63
f 62 64 31
f 63 31 64
f 65 66 67
f 65 68 66
f 65 67 68
f 66 68 67
f 7 6 5
f 7 8 6
f 7 5 8
f 6 8 5
f 69 70 13
f 69 71 70
f 69 13 71
f 70 71 13
f 72 19 59
f 72 73 19
f 72 59 73
f 19 73 59
f 43 74 19
f 43 75 74
f 43 19 75
f 74 75 19
f 59 19 76
f 59 31 19
f 59 76 31
f 19 31 76
f 31 25 27
f 31 28 25
f 31 27 28
f 25 28 27
f 77 78 19
f 77 71 78
f 77 19 71
f 78 71 19
f 79 80 81 82
f 83 84 85 86
f 79 83 86 80
f 82 81 85 84
f 79 82 84 83
f 80 86 85 81
