# Generated by Visualization Toolkit
v 19.2992 20.7008 20.4767
v 19.2992 19.7714 19.8463
v 19.2992 20.7008 19.3365
v 19.9115 20.7008 19.9066
v 19.902 19.8503 20.1357
v 19.2992 20.3369 19.2992
v 20.0698 19.5188 19.2992
v 20.118 20.5106 19.2992
v 19.2992 19.2992 19.2992
v 19.3371 20.2966 19.2992
v 19.8576 19.8906 20.0981
v 20.1189 19.4667 19.2992
v 19.7484 19.2992 19.9548
v 19.9778 20.074 20.1715
v 20.7008 19.3195 19.7155
v 20.4585 19.2992 20.7008
v 20.3939 20.4196 20.5979
v 19.8096 19.6379 20.0084
v 19.6135 20.0646 20.7008
v 20.7008 20.1833 19.4026
v 20.0553 19.6412 19.6664
v 20.1785 20.5463 20.3489
v 20.7008 19.8987 20.4373
v 20.7008 20.7008 20.7008
v 20.6583 20.7008 19.6664
v 20.7008 19.9046 20.4439
v 19.8871 20.7008 20.5063
v 20.7008 20.0921 19.3192
v 20.043 19.5716 19.4324
v 20.1272 20.7008 19.2992
v 20.1088 20.3562 20.2571
v 19.2992 19.8645 20.6773
v 20.2772 20.307 20.5194
v 19.4215 19.9527 19.8544
v 19.2992 20.7008 20.7008
v 19.5942 20.0821 20.7008
v 19.2992 19.2992 20.7008
v 20.4392 19.3166 20.7008
v 19.4186 19.9683 19.8718
v 19.8983 20.7008 19.9189
v 19.3013 20.7008 20.7008
v 20.3326 20.2647 20.4856
v 20.1128 20.5095 19.2992
v 19.5492 19.8479 20.0371
v 20.1337 20.7008 20.1134
v 19.2992 19.3617 19.3629
v 19.6694 20.0493 20.1936
v 19.2992 19.2992 20.2065
v 20.2939 19.2992 19.6492
v 20.7008 20.181 19.4112
v 19.8347 19.4825 19.6603
v 20.7008 19.2992 19.2992
v 20.7008 19.9553 20.2316
v 20.7008 20.1093 20.6708
v 20.7008 19.3456 19.8241
v 19.9387 20.1371 20.1284
v 19.28675079345703 19.290630340576172 19.3081111907959
v 19.28675079345703 19.290630340576172 20.70979118347168
v 19.28675079345703 20.692310333251953 20.70979118347168
v 19.28675079345703 20.692310333251953 19.3081111907959
v 20.688430786132812 19.290630340576172 19.3081111907959
v 20.688430786132812 20.692310333251953 19.3081111907959
v 20.688430786132812 20.692310333251953 20.70979118347168
v 20.688430786132812 19.290630340576172 20.70979118347168
f 1 2 3
f 1 4 2
f 1 3 4
f 2 4 3
f 5 6 7
f 5 8 6
f 5 7 8
f 6 8 7
f 9 10 11
f 9 12 10
f 9 11 12
f 10 12 11
f 13 14 15
f 13 16 14
f 13 15 16
f 14 16 15
f 17 18 19
f 17 16 18
f 17 19 16
f 18 16 19
f 20 21 22
f 20 23 21
f 20 22 23
f 21 23 22
f 24 25 26
f 24 27 25
f 24 26 27
f 25 27 26
f 28 29 30
f 28 31 29
f 28 30 31
f 29 31 30
f 32 33 34
f 32 35 33
f 32 34 35
f 33 35 34
f 36 37 13
f 36 38 37
f 36 13 38
f 37 38 13
f 39 40 41
f 39 42 40
f 39 41 42
f 40 42 41
f 43 44 45
f 43 3 44
f 43 45 3
f 44 3 45
f 46 47 48
f 46 49 47
f 46 48 49
f 47 49 48
f 50 51 52
f 50 53 51
f 50 52 53
f 51 53 52
f 54 55 16
f 54 56 55
f 54 16 56
f 55 56 16
f 57 58 59 60
f 61 62 63 64
f 57 61 64 58
f 60 59 63 62
f 57 60 62 61
f 58 64 63 59
