# Generated by Visualization Toolkit
v 20.2307 19.4147 19.5683
v 19.4047 19.4047 19.4356
v 19.6674 19.9605 20.3958
v 19.4565 20.2397 19.4268
v 19.4047 20.3097 19.4047
v 20.0944 19.5486 19.7416
v 19.7008 19.922 20.4352
v 20.092 20.5953 20.1292
v 20.4825 20.5953 19.5433
v 20.5953 20.5953 20.5953
v 19.823 20.3186 20.4312
v 20.5953 19.8003 19.7781
v 20.5821 19.4047 20.5953
v 19.6998 20.1269 20.5953
v 20.3701 20.0225 19.827
v 19.7835 19.4047 19.9486
v 20.5514 19.4298 20.5953
v 20.5953 20.5691 20.5953
v 20.4033 19.9295 19.9408
v 19.6691 20.152 20.5953
v 19.4536 20.5953 19.4562
v 20.2047 20.5953 20.314
v 19.4047 19.8617 20.0347
v 19.4047 20.5953 20.5953
v 19.7508 19.8172 19.4047
v 20.5953 19.443 19.4047
v 20.1549 20.2491 20.0801
v 20.5953 20.5832 19.4047
v 19.4047 19.4146 19.5829
v 19.4047 19.4047 20.5953
v 20.2145 19.414 20.3854
v 19.4047 20.2166 20.3933
v 20.5491 19.4047 20.5687
v 19.6631 19.4047 19.8511
v 20.5953 19.4047 19.4294
v 20.5953 20.024 20.008
v 19.4047 20.5953 19.4047
v 19.7985 19.8716 19.5501
v 20.1783 20.5953 20.2202
v 20.5448 20.5953 19.4047
v 19.417749404907227 19.40039825439453 19.39631462097168
v 19.417749404907227 19.40039825439453 20.586994171142578
v 19.417749404907227 20.59107780456543 20.586994171142578
v 19.417749404907227 20.59107780456543 19.39631462097168
v 20.608430862426758 19.40039825439453 19.39631462097168
v 20.608430862426758 20.59107780456543 19.39631462097168
v 20.608430862426758 20.59107780456543 20.586994171142578
v 20.608430862426758 19.40039825439453 20.586994171142578
f 1 2 3
f 1 4 2
f 1 3 4
f 2 4 3
f 5 6 7
f 5 8 6
f 5 7 8
f 6 8 7
f 9 10 11
f 9 12 10
f 9 11 12
f 10 12 11
f 13 14 15
f 13 16 14
f 13 15 16
f 14 16 15
f 17 18 19
f 17 20 18
f 17 19 20
f 18 20 19
f 21 22 23
f 21 24 22
f 21 23 24
f 22 24 23
f 25 26 27
f 25 28 26
f 25 27 28
f 26 28 27
f 29 30 31
f 29 32 30
f 29 31 32
f 30 32 31
f 33 34 35
f 33 36 34
f 33 35 36
f 34 36 35
f 37 38 39
f 37 40 38
f 37 39 40
f 38 40 39
f 41 42 43 44
f 45 46 47 48
f 41 45 48 42
f 44 43 47 46
f 41 44 46 45
f 42 48 47 43
