# Generated by Visualization Toolkit
v 19.7748 19.9438 20.6258
v 20.6192 20.6258 20.6258
v 19.9655 20.6258 19.8633
v 19.3742 20.6258 20.6258
v 20.6258 19.6932 20.0815
v 19.4519 19.3742 19.8165
v 20.398 19.3742 20.6258
v 20.6258 19.3742 19.4019
v 20.6258 19.6153 20.6258
v 20.6258 19.7413 19.7451
v 20.6258 20.6258 20.6213
v 20.0505 20.561 20.056
v 19.3742 19.4883 19.4424
v 20.3225 20.1434 19.9132
v 20.0363 19.5715 19.3742
v 19.3742 20.6258 19.3742
v 20.0966 20.6258 19.9776
v 20.6258 20.6258 19.3742
v 20.0527 19.5455 19.3742
v 20.6258 19.5685 19.8158
v 19.3742 20.5677 19.3777
v 19.4092 19.5327 19.4586
v 19.3742 19.8036 20.3606
v 19.9281 20.6258 19.7515
v 19.3905 20.5998 19.3742
v 20.0841 20.6258 19.7699
v 19.6995 19.4482 19.8958
v 20.5364 19.6369 19.9498
v 19.3742 19.8 20.3653
v 19.9344 20.6258 19.8004
v 20.6258 20.6258 20.6192
v 20.0511 20.5611 20.0566
v 20.6258 19.7402 19.7441
v 20.6166 19.4549 20.6258
v 19.6159 19.4043 19.8869
v 19.5345 20.0707 20.6258
v 20.5032 19.6811 20.0046
v 19.3742 19.3742 20.6258
v 19.696 20.2504 19.9245
v 19.3742 19.4866 20.0834
v 19.3742 19.3742 19.3742
v 20.4486 19.3742 19.4645
v 20.0522 20.6258 19.7516
v 20.1964 19.7971 20.1933
v 19.3742 20.564 19.3824
v 19.9818 20.6258 19.8424
v 20.6258 19.7411 19.7456
v 20.0504 20.5611 20.0557
v 19.7677 19.938 20.6258
v 20.6256 19.6156 20.6258
v 19.36515235900879 19.392282485961914 19.373605728149414
v 19.36515235900879 19.392282485961914 20.625244140625
v 19.36515235900879 20.6439208984375 20.625244140625
v 19.36515235900879 20.6439208984375 19.373605728149414
v 20.616790771484375 19.392282485961914 19.373605728149414
v 20.616790771484375 20.6439208984375 19.373605728149414
v 20.616790771484375 20.6439208984375 20.625244140625
v 20.616790771484375 19.392282485961914 20.625244140625
f 1 2 3
f 1 4 2
f 1 3 4
f 2 4 3
f 5 6 7
f 5 8 6
f 5 7 8
f 6 8 7
f 9 10 11
f 9 12 10
f 9 11 12
f 10 12 11
f 13 14 15
f 13 16 14
f 13 15 16
f 14 16 15
f 17 18 19
f 17 20 18
f 17 19 20
f 18 20 19
f 21 22 23
f 21 24 22
f 21 23 24
f 22 24 23
f 18 25 19
f 18 26 25
f 18 19 26
f 25 26 19
f 27 28 29
f 27 30 28
f 27 29 30
f 28 30 29
f 31 18 32
f 31 33 18
f 31 32 33
f 18 33 32
f 34 35 36
f 34 37 35
f 34 36 37
f 35 37 36
f 35 34 38
f 35 36 34
f 35 38 36
f 34 36 38
f 39 40 41
f 39 42 40
f 39 41 42
f 40 42 41
f 29 4 43
f 29 44 4
f 29 43 44
f 4 44 43
f 45 4 46
f 45 29 4
f 45 46 29
f 4 29 46
f 47 48 49
f 47 50 48
f 47 49 50
f 48 50 49
f 51 52 53 54
f 55 56 57 58
f 51 55 58 52
f 54 53 57 56
f 51 54 56 55
f 52 58 57 53
