# Generated by Visualization Toolkit
v 19.1709 19.6827 19.2795
v 19.4765 20.26 19.1266
v 20.0983 20.4693 19.5463
v 20.2903 19.3179 19.1135
v 20.8959 19.1041 19.807
v 20.2938 19.2229 19.5359
v 20.8529 19.6865 20.5471
v 19.7718 19.1041 20.3422
v 20.8959 20.2133 20.0983
v 20.8492 20.7136 20.6562
v 20.3661 20.0482 19.7214
v 20.0307 19.8066 20.8958
v 19.8493 19.2664 20.1544
v 19.7092 19.5264 19.1041
v 19.188 19.1041 19.1121
v 20.433 19.1041 19.1041
v 19.2975 20.0254 20.055
v 19.8071 20.8959 20.7848
v 20.0024 20.2638 20.8959
v 19.8485 20.8959 19.8343
v 20.4695 19.7575 19.493
v 20.8959 20.5127 20.3782
v 20.8959 20.8959 19.7621
v 20.078 20.6064 19.4443
v 20.235 19.7319 19.2688
v 19.4154 20.5234 19.585
v 19.1041 19.3907 19.1728
v 19.114 19.9515 19.7639
v 20.0637 20.6102 19.1041
v 20.5142 20.483 19.5847
v 20.2141 19.3743 19.1041
v 19.3805 20.299 19.1041
v 19.4394 19.9948 19.2929
v 20.1052 20.8959 19.8289
v 19.1041 20.8959 19.775
v 19.1041 20.8959 19.1041
v 20.8959 19.6983 20.5637
v 20.095 19.9524 19.6449
v 20.8959 20.2172 20.0582
v 20.0526 19.8163 20.8817
v 19.8715 20.8922 20.1117
v 20.0554 19.9278 19.5651
v 20.0372 19.8741 20.8088
v 20.2771 20.6051 20.5859
v 20.8959 19.1041 20.8959
v 20.1358 19.1041 20.1689
v 20.6933 19.7919 20.8959
v 19.6509 19.1112 20.8959
v 19.9604 19.1679 20.1672
v 20.1298 19.6457 20.8959
v 19.1041 19.1041 20.8959
v 19.6709 20.135 20.8959
v 20.046 19.8994 19.8163
v 20.5701 20.3053 19.9194
v 20.3723 20.8954 20.4883
v 20.0057 19.7781 20.8959
v 19.8424 20.8959 19.8147
v 19.2997 20.0291 20.0572
v 19.8068 20.8959 20.7932
v 19.1041 19.2301 19.7822
v 19.1194 20.0266 19.821
v 20.1263 19.7532 19.3168
v 19.1041 19.1041 19.1041
v 20.8959 19.8731 20.7862
v 19.1041 19.8771 20.8959
v 19.1041 19.9705 19.7994
v 19.833 20.2241 20.7763
v 19.1041 19.2149 20.7888
v 19.2398 20.2161 19.7164
v 19.9677 20.3597 20.7162
v 20.0341 19.7526 20.3154
v 19.1041 19.5296 20.3767
v 20.8877 20.8959 20.8959
v 20.1169 19.919 20.8959
v 19.8023 20.8959 20.8959
v 19.9125 20.631 20.2895
v 20.8959 19.8229 20.8959
v 20.8959 20.1978 20.0772
v 20.0761 19.8589 20.8959
v 20.8958 20.7959 20.8959
v 20.0276 19.1125 19.6695
v 19.8619 19.249 20.8959
v 20.8959 19.6834 20.3552
v 20.2653 19.7827 20.6914
v 20.8959 19.7302 20.3306
v 20.8959 20.3157 20.0031
v 20.8959 19.2417 19.3735
v 20.0385 19.5452 19.6472
v 19.7551 20.8959 20.7341
v 19.1041 20.8881 20.8959
v 19.2014 20.0678 19.9873
v 20.0593 20.6465 19.1041
v 20.8416 20.0558 19.7734
v 20.2054 19.4457 19.1041
v 20.8959 19.7244 19.1041
v 20.0866 19.9735 19.476
v 20.8959 19.7235 20.3474
v 19.6837 19.4393 20.3469
v 20.1936 19.8109 20.7056
v 20.7204 19.691 20.188
v 20.8959 19.1041 19.1041
v 19.7544 19.4425 19.4429
v 20.0024 20.2081 19.7167
v 19.1041 19.3603 19.873
v 20.0408 19.758 20.3175
v 19.3498 20.5632 19.6661
v 19.8418 19.2634 20.1461
v 19.1932 19.3397 19.9927
v 20.1745 19.7996 19.3797
v 19.1793 19.1041 19.1041
v 19.7323 19.5339 20.5481
v 20.011 19.1041 19.9548
v 19.1041 19.1041 20.8078
v 19.1041 19.1041 19.5628
v 20.1397 20.8959 19.1041
v 19.7143 20.4153 19.2993
v 20.8628 20.8959 19.3062
v 20.1817 20.8959 20.3484
v 20.8959 20.7885 19.7695
v 20.0824 20.621 19.1041
v 20.8959 20.8959 19.1041
v 20.8959 19.7362 19.1041
v 20.6568 20.4311 20.0513
v 19.521 20.3364 19.5505
v 20.2025 20.7133 19.6464
v 20.3406 19.5468 19.234
v 19.2117 20.0463 19.9614
v 19.7438 20.8789 20.7188
v 19.9992 20.2844 20.8959
v 19.7644 20.8959 20.7317
v 19.2414 20.064 19.9728
v 19.4232 20.1172 19.1041
v 19.1041 20.7968 19.1041
v 19.1041 20.3821 20.278
v 19.1041 19.5728 19.332
v 20.8959 20.0185 19.8289
v 20.3722 20.8959 20.4887
v 20.5701 20.3053 19.9193
v 20.8959 20.7959 20.8959
v 20.8959 19.7695 19.1896
v 19.7544 19.4425 19.443
v 20.7396 20.0686 19.8757
v 19.8608 20.8934 19.848
v 19.2722 20.5867 19.6627
v 20.0269 20.2898 19.7034
v 20.128 19.7515 19.3161
v 19.2153 19.3588 19.8603
v 20.0388 19.7435 20.3784
v 19.5349 19.8029 20.8545
v 19.1041 19.3312 19.7859
v 20.0394 19.2044 19.8187
v 20.0863 19.9735 19.4758
v 20.8959 19.7325 20.3295
v 19.6876 19.4339 20.3594
v 20.1126 20.8959 19.8342
v 19.1042 20.8959 19.1041
v 19.4131 20.0684 19.2782
v 20.1696 19.9651 19.8064
v 19.8022 20.5876 19.6906
v 20.144 20.8959 20.6099
v 20.8889 20.8959 20.2142
v 19.10562515258789 19.117694854736328 19.095359802246094
v 19.10562515258789 19.117694854736328 20.887069702148438
v 19.10562515258789 20.909404754638672 20.887069702148438
v 19.10562515258789 20.909404754638672 19.095359802246094
v 20.897335052490234 19.117694854736328 19.095359802246094
v 20.897335052490234 20.909404754638672 19.095359802246094
v 20.897335052490234 20.909404754638672 20.887069702148438
v 20.897335052490234 19.117694854736328 20.887069702148438
f 1 2 3
f 1 4 2
f 1 3 4
f 2 4 3
f 5 6 7
f 5 8 6
f 5 7 8
f 6 8 7
f 9 10 11
f 9 12 10
f 9 11 12
f 10 12 11
f 13 14 15
f 13 16 14
f 13 15 16
f 14 16 15
f 17 18 19
f 17 20 18
f 17 19 20
f 18 20 19
f 21 22 23
f 21 24 22
f 21 23 24
f 22 24 23
f 25 26 27
f 25 28 26
f 25 27 28
f 26 28 27
f 29 30 31
f 29 32 30
f 29 31 32
f 30 32 31
f 33 34 35
f 33 36 34
f 33 35 36
f 34 36 35
f 37 38 39
f 37 40 38
f 37 39 40
f 38 40 39
f 41 42 43
f 41 44 42
f 41 43 44
f 42 44 43
f 45 46 47
f 45 48 46
f 45 47 48
f 46 48 47
f 49 50 51
f 49 52 50
f 49 51 52
f 50 52 51
f 53 54 55
f 53 56 54
f 53 55 56
f 54 56 55
f 57 58 35
f 57 59 58
f 57 35 59
f 58 59 35
f 60 61 62
f 60 63 61
f 60 62 63
f 61 63 62
f 64 46 5
f 64 45 46
f 64 5 45
f 46 45 5
f 65 66 67
f 65 68 66
f 65 67 68
f 66 68 67
f 69 70 71
f 69 72 70
f 69 71 72
f 70 72 71
f 73 74 75
f 73 76 74
f 73 75 76
f 74 76 75
f 77 78 79
f 77 80 78
f 77 79 80
f 78 80 79
f 81 82 83
f 81 84 82
f 81 83 84
f 82 84 83
f 85 86 87
f 85 88 86
f 85 87 88
f 86 88 87
f 89 90 91
f 89 65 90
f 89 91 65
f 90 65 91
f 92 93 94
f 92 95 93
f 92 94 95
f 93 95 94
f 96 97 98
f 96 99 97
f 96 98 99
f 97 99 98
f 100 101 102
f 100 5 101
f 100 102 5
f 101 5 102
f 103 104 105
f 103 106 104
f 103 105 106
f 104 106 105
f 107 108 109
f 107 110 108
f 107 109 110
f 108 110 109
f 111 112 113
f 111 114 112
f 111 113 114
f 112 114 113
f 115 116 117
f 115 118 116
f 115 117 118
f 116 118 117
f 119 120 121
f 119 122 120
f 119 121 122
f 120 122 121
f 123 124 125
f 123 126 124
f 123 125 126
f 124 126 125
f 127 128 129
f 127 65 128
f 127 129 65
f 128 65 129
f 130 35 131
f 130 90 35
f 130 131 90
f 35 90 131
f 132 133 134
f 132 135 133
f 132 134 135
f 133 135 134
f 122 119 120
f 122 136 119
f 122 120 136
f 119 136 120
f 137 79 138
f 137 139 79
f 137 138 139
f 79 139 138
f 101 140 141
f 101 142 140
f 101 141 142
f 140 142 141
f 143 71 70
f 143 69 71
f 143 70 69
f 71 69 70
f 144 145 146
f 144 147 145
f 144 146 147
f 145 147 146
f 148 51 149
f 148 150 51
f 148 149 150
f 51 150 149
f 151 152 153
f 151 154 152
f 151 153 154
f 152 154 153
f 155 156 157
f 155 115 156
f 155 157 115
f 156 115 157
f 158 159 160
f 158 161 159
f 158 160 161
f 159 161 160
f 162 163 164 165
f 166 167 168 169
f 162 166 169 163
f 165 164 168 167
f 162 165 167 166
f 163 169 168 164
