# Generated by Visualization Toolkit
v -0.513943 -0.120371 8.75609
v 0.416443 -0.378145 8.46919
v -0.0127345 0.448941 8.09599
v -0.341202 -0.44721 7.82883
v 0.224775 0.515651 9.00189
v -0.0636576 0.54708 8.05171
v -0.561985 -0.024207 8.71176
v 0.366296 -0.281459 8.42555
v -0.338655 -0.445544 7.83096
v 0.548374 -0.125301 7.51628
v 0.42548 -0.367947 8.4767
v 0.00128297 0.460698 8.10772
v -0.312561 0.299912 7.11259
v 0.422943 -0.370864 7.03312
v -0.234631 -0.464347 7.76547
v 0.445306 0.279825 7.77717
v -0.410429 0.38466 7.26728
v -0.418194 0.376206 8.26981
v -0.234308 -0.463993 7.76548
v 0.442844 0.277131 7.77713
v -0.0074278065003454685 0.5675427913665771 7.017651081085205
v -0.0074278065003454685 0.5675427913665771 8.986421585083008
v 0.05137018486857414 0.564461350440979 7.017651081085205
v 0.05137018486857414 0.564461350440979 8.986421585083008
v 0.10952397435903549 0.5552507042884827 7.017651081085205
v 0.10952397435903549 0.5552507042884827 8.986421585083008
v 0.16639640927314758 0.5400117635726929 7.017651081085205
v 0.16639640927314758 0.5400117635726929 8.986421585083008
v 0.22136439383029938 0.5189115405082703 7.017651081085205
v 0.22136439383029938 0.5189115405082703 8.986421585083008
v 0.27382567524909973 0.4921811521053314 7.017651081085205
v 0.27382567524909973 0.4921811521053314 8.986421585083008
v 0.32320550084114075 0.4601134955883026 7.017651081085205
v 0.32320550084114075 0.4601134955883026 8.986421585083008
v 0.368962824344635 0.42305994033813477 7.017651081085205
v 0.368962824344635 0.42305994033813477 8.986421585083008
v 0.4105963408946991 0.3814264237880707 7.017651081085205
v 0.4105963408946991 0.3814264237880707 8.986421585083008
v 0.44764989614486694 0.3356691002845764 7.017651081085205
v 0.44764989614486694 0.3356691002845764 8.986421585083008
v 0.47971755266189575 0.2862892746925354 7.017651081085205
v 0.47971755266189575 0.2862892746925354 8.986421585083008
v 0.5064479112625122 0.23382800817489624 7.017651081085205
v 0.5064479112625122 0.23382800817489624 8.986421585083008
v 0.5275481343269348 0.17886002361774445 7.017651081085205
v 0.5275481343269348 0.17886002361774445 8.986421585083008
v 0.5427870750427246 0.12198758125305176 7.017651081085205
v 0.5427870750427246 0.12198758125305176 8.986421585083008
v 0.551997721195221 0.0638337954878807 7.017651081085205
v 0.551997721195221 0.0638337954878807 8.986421585083008
v 0.5550791621208191 0.00503579992800951 7.017651081085205
v 0.5550791621208191 0.00503579992800951 8.986421585083008
v 0.551997721195221 -0.05376219376921654 7.017651081085205
v 0.551997721195221 -0.05376219376921654 8.986421585083008
v 0.5427870750427246 -0.11191597580909729 7.017651081085205
v 0.5427870750427246 -0.11191597580909729 8.986421585083008
v 0.5275481343269348 -0.16878841817378998 7.017651081085205
v 0.5275481343269348 -0.16878841817378998 8.986421585083008
v 0.5064479112625122 -0.22375640273094177 7.017651081085205
v 0.5064479112625122 -0.22375640273094177 8.986421585083008
v 0.47971755266189575 -0.2762176990509033 7.017651081085205
v 0.47971755266189575 -0.2762176990509033 8.986421585083008
v 0.44764989614486694 -0.32559752464294434 7.017651081085205
v 0.44764989614486694 -0.32559752464294434 8.986421585083008
v 0.4105963408946991 -0.3713548481464386 7.017651081085205
v 0.4105963408946991 -0.3713548481464386 8.986421585083008
v 0.368962824344635 -0.4129883646965027 7.017651081085205
v 0.368962824344635 -0.4129883646965027 8.986421585083008
v 0.32320550084114075 -0.45004191994667053 7.017651081085205
v 0.32320550084114075 -0.45004191994667053 8.986421585083008
v 0.27382567524909973 -0.48210957646369934 7.017651081085205
v 0.27382567524909973 -0.48210957646369934 8.986421585083008
v 0.22136439383029938 -0.5088399052619934 7.017651081085205
v 0.22136439383029938 -0.5088399052619934 8.986421585083008
v 0.16639640927314758 -0.529940128326416 7.017651081085205
v 0.16639640927314758 -0.529940128326416 8.986421585083008
v 0.10952397435903549 -0.5451790690422058 7.017651081085205
v 0.10952397435903549 -0.5451790690422058 8.986421585083008
v 0.05137018486857414 -0.5543897151947021 7.017651081085205
v 0.05137018486857414 -0.5543897151947021 8.986421585083008
v -0.0074278065003454685 -0.5574711561203003 7.017651081085205
v -0.0074278065003454685 -0.5574711561203003 8.986421585083008
v -0.0662257969379425 -0.5543897151947021 7.017651081085205
v -0.0662257969379425 -0.5543897151947021 8.986421585083008
v -0.12437958270311356 -0.5451790690422058 7.017651081085205
v -0.12437958270311356 -0.5451790690422058 8.986421585083008
v -0.18125203251838684 -0.529940128326416 7.017651081085205
v -0.18125203251838684 -0.529940128326416 8.986421585083008
v -0.23622001707553864 -0.5088399052619934 7.017651081085205
v -0.23622001707553864 -0.5088399052619934 8.986421585083008
v -0.288681298494339 -0.48210957646369934 7.017651081085205
v -0.288681298494339 -0.48210957646369934 8.986421585083008
v -0.33806112408638 -0.45004191994667053 7.017651081085205
v -0.33806112408638 -0.45004191994667053 8.986421585083008
v -0.38381844758987427 -0.4129883646965027 7.017651081085205
v -0.38381844758987427 -0.4129883646965027 8.986421585083008
v -0.42545196413993835 -0.3713548481464386 7.017651081085205
v -0.42545196413993835 -0.3713548481464386 8.986421585083008
v -0.4625055193901062 -0.32559752464294434 7.017651081085205
v -0.4625055193901062 -0.32559752464294434 8.986421585083008
v -0.494573175907135 -0.2762176990509033 7.017651081085205
v -0.494573175907135 -0.2762176990509033 8.986421585083008
v -0.5213035345077515 -0.22375640273094177 7.017651081085205
v -0.5213035345077515 -0.22375640273094177 8.986421585083008
v -0.5424037575721741 -0.16878841817378998 7.017651081085205
v -0.5424037575721741 -0.16878841817378998 8.986421585083008
v -0.5576426982879639 -0.11191597580909729 7.017651081085205
v -0.5576426982879639 -0.11191597580909729 8.986421585083008
v -0.5668533444404602 -0.05376219376921654 7.017651081085205
v -0.5668533444404602 -0.05376219376921654 8.986421585083008
v -0.5699347853660583 0.00503579992800951 7.017651081085205
v -0.5699347853660583 0.00503579992800951 8.986421585083008
v -0.5668533444404602 0.0638337954878807 7.017651081085205
v -0.5668533444404602 0.0638337954878807 8.986421585083008
v -0.5576426982879639 0.12198758125305176 7.017651081085205
v -0.5576426982879639 0.12198758125305176 8.986421585083008
v -0.5424037575721741 0.17886002361774445 7.017651081085205
v -0.5424037575721741 0.17886002361774445 8.986421585083008
v -0.5213035345077515 0.23382800817489624 7.017651081085205
v -0.5213035345077515 0.23382800817489624 8.986421585083008
v -0.494573175907135 0.2862892746925354 7.017651081085205
v -0.494573175907135 0.2862892746925354 8.986421585083008
v -0.4625055193901062 0.3356691002845764 7.017651081085205
v -0.4625055193901062 0.3356691002845764 8.986421585083008
v -0.42545196413993835 0.3814264237880707 7.017651081085205
v -0.42545196413993835 0.3814264237880707 8.986421585083008
v -0.38381844758987427 0.42305994033813477 7.017651081085205
v -0.38381844758987427 0.42305994033813477 8.986421585083008
v -0.33806112408638 0.4601134955883026 7.017651081085205
v -0.33806112408638 0.4601134955883026 8.986421585083008
v -0.288681298494339 0.4921811521053314 7.017651081085205
v -0.288681298494339 0.4921811521053314 8.986421585083008
v -0.23622001707553864 0.5189115405082703 7.017651081085205
v -0.23622001707553864 0.5189115405082703 8.986421585083008
v -0.18125203251838684 0.5400117635726929 7.017651081085205
v -0.18125203251838684 0.5400117635726929 8.986421585083008
v -0.12437958270311356 0.5552507042884827 7.017651081085205
v -0.12437958270311356 0.5552507042884827 8.986421585083008
v -0.0662257969379425 0.564461350440979 7.017651081085205
v -0.0662257969379425 0.564461350440979 8.986421585083008
f 1 2 3
f 1 4 2
f 1 3 4
f 2 4 3
f 5 6 7
f 5 8 6
f 5 7 8
f 6 8 7
f 9 10 11
f 9 12 10
f 9 11 12
f 10 12 11
f 13 14 15
f 13 16 14
f 13 15 16
f 14 16 15
f 17 18 19
f 17 20 18
f 17 19 20
f 18 20 19
f 21 22 24 23
f 23 24 26 25
f 25 26 28 27
f 27 28 30 29
f 29 30 32 31
f 31 32 34 33
f 33 34 36 35
f 35 36 38 37
f 37 38 40 39
f 39 40 42 41
f 41 42 44 43
f 43 44 46 45
f 45 46 48 47
f 47 48 50 49
f 49 50 52 51
f 51 52 54 53
f 53 54 56 55
f 55 56 58 57
f 57 58 60 59
f 59 60 62 61
f 61 62 64 63
f 63 64 66 65
f 65 66 68 67
f 67 68 70 69
f 69 70 72 71
f 71 72 74 73
f 73 74 76 75
f 75 76 78 77
f 77 78 80 79
f 79 80 82 81
f 81 82 84 83
f 83 84 86 85
f 85 86 88 87
f 87 88 90 89
f 89 90 92 91
f 91 92 94 93
f 93 94 96 95
f 95 96 98 97
f 97 98 100 99
f 99 100 102 101
f 101 102 104 103
f 103 104 106 105
f 105 106 108 107
f 107 108 110 109
f 109 110 112 111
f 111 112 114 113
f 113 114 116 115
f 115 116 118 117
f 117 118 120 119
f 119 120 122 121
f 121 122 124 123
f 123 124 126 125
f 125 126 128 127
f 127 128 130 129
f 129 130 132 131
f 131 132 134 133
f 133 134 136 135
f 135 136 138 137
f 137 138 140 139
f 139 140 22 21
f 21 23 25 27 29 31 33 35 37 39 41 43 45 47 49 51 53 55 57 59 61 63 65 67 69 71 73 75 77 79 81 83 85 87 89 91 93 95 97 99 101 103 105 107 109 111 113 115 117 119 121 123 125 127 129 131 133 135 137 139
f 140 138 136 134 132 130 128 126 124 122 120 118 116 114 112 110 108 106 104 102 100 98 96 94 92 90 88 86 84 82 80 78 76 74 72 70 68 66 64 62 60 58 56 54 52 50 48 46 44 42 40 38 36 34 32 30 28 26 24 22
