# Generated by Visualization Toolkit
v 19.9275 20.0978 19.4446
v 20.5554 19.4447 19.4446
v 20.5554 20.5554 19.4446
v 20.5554 20.3112 20.4587
v 19.9274 20.0978 19.4446
v 19.4446 19.4446 20.5554
v 20.4193 19.4446 20.4194
v 19.4447 19.4446 19.4446
v 20.2122 19.905 20.5554
v 20.5554 20.5554 20.5554
v 19.4448 20.5554 20.5554
v 20.4151 20.5554 19.5763
v 19.4446 20.5455 19.7259
v 20.2123 19.905 20.5553
v 19.4446 19.8083 19.4446
v 20.5312 20.5554 19.4447
v 20.0861 19.97 20.4036
v 19.4618 19.7451 19.4446
v 19.4446 20.4217 19.4447
v 20.5554 19.4446 19.4446
v 20.5554 20.3112 20.4588
v 20.4004 19.4446 20.5554
v 20.2094 19.9074 20.5442
v 20.4153 20.5554 19.5761
v 19.5687 20.4369 19.4446
v 19.445 20.5554 20.5551
v 20.5554 20.1108 20.5553
v 19.4447 19.4446 20.5554
v 19.9274 20.0978 19.4447
v 19.4446 19.4447 20.5554
v 19.4446 20.5554 20.5554
v 19.44024658203125 19.433149337768555 19.449562072753906
v 19.44024658203125 19.433149337768555 20.560302734375
v 19.44024658203125 20.54388999938965 20.560302734375
v 19.44024658203125 20.54388999938965 19.449562072753906
v 20.550987243652344 19.433149337768555 19.449562072753906
v 20.550987243652344 20.54388999938965 19.449562072753906
v 20.550987243652344 20.54388999938965 20.560302734375
v 20.550987243652344 19.433149337768555 20.560302734375
f 1 2 3
f 1 4 2
f 1 3 4
f 2 4 3
f 5 6 7
f 5 8 6
f 5 7 8
f 6 8 7
f 9 10 11
f 9 12 10
f 9 11 12
f 10 12 11
f 6 13 14
f 6 15 13
f 6 14 15
f 13 15 14
f 16 17 18
f 16 19 17
f 16 18 19
f 17 19 18
f 20 21 5
f 20 22 21
f 20 5 22
f 21 22 5
f 23 24 25
f 23 26 24
f 23 25 26
f 24 26 25
f 27 28 22
f 27 29 28
f 27 22 29
f 28 29 22
f 20 7 5
f 20 8 7
f 20 5 8
f 7 8 5
f 13 9 30
f 13 31 9
f 13 30 31
f 9 31 30
f 32 33 34 35
f 36 37 38 39
f 32 36 39 33
f 35 34 38 37
f 32 35 37 36
f 33 39 38 34
