# Generated by Visualization Toolkit
v 19.5546 20.4454 20.4454
v 19.5546 20.3088 19.6912
v 20.4454 20.4454 19.5546
v 20.4454 19.5546 20.4454
v 20.4454 19.5546 19.5546
v 19.5546 19.5546 19.5546
v 19.5546 19.5546 20.4454
v 19.5546 20.1948 19.8052
v 20.4454 20.4454 20.4454
v 19.599090576171875 19.53519058227539 19.573909759521484
v 19.599090576171875 19.53519058227539 20.46480941772461
v 19.599090576171875 20.426090240478516 20.46480941772461
v 19.599090576171875 20.426090240478516 19.573909759521484
v 20.489990234375 19.53519058227539 19.573909759521484
v 20.489990234375 20.426090240478516 19.573909759521484
v 20.489990234375 20.426090240478516 20.46480941772461
v 20.489990234375 19.53519058227539 20.46480941772461
f 1 2 3
f 1 4 2
f 1 3 4
f 2 4 3
f 5 3 4
f 5 6 3
f 5 4 6
f 3 6 4
f 1 7 6
f 1 4 7
f 1 6 4
f 7 4 6
f 6 4 8
f 6 3 4
f 6 8 3
f 4 3 8
f 9 4 1
f 9 3 4
f 9 1 3
f 4 3 1
f 10 11 12 13
f 14 15 16 17
f 10 14 17 11
f 13 12 16 15
f 10 13 15 14
f 11 17 16 12
