# Generated by Visualization Toolkit
v 0.602571 -0.986234 2.0106
v -0.158719 -0.403009 2.0106
v 0.254129 -0.283017 1.10961
v 1.10462 -0.339955 2.0106
v -0.993842 -0.58994 0.88417
v -0.870824 -0.75988 2.0106
v -0.217043 -0.267432 1.58038
v -1.15514 -0.0375483 2.0106
v -0.0541806 -0.0897263 1.61517
v -0.870823 -0.759881 2.0106
v -0.340218 -1.10454 2.0106
v -0.472214 -1.05488 0.912512
v 0.293912 0.190157 -0.203782
v 0.995773 0.586676 -0.948574
v 1.0607 -0.458985 -0.948573
v 0.129579 -0.085713 -0.948574
v 0.0475225 0.0187433 0.770832
v -0.0224825 0.303047 -0.0652471
v 0.0537094 -0.442281 -0.150329
v 1.12079 -0.041083 0.230116
v 0.298632 -0.321549 1.03593
v -0.0875107 -1.15243 0.422156
v 0.180232 -1.14161 1.17502
v -0.933425 -0.590667 0.937909
v -0.502387 1.04012 1.89831
v -0.322122 0.108157 1.06228
v -0.327022 1.10852 0.756517
v -1.01842 0.546424 1.33361
v 0.777747 -0.854903 0.228737
v 1.11855 -0.290865 1.05128
v 0.900682 -0.724239 1.48086
v 0.094822 0.0140229 0.844025
v 0.211497 -0.505777 0.764701
v -0.788903 -0.488879 1.06175
v -0.0387889 0.509694 0.861303
v 0.343139 -0.0650247 1.43434
v -0.101425 0.11809 -0.221434
v 0.394434 1.08619 -0.862436
v 0.833017 0.801145 0.0734621
v 0.309825 1.11344 0.242987
v 0.0525297 -0.893201 -0.948574
v 1.06069 -0.458994 -0.948574
v 0.375936 -1.0929 -0.443074
v 0.297859 0.112757 -0.222036
v -0.172068 0.0268225 -0.178995
v 0.315627 0.90426 -0.948574
v -0.930123 0.684928 -0.948573
v -0.578273 0.00931074 -0.948574
v 0.721759 -0.902672 0.231426
v 1.12078 -0.0410871 0.230114
v -0.00232054 -0.463349 -0.170307
v 0.186887 0.0109726 0.700617
v 1.07341 0.428428 1.37736
v 0.754455 0.875528 2.0106
v 1.10462 -0.339945 2.0106
v 0.00603887 0.284454 2.0106
v -0.259653 -0.0609789 -0.182663
v -1.12708 0.255826 -0.0216975
v -1.15417 0.0603136 -0.878464
v -0.875774 -0.75417 0.0478705
v 1.11912 -0.288647 1.0541
v 0.753706 -0.843024 0.229212
v 0.00493023 0.00869806 0.789482
v 1.1112 -0.175453 0.20446
v -0.213703 1.13582 -0.547231
v -0.172069 0.0268221 -0.178994
v 0.995759 0.586674 -0.948544
v 0.111426 0.131259 -0.167166
v 0.813082 0.82137 0.179204
v 1.122 0.27725 0.271421
v -0.324431 0.0508924 0.996096
v 0.0906607 0.208528 2.0106
v 0.166317 0.711692 0.852538
v -0.293656 1.11782 1.67486
v -0.653563 0.763466 -0.195705
v -1.1215 0.279268 0.194011
v 0.0815072 0.153808 0.564184
v -0.642477 -0.491702 -0.03941
v 0.292791 0.190989 -0.207693
v 0.373041 -1.0482 -0.43488
v -0.325098 -0.103936 0.0351875
v -0.100185 0.00639417 -0.948574
v -0.0523389 -1.15456 -0.819006
v -0.818688 -0.776163 -0.948574
v -0.213331 -0.210327 0.00713077
v -0.849226 -0.783943 0.0907236
v 0.734636 0.892221 1.96714
v 0.229183 0.571552 0.85283
v 0.456258 -0.174482 1.34694
v 0.0418757 0.317151 2.0106
v -0.372684 1.09401 2.0106
v 0.736909 0.890345 2.0106
v 0.0362503 0.312512 2.0106
v 0.192226 0.519006 1.10852
v -0.56754 0.0200554 -0.948574
v 0.18725 0.250975 0.00730064
v 0.235594 -0.00341714 -0.948574
v 0.326362 0.915006 -0.948574
v -0.212072 1.13612 -0.546098
v -0.668119 0.943064 -0.00165539
v -0.170453 0.0097049 -0.172579
v -0.951195 0.632821 -0.948574
v 0.950815 -0.65704 -0.879771
v 0.252174 0.132115 -0.180419
v 0.721759 -0.902672 0.231421
v 1.08875 -0.387778 0.245622
v 1.15107 0.103837 0.701975
v 0.938739 0.674177 0.221051
v 0.988776 0.598393 1.34992
v 0.0219715 0.00987667 0.785181
v -1.03889 0.506428 1.38974
v -0.401531 -0.231399 1.47018
v -0.976622 -0.618029 0.872514
v -0.277513 0.276785 0.756796
v 0.0873773 0.238223 2.0106
v 1.10462 -0.339952 2.0106
v 0.38715 -0.24652 1.34645
v 1.02434 0.453649 1.37962
v -0.472214 -1.05488 0.912511
v 0.180221 -1.14161 1.17501
v -0.05418 -0.0897266 1.61517
v -0.340217 -1.10454 2.0106
v 0.252167 0.132123 -0.18042
v 0.950817 -0.657038 -0.879783
v 0.721758 -0.902673 0.231424
v 0.386615 -1.08916 -0.451744
v -1.04008 0.503976 1.3584
v -0.654322 0.952688 0.999885
v 0.0425332 0.217452 0.770307
v -1.09689 0.364126 0.245347
v -0.0957985 -0.185812 1.54522
v -0.991493 -0.59388 0.908874
v -0.472215 -1.05488 0.912512
v -0.870823 -0.75988 2.0106
v -0.315273 0.0543712 1.01848
v -0.774723 0.690455 2.0106
v -0.289956 1.11878 1.68365
v 0.0906611 0.208528 2.0106
v 0.189546 0.238904 -0.0380485
v 0.832833 0.801337 0.0729735
v 0.995769 0.586678 -0.948574
v 0.344949 1.10307 -0.948573
v 0.297908 0.11296 -0.22189
v 0.0525788 -0.892999 -0.948429
v -0.100181 0.00639432 -0.948574
v 1.0607 -0.458986 -0.948574
v 0.777747 -0.854904 0.228737
v 0.404854 -1.08252 0.838401
v 0.900682 -0.72424 1.48086
v 0.0948204 0.014022 0.844024
v -0.243661 -0.231823 -0.0339892
v -0.26541 -1.12486 -0.929542
v -0.100183 0.00639028 -0.948574
v -0.888447 -0.700398 -0.948574
v -0.265409 -1.12486 -0.929543
v -0.100177 0.00637032 -0.948573
v 0.373049 -1.04822 -0.434869
v -0.24366 -0.231824 -0.0339904
v 0.567991 1.00655 1.11254
v 0.0219734 0.00987967 0.785178
v 0.988776 0.598393 1.34993
v 0.938741 0.67418 0.22105
v -0.152324 0.0143869 -0.181021
v 0.309947 1.11341 0.241412
v 0.315627 0.904265 -0.948574
v -0.189168 1.14016 -0.571518
v -0.958916 0.645161 -0.948574
v -0.192457 -0.132678 -0.392987
v -1.15491 0.0438419 -0.948574
v -1.11604 0.300344 0.179936
v 0.399543 -1.08449 -0.428632
v -0.213594 -0.0991767 0.0296512
v 0.744841 -0.883721 0.286344
v -0.0939764 -1.15192 0.358315
v 0.389744 1.08805 0.260852
v -0.0271409 -0.0388664 0.656151
v 0.55443 1.01406 1.04747
v -0.29995 1.11615 0.74534
v -0.323697 0.116293 1.06958
v -0.502518 1.04078 1.89891
v -1.15492 -0.0371285 2.0106
v -1.01863 0.546026 1.33319
v -0.109872 -1.15051 0.357663
v 0.180336 -1.14159 1.17508
v 0.744567 -0.883952 0.286413
v 0.163171 -0.100361 0.524002
v -1.03819 0.507857 1.38974
v -1.14863 -0.128039 1.19994
v -1.09681 0.364369 0.247252
v -0.103137 0.192375 0.59844
v -0.207647 -0.151566 0.0460155
v -0.211015 -1.13632 0.529591
v -0.150976 -1.14584 -0.733855
v 0.399585 -1.08447 -0.428704
v 0.0104294 0.086085 0.590474
v -0.259409 1.12626 0.026483
v -0.829108 0.805189 -0.0243956
v -0.642935 0.960409 1.01051
v 0.262461 -0.183131 1.03985
v 0.61409 -0.979104 1.09112
v 0.470022 -1.05586 1.93163
v 1.13982 -0.191186 1.92944
v -0.212444 0.284802 0.907846
v -0.0826843 -0.227086 0.0760807
v 0.170164 -0.503804 0.777002
v -0.940685 -0.638089 0.909694
v 1.08875 -0.387779 0.245619
v 0.252164 0.132127 -0.180411
v 0.950814 -0.657038 -0.879771
v 1.15502 -0.0410232 -0.948574
v 1.05205 0.478475 1.38488
v 0.267296 1.12441 0.940706
v 0.754448 0.875527 2.0106
v 0.41846 -0.088998 1.26441
v 0.47489 -1.05367 2.0106
v -0.269513 -1.12388 1.8962
v 0.254138 -0.283011 1.10961
v 0.401327 -1.08383 0.824581
v -0.642313 0.960826 1.01368
v -1.11605 0.300312 0.179981
v -0.0208843 0.113638 0.569632
v -0.843433 0.790172 -0.112801
v -0.100186 0.00638932 -0.948574
v -1.15564 0.0156939 -0.838615
v -0.235691 -0.226028 -0.0226783
v -0.774722 0.690454 2.0106
v -0.315273 0.0543708 1.01848
v -0.366874 -0.360268 2.0106
v 0.0906607 0.208527 2.0106
v 0.379432 1.09169 0.213399
v 0.0309099 0.0184468 0.781982
v 0.567669 1.00673 1.1132
v 0.947898 0.66124 0.193807
v -0.764193 -0.811185 0.102155
v -1.1381 -0.201207 -0.0547107
v -0.95453 -0.651632 0.915487
v -0.0810532 0.170484 0.514035
v -1.11604 0.300341 0.179953
v -0.724188 0.900723 -0.165489
v -0.19246 -0.132672 -0.392989
v -0.958915 0.645161 -0.948574
v -0.161679 -0.117372 0.0968261
v -0.215311 -1.13551 0.525604
v -0.755963 -0.874227 -0.0533282
v -0.956174 -0.649023 0.925153
v -0.324422 1.10928 0.739674
v -0.502035 1.04101 1.89577
v 0.279389 1.12147 0.92746
v -0.319761 0.126599 1.041
v 1.09496 -0.369877 0.1799
v 0.200365 0.142062 -0.13634
v 1.122 0.277253 0.271395
v 1.15365 -0.0407597 -0.947405
v 0.99577 0.586676 -0.948574
v 0.235595 -0.00341681 -0.948574
v 0.34495 1.10307 -0.948574
v 0.189545 0.238905 -0.0380496
v -0.754874 -0.875167 -0.0519693
v -0.150978 -1.14582 -0.733834
v -0.20765 -0.151539 0.0460361
v -0.211016 -1.13632 0.529609
v 0.180225 -1.1416 1.17502
v -0.933405 -0.590664 0.937912
v -0.0744863 0.00136696 1.65328
v 0.298652 -0.321545 1.03594
v 0.099877 0.231118 2.0106
v 1.10462 -0.339954 2.0106
v 0.254128 -0.283016 1.10961
v 0.196053 -0.542272 0.872883
v -0.0846653 -1.14631 0.426679
v -0.93531 -0.635066 0.903404
v -0.0766635 -0.224258 0.0703628
v 1.1405 -0.187135 0.240909
v 0.016705 0.00606278 0.788417
v 1.11985 -0.28581 1.03114
v 0.933476 0.670361 0.224291
v -0.155826 -0.0226569 -0.175775
v -0.189104 1.14017 -0.571417
v -0.649194 0.900084 -0.00538489
v 0.304011 1.0792 0.241897
v 0.366347 1.09615 0.255693
v 0.326423 0.210974 -0.0361803
v -0.79798 0.778529 -0.00160145
v 0.104423 0.130231 0.602865
v -0.849243 -0.783925 0.0924092
v -0.839174 -0.794694 -0.948573
v -0.227609 -0.223628 -0.0130795
v -1.15564 0.015651 -0.838611
v 0.337681 0.223401 -0.0615839
v 0.0180384 0.0203927 0.785671
v 0.472339 1.04547 0.200153
v 1.11936 -0.0410019 0.230836
v -1.09682 0.364322 0.247343
v -0.0908755 0.141224 0.560692
v -1.14863 -0.128042 1.19995
v -1.13862 -0.198202 -0.06141
v -0.774724 0.690455 2.0106
v -0.355868 0.110573 1.10614
v -0.317008 -0.488737 2.0106
v -1.15514 -0.0375459 2.0106
v 0.254127 -0.283015 1.10961
v -0.269515 -1.12388 1.8962
v -0.30878 -0.288048 2.0106
v 0.602571 -0.986235 2.0106
v -0.0954268 0.139575 0.554987
v -0.969058 -0.629824 0.8621
v -1.14865 -0.127903 1.20243
v -1.13863 -0.198151 -0.0604852
v 0.0218342 0.0421221 0.614313
v 0.384169 1.09003 0.264611
v -0.259409 1.12626 0.0264826
v -0.638537 0.963339 0.998106
v 0.380511 -0.0840358 1.46721
v 0.163556 0.708792 0.851029
v 0.0940948 0.219897 1.9905
v -0.583351 -0.291591 1.05441
v -0.985142 -0.586327 0.891969
v -1.15514 -0.0375474 2.0106
v -0.329805 -0.314246 1.47932
v -1.03896 0.506281 1.38962
v 1.15214 0.0911986 0.686964
v 1.1068 -0.189149 1.88234
v 0.180797 -0.0311622 1.03525
v 1.0106 0.560752 1.29585
v 0.900684 -0.724237 1.48086
v 0.218023 -0.03354 1.05224
v 1.15211 0.0916804 0.684887
v 1.12807 -0.195998 1.91562
v 0.26767 1.12432 0.941484
v -0.372683 1.09401 2.0106
v 0.73691 0.890346 2.0106
v 0.192225 0.519005 1.10851
v 1.122 0.277255 0.271401
v 0.99577 0.586681 -0.948564
v 1.15502 -0.0410226 -0.948574
v 0.216436 0.146424 -0.121576
v 0.005188107490539551 1.1560142040252686 -0.9496760368347168
v 0.005188107490539551 1.1560142040252686 2.0095040798187256
v 0.1259968876838684 1.149682879447937 -0.9496760368347168
v 0.1259968876838684 1.149682879447937 2.0095040798187256
v 0.24548204243183136 1.130758285522461 -0.9496760368347168
v 0.24548204243183136 1.130758285522461 2.0095040798187256
v 0.3623344898223877 1.0994477272033691 -0.9496760368347168
v 0.3623344898223877 1.0994477272033691 2.0095040798187256
v 0.475273996591568 1.0560942888259888 -0.9496760368347168
v 0.475273996591568 1.0560942888259888 2.0095040798187256
v 0.5830631256103516 1.0011730194091797 -0.9496760368347168
v 0.5830631256103516 1.0011730194091797 2.0095040798187256
v 0.6845209002494812 0.9352856278419495 -0.9496760368347168
v 0.6845209002494812 0.9352856278419495 2.0095040798187256
v 0.778535783290863 0.8591538667678833 -0.9496760368347168
v 0.778535783290863 0.8591538667678833 2.0095040798187256
v 0.8640777468681335 0.7736119031906128 -0.9496760368347168
v 0.8640777468681335 0.7736119031906128 2.0095040798187256
v 0.9402095079421997 0.679597020149231 -0.9496760368347168
v 0.9402095079421997 0.679597020149231 2.0095040798187256
v 1.0060969591140747 0.5781392455101013 -0.9496760368347168
v 1.0060969591140747 0.5781392455101013 2.0095040798187256
v 1.0610182285308838 0.47035011649131775 -0.9496760368347168
v 1.0610182285308838 0.47035011649131775 2.0095040798187256
v 1.1043716669082642 0.35741060972213745 -0.9496760368347168
v 1.1043716669082642 0.35741060972213745 2.0095040798187256
v 1.135682225227356 0.24055814743041992 -0.9496760368347168
v 1.135682225227356 0.24055814743041992 2.0095040798187256
v 1.154606819152832 0.12107299268245697 -0.9496760368347168
v 1.154606819152832 0.12107299268245697 2.0095040798187256
v 1.1609381437301636 0.0002642183389980346 -0.9496760368347168
v 1.1609381437301636 0.0002642183389980346 2.0095040798187256
v 1.154606819152832 -0.12054455280303955 -0.9496760368347168
v 1.154606819152832 -0.12054455280303955 2.0095040798187256
v 1.135682225227356 -0.2400297224521637 -0.9496760368347168
v 1.135682225227356 -0.2400297224521637 2.0095040798187256
v 1.1043716669082642 -0.35688215494155884 -0.9496760368347168
v 1.1043716669082642 -0.35688215494155884 2.0095040798187256
v 1.0610182285308838 -0.46982166171073914 -0.9496760368347168
v 1.0610182285308838 -0.46982166171073914 2.0095040798187256
v 1.0060969591140747 -0.5776107907295227 -0.9496760368347168
v 1.0060969591140747 -0.5776107907295227 2.0095040798187256
v 0.9402095079421997 -0.6790685653686523 -0.9496760368347168
v 0.9402095079421997 -0.6790685653686523 2.0095040798187256
v 0.8640777468681335 -0.7730834484100342 -0.9496760368347168
v 0.8640777468681335 -0.7730834484100342 2.0095040798187256
v 0.778535783290863 -0.8586254119873047 -0.9496760368347168
v 0.778535783290863 -0.8586254119873047 2.0095040798187256
v 0.6845209002494812 -0.9347571730613708 -0.9496760368347168
v 0.6845209002494812 -0.9347571730613708 2.0095040798187256
v 0.5830631256103516 -1.0006446838378906 -0.9496760368347168
v 0.5830631256103516 -1.0006446838378906 2.0095040798187256
v 0.475273996591568 -1.0555659532546997 -0.9496760368347168
v 0.475273996591568 -1.0555659532546997 2.0095040798187256
v 0.3623344898223877 -1.09891939163208 -0.9496760368347168
v 0.3623344898223877 -1.09891939163208 2.0095040798187256
v 0.24548204243183136 -1.1302299499511719 -0.9496760368347168
v 0.24548204243183136 -1.1302299499511719 2.0095040798187256
v 0.1259968876838684 -1.149154543876648 -0.9496760368347168
v 0.1259968876838684 -1.149154543876648 2.0095040798187256
v 0.005188107490539551 -1.1554858684539795 -0.9496760368347168
v 0.005188107490539551 -1.1554858684539795 2.0095040798187256
v -0.11562066525220871 -1.149154543876648 -0.9496760368347168
v -0.11562066525220871 -1.149154543876648 2.0095040798187256
v -0.23510582745075226 -1.1302299499511719 -0.9496760368347168
v -0.23510582745075226 -1.1302299499511719 2.0095040798187256
v -0.3519582748413086 -1.09891939163208 -0.9496760368347168
v -0.3519582748413086 -1.09891939163208 2.0095040798187256
v -0.4648977816104889 -1.0555659532546997 -0.9496760368347168
v -0.4648977816104889 -1.0555659532546997 2.0095040798187256
v -0.5726869106292725 -1.0006446838378906 -0.9496760368347168
v -0.5726869106292725 -1.0006446838378906 2.0095040798187256
v -0.6741446852684021 -0.9347571730613708 -0.9496760368347168
v -0.6741446852684021 -0.9347571730613708 2.0095040798187256
v -0.7681595683097839 -0.8586254119873047 -0.9496760368347168
v -0.7681595683097839 -0.8586254119873047 2.0095040798187256
v -0.8537015318870544 -0.7730834484100342 -0.9496760368347168
v -0.8537015318870544 -0.7730834484100342 2.0095040798187256
v -0.9298332929611206 -0.6790685653686523 -0.9496760368347168
v -0.9298332929611206 -0.6790685653686523 2.0095040798187256
v -0.9957207441329956 -0.5776107907295227 -0.9496760368347168
v -0.9957207441329956 -0.5776107907295227 2.0095040798187256
v -1.0506420135498047 -0.46982166171073914 -0.9496760368347168
v -1.0506420135498047 -0.46982166171073914 2.0095040798187256
v -1.093995451927185 -0.35688215494155884 -0.9496760368347168
v -1.093995451927185 -0.35688215494155884 2.0095040798187256
v -1.1253060102462769 -0.2400297224521637 -0.9496760368347168
v -1.1253060102462769 -0.2400297224521637 2.0095040798187256
v -1.144230604171753 -0.12054455280303955 -0.9496760368347168
v -1.144230604171753 -0.12054455280303955 2.0095040798187256
v -1.1505619287490845 0.0002642183389980346 -0.9496760368347168
v -1.1505619287490845 0.0002642183389980346 2.0095040798187256
v -1.144230604171753 0.12107299268245697 -0.9496760368347168
v -1.144230604171753 0.12107299268245697 2.0095040798187256
v -1.1253060102462769 0.24055814743041992 -0.9496760368347168
v -1.1253060102462769 0.24055814743041992 2.0095040798187256
v -1.093995451927185 0.35741060972213745 -0.9496760368347168
v -1.093995451927185 0.35741060972213745 2.0095040798187256
v -1.0506420135498047 0.47035011649131775 -0.9496760368347168
v -1.0506420135498047 0.47035011649131775 2.0095040798187256
v -0.9957207441329956 0.5781392455101013 -0.9496760368347168
v -0.9957207441329956 0.5781392455101013 2.0095040798187256
v -0.9298332929611206 0.679597020149231 -0.9496760368347168
v -0.9298332929611206 0.679597020149231 2.0095040798187256
v -0.8537015318870544 0.7736119031906128 -0.9496760368347168
v -0.8537015318870544 0.7736119031906128 2.0095040798187256
v -0.7681595683097839 0.8591538667678833 -0.9496760368347168
v -0.7681595683097839 0.8591538667678833 2.0095040798187256
v -0.6741446852684021 0.9352856278419495 -0.9496760368347168
v -0.6741446852684021 0.9352856278419495 2.0095040798187256
v -0.5726869106292725 1.0011730194091797 -0.9496760368347168
v -0.5726869106292725 1.0011730194091797 2.0095040798187256
v -0.4648977816104889 1.0560942888259888 -0.9496760368347168
v -0.4648977816104889 1.0560942888259888 2.0095040798187256
v -0.3519582748413086 1.0994477272033691 -0.9496760368347168
v -0.3519582748413086 1.0994477272033691 2.0095040798187256
v -0.23510582745075226 1.130758285522461 -0.9496760368347168
v -0.23510582745075226 1.130758285522461 2.0095040798187256
v -0.11562066525220871 1.149682879447937 -0.9496760368347168
v -0.11562066525220871 1.149682879447937 2.0095040798187256
f 1 2 3
f 1 4 2
f 1 3 4
f 2 4 3
f 5 6 7
f 5 8 6
f 5 7 8
f 6 8 7
f 9 10 11
f 9 12 10
f 9 11 12
f 10 12 11
f 13 14 15
f 13 16 14
f 13 15 16
f 14 16 15
f 17 18 19
f 17 20 18
f 17 19 20
f 18 20 19
f 21 22 23
f 21 24 22
f 21 23 24
f 22 24 23
f 25 26 27
f 25 28 26
f 25 27 28
f 26 28 27
f 29 30 31
f 29 32 30
f 29 31 32
f 30 32 31
f 33 34 35
f 33 36 34
f 33 35 36
f 34 36 35
f 37 38 39
f 37 40 38
f 37 39 40
f 38 40 39
f 41 42 43
f 41 44 42
f 41 43 44
f 42 44 43
f 45 46 47
f 45 48 46
f 45 47 48
f 46 48 47
f 49 50 51
f 49 52 50
f 49 51 52
f 50 52 51
f 53 54 55
f 53 56 54
f 53 55 56
f 54 56 55
f 57 58 59
f 57 60 58
f 57 59 60
f 58 60 59
f 61 62 63
f 61 64 62
f 61 63 64
f 62 64 63
f 65 46 47
f 65 66 46
f 65 47 66
f 46 66 47
f 67 68 69
f 67 70 68
f 67 69 70
f 68 70 69
f 71 72 73
f 71 74 72
f 71 73 74
f 72 74 73
f 75 76 77
f 75 78 76
f 75 77 78
f 76 78 77
f 79 80 81
f 79 82 80
f 79 81 82
f 80 82 81
f 83 84 85
f 83 86 84
f 83 85 86
f 84 86 85
f 87 88 89
f 87 90 88
f 87 89 90
f 88 90 89
f 91 92 93
f 91 94 92
f 91 93 94
f 92 94 93
f 95 96 97
f 95 98 96
f 95 97 98
f 96 98 97
f 99 100 101
f 99 102 100
f 99 101 102
f 100 102 101
f 103 104 105
f 103 106 104
f 103 105 106
f 104 106 105
f 107 108 109
f 107 110 108
f 107 109 110
f 108 110 109
f 111 112 113
f 111 114 112
f 111 113 114
f 112 114 113
f 115 116 117
f 115 118 116
f 115 117 118
f 116 118 117
f 119 120 121
f 119 122 120
f 119 121 122
f 120 122 121
f 123 124 125
f 123 126 124
f 123 125 126
f 124 126 125
f 127 128 129
f 127 130 128
f 127 129 130
f 128 130 129
f 131 132 133
f 131 134 132
f 131 133 134
f 132 134 133
f 135 136 137
f 135 138 136
f 135 137 138
f 136 138 137
f 139 140 141
f 139 142 140
f 139 141 142
f 140 142 141
f 143 144 145
f 143 146 144
f 143 145 146
f 144 146 145
f 147 148 149
f 147 150 148
f 147 149 150
f 148 150 149
f 151 152 153
f 151 154 152
f 151 153 154
f 152 154 153
f 155 156 157
f 155 158 156
f 155 157 158
f 156 158 157
f 159 160 161
f 159 162 160
f 159 161 162
f 160 162 161
f 163 164 165
f 163 166 164
f 163 165 166
f 164 166 165
f 167 168 169
f 167 170 168
f 167 169 170
f 168 170 169
f 171 172 173
f 171 174 172
f 171 173 174
f 172 174 173
f 175 176 177
f 175 178 176
f 175 177 178
f 176 178 177
f 179 180 181
f 179 182 180
f 179 181 182
f 180 182 181
f 183 184 185
f 183 186 184
f 183 185 186
f 184 186 185
f 187 188 189
f 187 190 188
f 187 189 190
f 188 190 189
f 191 192 193
f 191 194 192
f 191 193 194
f 192 194 193
f 195 196 197
f 195 198 196
f 195 197 198
f 196 198 197
f 199 200 201
f 199 202 200
f 199 201 202
f 200 202 201
f 203 204 205
f 203 206 204
f 203 205 206
f 204 206 205
f 207 208 209
f 207 210 208
f 207 209 210
f 208 210 209
f 211 212 213
f 211 214 212
f 211 213 214
f 212 214 213
f 215 216 217
f 215 218 216
f 215 217 218
f 216 218 217
f 219 220 221
f 219 222 220
f 219 221 222
f 220 222 221
f 154 223 224
f 154 225 223
f 154 224 225
f 223 225 224
f 226 227 228
f 226 229 227
f 226 228 229
f 227 229 228
f 230 231 232
f 230 233 231
f 230 232 233
f 231 233 232
f 234 235 236
f 234 237 235
f 234 236 237
f 235 237 236
f 238 239 240
f 238 241 239
f 238 240 241
f 239 241 240
f 242 243 244
f 242 245 243
f 242 244 245
f 243 245 244
f 246 247 248
f 246 249 247
f 246 248 249
f 247 249 248
f 250 251 252
f 250 253 251
f 250 252 253
f 251 253 252
f 254 255 256
f 254 257 255
f 254 256 257
f 255 257 256
f 258 259 260
f 258 261 259
f 258 260 261
f 259 261 260
f 262 263 264
f 262 265 263
f 262 264 265
f 263 265 264
f 2 266 267
f 2 268 266
f 2 267 268
f 266 268 267
f 269 270 271
f 269 272 270
f 269 271 272
f 270 272 271
f 273 274 275
f 273 276 274
f 273 275 276
f 274 276 275
f 277 278 279
f 277 280 278
f 277 279 280
f 278 280 279
f 281 282 283
f 281 284 282
f 281 283 284
f 282 284 283
f 285 286 287
f 285 288 286
f 285 287 288
f 286 288 287
f 289 290 291
f 289 292 290
f 289 291 292
f 290 292 291
f 293 294 295
f 293 296 294
f 293 295 296
f 294 296 295
f 297 298 299
f 297 300 298
f 297 299 300
f 298 300 299
f 301 302 303
f 301 304 302
f 301 303 304
f 302 304 303
f 305 306 307
f 305 308 306
f 305 307 308
f 306 308 307
f 309 310 311
f 309 312 310
f 309 311 312
f 310 312 311
f 313 314 315
f 313 316 314
f 313 315 316
f 314 316 315
f 317 318 319
f 317 320 318
f 317 319 320
f 318 320 319
f 321 322 323
f 321 324 322
f 321 323 324
f 322 324 323
f 325 326 327
f 325 328 326
f 325 327 328
f 326 328 327
f 329 330 331
f 329 332 330
f 329 331 332
f 330 332 331
f 333 334 335
f 333 336 334
f 333 335 336
f 334 336 335
f 337 338 340 339
f 339 340 342 341
f 341 342 344 343
f 343 344 346 345
f 345 346 348 347
f 347 348 350 349
f 349 350 352 351
f 351 352 354 353
f 353 354 356 355
f 355 356 358 357
f 357 358 360 359
f 359 360 362 361
f 361 362 364 363
f 363 364 366 365
f 365 366 368 367
f 367 368 370 369
f 369 370 372 371
f 371 372 374 373
f 373 374 376 375
f 375 376 378 377
f 377 378 380 379
f 379 380 382 381
f 381 382 384 383
f 383 384 386 385
f 385 386 388 387
f 387 388 390 389
f 389 390 392 391
f 391 392 394 393
f 393 394 396 395
f 395 396 398 397
f 397 398 400 399
f 399 400 402 401
f 401 402 404 403
f 403 404 406 405
f 405 406 408 407
f 407 408 410 409
f 409 410 412 411
f 411 412 414 413
f 413 414 416 415
f 415 416 418 417
f 417 418 420 419
f 419 420 422 421
f 421 422 424 423
f 423 424 426 425
f 425 426 428 427
f 427 428 430 429
f 429 430 432 431
f 431 432 434 433
f 433 434 436 435
f 435 436 438 437
f 437 438 440 439
f 439 440 442 441
f 441 442 444 443
f 443 444 446 445
f 445 446 448 447
f 447 448 450 449
f 449 450 452 451
f 451 452 454 453
f 453 454 456 455
f 455 456 338 337
f 337 339 341 343 345 347 349 351 353 355 357 359 361 363 365 367 369 371 373 375 377 379 381 383 385 387 389 391 393 395 397 399 401 403 405 407 409 411 413 415 417 419 421 423 425 427 429 431 433 435 437 439 441 443 445 447 449 451 453 455
f 456 454 452 450 448 446 444 442 440 438 436 434 432 430 428 426 424 422 420 418 416 414 412 410 408 406 404 402 400 398 396 394 392 390 388 386 384 382 380 378 376 374 372 370 368 366 364 362 360 358 356 354 352 350 348 346 344 342 340 338
