# Generated by Visualization Toolkit
v 19.5807 20.4204 20.374
v 20.2995 20.416 20.4146
v 20.4204 19.5834 20.3913
v 19.5826 19.6471 19.6074
v 20.4278 19.5722 20.4278
v 19.5722 19.5722 20.4278
v 19.5722 20.4278 20.4278
v 19.5722 19.5722 19.5722
v 19.6612 19.5875 19.6051
v 20.3399 20.4154 20.3989
v 19.585 20.4179 19.6988
v 20.4151 19.5831 20.3116
v 19.7458 19.5818 19.5803
v 19.5831 20.423 19.5795
v 20.4233 19.5804 19.5841
v 20.4222 20.4164 20.3542
v 20.4163 19.582 20.2392
v 19.7175 19.5847 19.5927
v 20.3978 20.4162 20.3797
v 19.5858 20.4184 19.6303
v 19.538230895996094 19.533105850219727 19.60206413269043
v 19.538230895996094 19.533105850219727 20.457664489746094
v 19.538230895996094 20.388704299926758 20.457664489746094
v 19.538230895996094 20.388704299926758 19.60206413269043
v 20.393829345703125 19.533105850219727 19.60206413269043
v 20.393829345703125 20.388704299926758 19.60206413269043
v 20.393829345703125 20.388704299926758 20.457664489746094
v 20.393829345703125 19.533105850219727 20.457664489746094
f 1 2 3
f 1 4 2
f 1 3 4
f 2 4 3
f 5 6 7
f 5 8 6
f 5 7 8
f 6 8 7
f 9 10 11
f 9 12 10
f 9 11 12
f 10 12 11
f 13 14 15
f 13 16 14
f 13 15 16
f 14 16 15
f 17 18 19
f 17 20 18
f 17 19 20
f 18 20 19
f 21 22 23 24
f 25 26 27 28
f 21 25 28 22
f 24 23 27 26
f 21 24 26 25
f 22 28 27 23
