# Generated by Visualization Toolkit
v 19.5816 20.4211 19.6397
v 20.3664 20.4209 20.4175
v 20.3886 19.6499 20.4179
v 19.5836 19.6481 19.6133
v 20.4278 19.5722 20.4278
v 19.5722 19.5722 20.4278
v 19.5722 20.4278 20.4278
v 19.5722 19.5722 19.5722
v 19.6038 19.6371 19.6064
v 19.6035 20.4169 19.6018
v 20.4014 20.4161 20.3984
v 20.3948 19.6537 20.3973
v 20.4278 20.4278 19.5722
v 20.4278 19.5722 19.5722
v 20.4176 20.4204 20.3495
v 19.609 19.6416 19.584
v 20.4169 19.6427 20.3908
v 19.6551 20.4205 19.5819
v 19.573314666748047 19.50609016418457 19.572124481201172
v 19.573314666748047 19.50609016418457 20.427724838256836
v 19.573314666748047 20.361690521240234 20.427724838256836
v 19.573314666748047 20.361690521240234 19.572124481201172
v 20.42891502380371 19.50609016418457 19.572124481201172
v 20.42891502380371 20.361690521240234 19.572124481201172
v 20.42891502380371 20.361690521240234 20.427724838256836
v 20.42891502380371 19.50609016418457 20.427724838256836
f 1 2 3
f 1 4 2
f 1 3 4
f 2 4 3
f 5 6 7
f 5 8 6
f 5 7 8
f 6 8 7
f 9 10 11
f 9 12 10
f 9 11 12
f 10 12 11
f 5 13 8
f 5 14 13
f 5 8 14
f 13 14 8
f 15 16 17
f 15 18 16
f 15 17 18
f 16 18 17
f 19 20 21 22
f 23 24 25 26
f 19 23 26 20
f 22 21 25 24
f 19 22 24 23
f 20 26 25 21
