# Generated by Visualization Toolkit
v 20.4278 20.4278 19.5722
v 20.4278 20.4278 20.4278
v 20.4278 19.5722 20.4278
v 19.5722 20.4278 20.4278
v 20.4257 19.582 19.5763
v 20.2756 19.5775 20.425
v 19.5731 20.4238 19.739
v 20.4228 20.4188 19.5744
v 19.582 20.2768 20.3799
v 19.583 20.4257 19.5752
v 20.3921 19.5809 19.6371
v 19.5907 19.5753 20.4249
v 19.5722 19.5722 19.5722
v 19.5722 20.4278 19.5722
v 20.4278 19.5722 19.5722
v 19.5722 19.5722 20.4278
v 19.6362 19.7245 20.4176
v 20.4252 19.5739 20.4167
v 20.378 20.4194 19.6032
v 19.5741 20.4256 20.4127
v 19.56512451171875 19.572410583496094 19.581300735473633
v 19.56512451171875 19.572410583496094 20.436899185180664
v 19.56512451171875 20.428010940551758 20.436899185180664
v 19.56512451171875 20.428010940551758 19.581300735473633
v 20.420724868774414 19.572410583496094 19.581300735473633
v 20.420724868774414 20.428010940551758 19.581300735473633
v 20.420724868774414 20.428010940551758 20.436899185180664
v 20.420724868774414 19.572410583496094 20.436899185180664
f 1 2 3
f 1 4 2
f 1 3 4
f 2 4 3
f 5 6 7
f 5 8 6
f 5 7 8
f 6 8 7
f 9 10 11
f 9 12 10
f 9 11 12
f 10 12 11
f 13 14 15
f 13 16 14
f 13 15 16
f 14 16 15
f 17 18 19
f 17 20 18
f 17 19 20
f 18 20 19
f 21 22 23 24
f 25 26 27 28
f 21 25 28 22
f 24 23 27 26
f 21 24 26 25
f 22 28 27 23
