# Generated by Visualization Toolkit
v 19.573 19.573 20.427
v 19.6784 20.427 20.427
v 20.427 19.573 19.6784
v 19.573 19.573 19.573
v 19.5936 19.5785 20.4208
v 20.4215 20.421 19.7998
v 19.7009 20.4213 20.4228
v 20.4217 19.5781 19.7044
v 20.4259 20.4253 20.4252
v 19.5929 19.5741 20.4261
v 19.703 20.4214 20.4263
v 20.4261 19.5748 19.7069
v 20.4186 20.4184 19.7889
v 19.6907 20.4187 20.4223
v 19.5925 19.581 20.415
v 20.4186 19.5805 19.6959
v 20.427 20.427 19.573
v 19.573 20.427 19.573
v 19.56117820739746 19.572694778442383 19.623598098754883
v 19.56117820739746 19.572694778442383 20.477521896362305
v 19.56117820739746 20.426616668701172 20.477521896362305
v 19.56117820739746 20.426616668701172 19.623598098754883
v 20.41510009765625 19.572694778442383 19.623598098754883
v 20.41510009765625 20.426616668701172 19.623598098754883
v 20.41510009765625 20.426616668701172 20.477521896362305
v 20.41510009765625 19.572694778442383 20.477521896362305
f 1 2 3
f 1 4 2
f 1 3 4
f 2 4 3
f 5 6 7
f 5 8 6
f 5 7 8
f 6 8 7
f 9 10 11
f 9 12 10
f 9 11 12
f 10 12 11
f 13 14 15
f 13 16 14
f 13 15 16
f 14 16 15
f 17 2 3
f 17 18 2
f 17 3 18
f 2 18 3
f 19 20 21 22
f 23 24 25 26
f 19 23 26 20
f 22 21 25 24
f 19 22 24 23
f 20 26 25 21
