# Generated by Visualization Toolkit
v 20.4237 20.4237 19.8493
v 19.5766 19.5772 20.4078
v 19.5766 20.3755 19.5794
v 20.4236 19.8105 20.4216
v 20.4278 20.4278 19.5722
v 19.5722 19.5722 19.5722
v 20.4278 19.5722 20.4278
v 20.4278 19.5722 19.5722
v 20.4192 19.6074 20.4218
v 19.5786 19.6135 19.5794
v 20.3496 20.4133 19.5911
v 19.5882 19.5895 20.2748
v 20.4228 20.4199 19.7706
v 19.5773 19.5808 20.342
v 19.5771 20.28 19.581
v 20.4229 19.7076 20.419
v 19.5722 20.4278 20.4278
v 19.5722 20.4278 19.5722
v 19.5722 19.5722 20.4278
v 20.4278 20.4278 20.4278
v 19.56900978088379 19.542144775390625 19.584089279174805
v 19.56900978088379 19.542144775390625 20.43968963623047
v 19.56900978088379 20.39774513244629 20.43968963623047
v 19.56900978088379 20.39774513244629 19.584089279174805
v 20.424610137939453 19.542144775390625 19.584089279174805
v 20.424610137939453 20.39774513244629 19.584089279174805
v 20.424610137939453 20.39774513244629 20.43968963623047
v 20.424610137939453 19.542144775390625 20.43968963623047
f 1 2 3
f 1 4 2
f 1 3 4
f 2 4 3
f 5 6 7
f 5 8 6
f 5 7 8
f 6 8 7
f 9 10 11
f 9 12 10
f 9 11 12
f 10 12 11
f 13 14 15
f 13 16 14
f 13 15 16
f 14 16 15
f 17 18 19
f 17 20 18
f 17 19 20
f 18 20 19
f 21 22 23 24
f 25 26 27 28
f 21 25 28 22
f 24 23 27 26
f 21 24 26 25
f 22 28 27 23
