# Generated by Visualization Toolkit
v 20.3916 19.6066 20.3882
v 19.608 20.3928 19.6124
v 19.6079 19.6083 20.3917
v 20.3919 20.3899 19.6101
v 19.6054 20.3946 20.3946
v 19.6054 19.6054 20.3946
v 20.3946 19.6054 20.3946
v 20.3946 20.3946 19.6054
v 19.6054 20.3946 19.6054
v 20.3946 19.6054 19.6054
v 20.3921 19.607 20.3877
v 19.6077 19.6083 20.3917
v 20.3922 20.3896 19.6104
v 19.6078 20.3923 19.613
v 19.6082 20.394 19.6112
v 20.3914 19.6063 20.3885
v 19.6079 19.6106 20.3894
v 20.3918 20.3912 19.6088
v 19.60527801513672 19.60519790649414 19.605506896972656
v 19.60527801513672 19.60519790649414 20.39480209350586
v 19.60527801513672 20.394493103027344 20.39480209350586
v 19.60527801513672 20.394493103027344 19.605506896972656
v 20.394573211669922 19.60519790649414 19.605506896972656
v 20.394573211669922 20.394493103027344 19.605506896972656
v 20.394573211669922 20.394493103027344 20.39480209350586
v 20.394573211669922 19.60519790649414 20.39480209350586
f 1 2 3
f 1 4 2
f 1 3 4
f 2 4 3
f 5 6 7
f 5 8 6
f 5 7 8
f 6 8 7
f 8 6 9
f 8 10 6
f 8 9 10
f 6 10 9
f 11 12 13
f 11 14 12
f 11 13 14
f 12 14 13
f 15 16 17
f 15 18 16
f 15 17 18
f 16 18 17
f 19 20 21 22
f 23 24 25 26
f 19 23 26 20
f 22 21 25 24
f 19 22 24 23
f 20 26 25 21
