# Generated by Visualization Toolkit
v 20.4278 20.4278 19.5722
v 20.4278 19.5722 20.4278
v 19.5722 20.4278 20.4278
v 20.4278 20.4278 20.4278
v 19.5758 20.4259 20.2649
v 19.5855 19.5754 20.4265
v 20.416 19.7517 19.5738
v 20.4255 19.5737 20.4193
v 19.5722 19.5722 19.5722
v 19.5722 20.4278 19.5722
v 20.4278 19.5722 19.5722
v 19.5722 19.5722 20.4278
v 19.5737 20.4184 20.4265
v 20.4241 19.6129 20.3517
v 20.4251 20.4148 19.5744
v 19.7634 20.3915 19.5776
v 19.5843 20.4261 19.5742
v 19.5777 19.5759 20.4262
v 19.5888 20.4106 20.243
v 20.4086 19.6806 19.5791
v 19.53962516784668 19.58507537841797 19.59406089782715
v 19.53962516784668 19.58507537841797 20.44965934753418
v 19.53962516784668 20.440675735473633 20.44965934753418
v 19.53962516784668 20.440675735473633 19.59406089782715
v 20.395225524902344 19.58507537841797 19.59406089782715
v 20.395225524902344 20.440675735473633 19.59406089782715
v 20.395225524902344 20.440675735473633 20.44965934753418
v 20.395225524902344 19.58507537841797 20.44965934753418
f 1 2 3
f 1 4 2
f 1 3 4
f 2 4 3
f 5 6 7
f 5 8 6
f 5 7 8
f 6 8 7
f 9 10 11
f 9 12 10
f 9 11 12
f 10 12 11
f 13 14 15
f 13 16 14
f 13 15 16
f 14 16 15
f 17 18 19
f 17 20 18
f 17 19 20
f 18 20 19
f 21 22 23 24
f 25 26 27 28
f 21 25 28 22
f 24 23 27 26
f 21 24 26 25
f 22 28 27 23
